/* XPM */
static char *_bd161cc6bbc488eb605867c3d7d1cbdUPg0tjWbxRmHdgdV[] = {
/* columns rows colors chars-per-pixel */
"40 40 168 2 ",
"   c #1E3F4E",
".  c #203A47",
"X  c #213D48",
"o  c #2B3E4D",
"O  c #2F3E51",
"+  c #26424D",
"@  c #244555",
"#  c #294656",
"$  c #264A56",
"%  c #2A4A57",
"&  c #264758",
"*  c #254C5C",
"=  c #2F4C5E",
"-  c #394955",
";  c #35475F",
":  c #334D5B",
">  c #3B4C5A",
",  c #2B525E",
"<  c #37535F",
"1  c #3E515F",
"2  c #244862",
"3  c #294B64",
"4  c #344D63",
"5  c #3E4F61",
"6  c #2D5167",
"7  c #365161",
"8  c #3C5364",
"9  c #31576A",
"0  c #3A556A",
"q  c #34596C",
"w  c #3B5B6C",
"e  c #345D73",
"r  c #38606A",
"t  c #3E6472",
"y  c #38657C",
"u  c #444C59",
"i  c #4F4F5B",
"p  c #5D4E5B",
"a  c #534C5C",
"s  c #45525C",
"d  c #4C555B",
"f  c #4E595C",
"g  c #56555D",
"h  c #5B555E",
"j  c #555A5E",
"k  c #59595D",
"l  c #604E5A",
"z  c #61545E",
"x  c #424D61",
"c  c #425363",
"v  c #4C5464",
"b  c #455966",
"n  c #4D5963",
"m  c #4B5A69",
"M  c #555562",
"N  c #5A5760",
"B  c #555A62",
"V  c #5A5961",
"C  c #59576B",
"Z  c #545A6A",
"A  c #5B5C6A",
"S  c #54546C",
"D  c #545F75",
"F  c #585F71",
"G  c #615462",
"H  c #615963",
"J  c #695964",
"K  c #62576C",
"L  c #685C6A",
"P  c #4E6167",
"I  c #576163",
"U  c #596066",
"Y  c #456677",
"T  c #45687C",
"R  c #1C6285",
"E  c #1F698E",
"W  c #1D6B91",
"Q  c #2A6786",
"!  c #2F6B87",
"~  c #266888",
"^  c #2F6A8A",
"/  c #376886",
"(  c #366E89",
")  c #3D6E8C",
"_  c #3B6A84",
"`  c #3F728B",
"'  c #35738C",
"]  c #277196",
"[  c #2D7394",
"{  c #3B7793",
"}  c #3E7B9A",
"|  c #2F7AA1",
" . c #317FA5",
".. c #446984",
"X. c #447680",
"o. c #4A7885",
"O. c #46768A",
"+. c #4C778A",
"@. c #4C7B8B",
"#. c #517C8C",
"$. c #467795",
"%. c #4B7C92",
"&. c #517690",
"*. c #3682A6",
"=. c #3E84A6",
"-. c #3686A9",
";. c #3B87AB",
":. c #3C8BAA",
">. c #3D8AB0",
",. c #4D8594",
"<. c #47809D",
"1. c #538399",
"2. c #518B99",
"3. c #509099",
"4. c #5A929E",
"5. c #4085A4",
"6. c #478AA7",
"7. c #4D8FA4",
"8. c #4089AD",
"9. c #488EA8",
"0. c #4990AE",
"q. c #5590A3",
"w. c #5C93A4",
"e. c #599BA7",
"r. c #5094AB",
"t. c #5698AE",
"y. c #5A9BAD",
"u. c #468EB3",
"i. c #4490B4",
"p. c #5299B5",
"a. c #5397BA",
"s. c #5A9CBF",
"d. c #5B9DB5",
"f. c #6599A7",
"g. c #619CAC",
"h. c #6A9BAA",
"j. c #669CB6",
"k. c #5CA0A9",
"l. c #5CA3BC",
"z. c #70A1AF",
"x. c #6EA9B9",
"c. c #6CB0BD",
"v. c #65A5C9",
"b. c #64A8C5",
"n. c #78AAC1",
"m. c #76AFCC",
"M. c #76B8C4",
"N. c #7FBEDD",
"B. c #8BBECF",
"V. c #8AB7D4",
"C. c #8ABDD0",
"Z. c #8DCADC",
"A. c #90C5D3",
"S. c #92CBD6",
"D. c #94D3E2",
"F. c #9ED1F0",
"G. c #9FD7FA",
"H. c #AAD8EF",
"J. c #A2E1F3",
"K. c #ACE4F2",
"L. c #A9EAFF",
"P. c #B6E5F7",
"I. c #BAE4FD",
"U. c #BBF2FF",
"Y. c #BDF7FF",
"T. c #C8F5FF",
"R. c #CAF9FF",
"E. c #D4FFFF",
/* pixels */
"N N N N N N N N N N N N N N N N N N N G G G G N V B B j j j k k N N N N N N N N ",
"N N N N N N N N N N N N N N N N N N N N N N N N V B B B j k k h N N N N N N N N ",
"N N N N N N N N N N N N N N N V V V V N N N N N V N B V V N N N N N N N N N N N ",
"N N N N N N N N N N N N N N N V B B B B V V V V N N N V N N N N N N N N N N N N ",
"N N N N N N N N N N N N N N N V j j j j j j k k k V N N N N N N N N N N N N N N ",
"N N N N N N N N N N N N N N N V j j j j j j k k k N N N N N G N N N N N N N N N ",
"N N N N N N N N N N N N N N N N k k j j j j V V h h G G G G N N N N N N N N N N ",
"N N N N N N N N N N N N N N N N N N N V V V V N h h G G G N N N N N N N N N N N ",
"N N N N N N N N N V N h h N N V G L H g N V N N N G G G G N N h V N N N N N N N ",
"N N N N N N N N h N V N h h h N p p M C A M i N N N G G N N B g V N N N N N N N ",
"N N N N N N N N h h N V N h h h N K C v v Z A V N N N G h h B B V N N N N N N N ",
"N N N N N N N N N h h N V V N N C S x O o 1 m B C N G G h h B B V N N N N N N N ",
"N N N N N N N N V N h h N V V V D ; 4 Y t , < m Z C G G h h j j V N N N N N N N ",
"N N N N N N N N V N h h N V V B 4 6 +.h.4.X.r : m N K G N h j j V N N N N N N N ",
"N N N N N N N N V N h N V N g s * ` x.M.k.3.X.$ c M N G N h k V V N N N N N N N ",
"N N V V V V V N V N N V V M u : #.g.Z.D.c.e.4.o.: x M N N h V V V N N N N N N N ",
"h N V B B B V N h H G N Z b @ #.z.A.P.H.n.q.q.w.@.% u A N M V V V N N N N N N N ",
"h h V B B B V h z z G N v : * f.S.K.T.I.V.j.y.e.,.* > V N N M V V N N N N N N N ",
"h h N B B B V h z l h C v : 9 B.K.Y.E.R.F.m.d.7.2., > V N N h B V N N N N N N N ",
"z h N V B B N h z l h V n 7 q C.J.L.Y.U.G.N.b.t.2., > N G G N M V N N N N N N N ",
"z h N N B B N h z z h N v > @ w.l.l.b.v.s.a.p.r.,.* - B N H h k N N N N N N N N ",
"z z N N V V N N z H h h n 8   O.9.:.u.u.8.8.0.7.%.* - B N G h V N N N N N N N N ",
"z z N N N N N N h H h B Z b + @.5.-.>.>.| ] [ ' %.& - B N h h h N N N N N N N N ",
"z z N N N N N N H H h B n > . #.6.;.;. .W R ~ ( +.# > A h h h h N N N N N N N N ",
"z z N N N N N N h h k V n s 1 q } ;.i.*.E R ^ _ T 8 - d V h h G N N N N N N N N ",
"z h h N N N N N V h j j B d c 0 $.} 5.=.[ Q ) &.w 1 s B V k h h N N N N N N N N ",
"h h h N N N N N A h g j B B v c 2 / <.{ ! ` ..4 5 v B I V k h N N N N N N N N N ",
"h h h N N N N N V j g j B B M v 8 3 y 1.%.e 4 c v A U j d g N N N N N N N N N N ",
"h h h N N N N N g k k k g N N C F > 7 t w = x Z V V V f d B A N N N N N N N N N ",
"k k h N N N N N g k V k g N N N g B b + X c A a h N k j j V A N N N N N N N N N ",
"k k N N N N N N g k k g g N G G J h j P n n A J l h k j I B V N N N N N N N N N ",
"k k N N N N N N V k g g h H G h p h V B f B H p z z k j j g M N N N N N N N N N ",
"h h N N N N N N N V h h N N N N h h V V V V N N h h h k V V N N N N N N N N N N ",
"N N N N N N N N N N N N N N N N N N N N N N N N N N N N N N N N N N N N N N N N ",
"N N h h N N N N N N N N N N N N N N N N N N N N N N N N N N N N N N N N N N N N ",
"N N N h N N N N N N N N N N N N N N N N N N N N N N N N N N N N N N N N N N N N ",
"N N N N N N N N N N N N N N N N N N N N N N N N N N N N N N N N N N N N N N N N ",
"N N N N N N N N N N N N N N N N N N N N N N N N N N N N N N N N N N N N N N N N ",
"N N N N N N N N N N N N N N N N N N N N N N N N N N N N N N N N N N N N N N N N ",
"N N N N N N N N N N N N N N N N N N N N N N N N N N N N N N N N N N N N N N N N "
};
