/* XPM */
static char *collectible1742406852[] = {
/* columns rows colors chars-per-pixel */
"50 50 225 2 ",
"   c #354E5B",
".  c #3C4C5D",
"X  c #384A5A",
"o  c #2F5556",
"O  c #2E5B5C",
"+  c #2D565C",
"@  c #34545C",
"#  c #3A525D",
"$  c #335B5C",
"%  c #3A5B5E",
"&  c #355456",
"*  c #2C625D",
"=  c #2B685C",
"-  c #33625E",
";  c #35675E",
":  c #2C4E67",
">  c #354D64",
",  c #3B4C64",
"<  c #354C6B",
"1  c #3B4C6A",
"2  c #3F476B",
"3  c #345265",
"4  c #3C5261",
"5  c #3A5D62",
"6  c #34536C",
"7  c #395069",
"8  c #335E67",
"9  c #334F71",
"0  c #3A4F74",
"q  c #2E5472",
"w  c #2A5677",
"e  c #345474",
"r  c #3D5176",
"t  c #345A7D",
"y  c #395978",
"u  c #2E6A62",
"i  c #3B6263",
"p  c #346A65",
"a  c #3A6965",
"s  c #3E6E6B",
"d  c #346867",
"f  c #2C7566",
"g  c #347165",
"h  c #387268",
"j  c #337E6C",
"k  c #3A7C6C",
"l  c #35756A",
"z  c #2B657E",
"x  c #35627C",
"c  c #377F71",
"v  c #3C7C72",
"b  c #3C7772",
"n  c #424A5C",
"m  c #41575F",
"M  c #424662",
"N  c #424C62",
"B  c #4A4862",
"V  c #424868",
"C  c #494668",
"Z  c #435864",
"A  c #444D72",
"S  c #45537C",
"D  c #426B66",
"F  c #427D71",
"G  c #2B886E",
"H  c #35816E",
"J  c #39836F",
"K  c #2D8871",
"L  c #338371",
"P  c #3B8474",
"I  c #348A75",
"U  c #3C8A74",
"Y  c #368B79",
"T  c #3E897B",
"R  c #3A9377",
"E  c #369478",
"W  c #3A957C",
"Q  c #319B7D",
"!  c #3A9B7E",
"~  c #379577",
"^  c #2E9079",
"/  c #1EB77F",
"(  c #2DAE7D",
")  c #27AF7F",
"_  c #36A17F",
"`  c #3AA27F",
"'  c #33AE7E",
"]  c #39A97F",
"[  c #25B47E",
"{  c #2DB17F",
"}  c #30B07F",
"|  c #41806D",
" . c #428676",
".. c #42947C",
"X. c #429D7F",
"o. c #295D83",
"O. c #345D82",
"+. c #3B5A81",
"@. c #1E6080",
"#. c #1A7294",
"$. c #2C6183",
"%. c #2A6A8B",
"&. c #276788",
"*. c #33658A",
"=. c #36658A",
"-. c #2B708D",
";. c #296E93",
":. c #316D94",
">. c #3A6D97",
",. c #2B739C",
"<. c #2A7596",
"1. c #35799E",
"2. c #1E7EA6",
"3. c #2B7CA2",
"4. c #237EA3",
"5. c #367DA2",
"6. c #415A81",
"7. c #40688B",
"8. c #3E9481",
"9. c #3C9E81",
"0. c #359A81",
"q. c #26839D",
"w. c #1EB882",
"e. c #27AE83",
"r. c #2CAE83",
"t. c #2EAF8A",
"y. c #2EA683",
"u. c #34A482",
"i. c #3CA383",
"p. c #33AE83",
"a. c #39AB84",
"s. c #36A688",
"d. c #3CA68A",
"f. c #33AD89",
"g. c #3AAB8A",
"h. c #26B483",
"j. c #2DB182",
"k. c #23B985",
"l. c #2CB289",
"z. c #27B788",
"x. c #31B081",
"c. c #32B189",
"v. c #1D81A2",
"b. c #1883A9",
"n. c #1C8BB4",
"m. c #1A8EBD",
"M. c #158DBF",
"N. c #1592BE",
"B. c #1C92BC",
"V. c #1B99BD",
"C. c #1A92B6",
"Z. c #2382A5",
"A. c #2282A8",
"S. c #2886AB",
"D. c #3782A7",
"F. c #238DB3",
"G. c #2B88B4",
"H. c #2495BB",
"J. c #3598BC",
"K. c #429B83",
"L. c #4B9682",
"P. c #41A183",
"I. c #41A689",
"U. c #4080A4",
"Y. c #4396BE",
"T. c #0F8EC3",
"R. c #158DC2",
"E. c #1A8DC3",
"W. c #198FCC",
"Q. c #0E9DCB",
"!. c #1B91C4",
"~. c #1B98C3",
"^. c #1494CB",
"/. c #1B97CA",
"(. c #139BCC",
"). c #1A9ACC",
"_. c #1491C6",
"`. c #139AD0",
"'. c #189ED3",
"]. c #218FC0",
"[. c #2195C4",
"{. c #2096C8",
"}. c #279CC8",
"|. c #389CC6",
" X c #19A3CC",
".X c #15A1D1",
"XX c #1EA9D1",
"oX c #19A5DB",
"OX c #1CA5D7",
"+X c #1CB3DD",
"@X c #0FABD4",
"#X c #29A7CC",
"$X c #3EA1C1",
"%X c #25AED6",
"&X c #25ADDD",
"*X c #25A7DC",
"=X c #35ADD7",
"-X c #21B1DE",
";X c #39B3D8",
":X c #1EAEE2",
">X c #1EB8E2",
",X c #23ACE3",
"<X c #20A2E0",
"1X c #2CB3E1",
"2X c #2CBEED",
"3X c #26B7E8",
"4X c #39BCE3",
"5X c #32BCED",
"6X c #2DBEF1",
"7X c #2BB5F3",
"8X c #36BCF5",
"9X c #469EC4",
"0X c #41B2D9",
"qX c #42A2C8",
"wX c #43BAE5",
"eX c #26C3EE",
"rX c #2BC2EC",
"tX c #2BC9ED",
"yX c #36C3E8",
"uX c #26C5F3",
"iX c #2BC4F3",
"pX c #25CAF4",
"aX c #2FC1FA",
"sX c #33C2F5",
"dX c #39C2F6",
/* pixels */
"a.' a.} j.j.j.j.h.j.j.j.j.r.x.} } { { } { } { { { } x.{ { { } p.a.p.p.r.l.h.z.e.t.r.f.a.g.a.s.a.p.j.",
"a.' p.p.p.j.j.j.j.j.j.j.j.j.} x.j.} j.{ j.} j.} j.{ ( } x.{ { } a.f.r.l.h.l.z.l.h.f.p.f.a.f.a.p.p.r.",
"{ j.x.p.p.x.j.j.j.j.j.{ j.j.{ { j.{ j.{ j.j.j.j.j.{ j.{ j.j.j.j.f.f.p.j.r.j.l.j.j.p.r.j.j.h.h.h.j.r.",
"{ { j.j.j.( p.p.p.p.j.{ { [ h.[ j.j.j.p.j.r.j.j.p.j.j.j.j.r.x.j.j.x.j.x.r.j.p.j.f.j.t.h.h.h.k.h.h.x.",
"h.j.j.j.j.' p.' a.{ } j.{ h.[ [ j.p.p.t.p.p.p.p.p.r.p.p.p.r.p.j.j.[ h.[ j.{ j.p.r.x.j.j.h.h.k.[ h.x.",
"h.h.h.j.( x.} x.' x.x.{ { { j.j.j.a.p.p.p.p.p.f.f.p.p.p.a.p.f.j.h.h.[ j.{ r.} { p.x.j.j.[ h.h.h.j.j.",
"x.j.j.j.{ j.{ { { { } } p.r.p.a.p.p.r.p.p.r.p.r.p.p.r.p.p.j.p.j.h.h.h.j.j.j.( ' j.} } { } { x.{ p.j.",
"p.p.j.j.{ j.[ { { { j.p.a.a.d.d.a.f.a.p.f.a.p.a.f.p.a.f.p.a.a.f.p.j.p.p.p.a.a.p.p.j.x.p.a.' ] a.p.j.",
"a.a.r.j.x.k.k.k.{ { x.x.0.9.L.K.! _ _ _ _ _ _ _ u.! _ ! _ _ _ _ i.K.i.9.9.9.s.p.r.j.j.c.a.' ] a.a.j.",
"a.] a.j.{ k.[ [ [ { a.i.^ c b v H j H H j j j j j H H j H j j j k k k j j I ! g.c.c.j.x.x.' ] ] p.j.",
"] a.x.x.{ [ [ [ ) f.g.W l u $ 5 % % % % % % % % % % % - % - % % % 5 5 $ $ p U i.g.l.h.h.h.x.x.' p.j.",
"] p.p.x.k.{ x.} u.u.W P u +   . , . N n N . N N . N n N n N n . . n n   & 5 b T 0.u.t.h.h.h.j.j.j.j.",
"x.x.x.{ j.} ' I.i.E l u q 3 , , V V V V V V V V V V V V V V V 2 7 , , N , Z 5 h Y 0.f.l.h.[ h.j.j.j.",
"z.h.{ { } p.] X...j u + 3 7 7 r r r 0 0 0 0 0 0 0 0 0 0 r r 0 e e 8 7 7 V , , + b Y 0.f.r.r.) r.j.j.",
"k./ [ h.p.] ..U v p & @ 3 < A S *.%.%.&.%.%.%.%.%.%.%.%.%.%.%.&.z z x y V , , . d l Y 0.p.r.r.) p.p.",
"/ [ [ j.a.]  .J a $ @ 3 < e +.>.Z.Z.v.A.b.A.A.A.A.v.A.A.A.Z.Z.Z.q.q.1.%.e < V Z 4 * f ^ _ c.a.p.j.j.",
"[ k.h.r.a.i.U ; o   , 6 e o.,.G.H.V.~.~.{.{.{.{.{./././.{.[.[.[.}.H.C.#.#.t A C B X O G _ r.a.' p.j.",
"[ h.j.j.f.i.U ; & @ , y o.,.G.#X%X%X-X-X&X,X,X,X,X,X:X,X,X,X*X=X&X%X%XV.v.%.S C B X * G u.p.a.' p.x.",
"[ [ { j.c.P.J ; &   7 y :.3.#X;XrXrXrX5X6X5X6XiXiXiXiXiXeXiX6X5X5X5X3X#XH.1.+.A N   * G y.p.a.a.p.j.",
"{ } { r.f.d.P d # . 1 +.,.G.#X3XrXiXtXsXiXsXsXsXaXiXiXiXiXiXiXiXdX8X2X%XH.3.=.A V   * G u.p.a.a.p.j.",
"} } { j.f.s.P d # . < t ,.F.XX>XiXiXaXiXiXiXiXrXiXiXuXuXpXuXpXiX8X8X6X%X~.4.*.0 ,   * L i.p.a.p.r.r.",
"' } j.j.f.s.Y d @ . 1 +.3.F. X+X6XiX6X6X6X2X2X2X2XeX2X2XuXeX6XuX8X8X3X%XB.4.&.9 1   O L u.a.f.p.j.x.",
"' } { j.t.s.Y d X M 2 +.1.F. X@X:X:X,X:X,X:X&X&X&X&X&X&X&X,X:X:X,X,X,X XB.Z.=.0 V . 8 v 9.f.r.j.j.x.",
"' } j.h.t.s.I d . M V 6.>.A.N.Q.(.`.`.`.Q.^.(.^.(.!././.).^.`.^.^.'.).~.F.3.O.0 V n % v 9.f.h.h.j.j.",
"' } { j.t.f.Y d . n C S =.3.F.!.)..X.X.X.X X.X.X).!.R.E.E.E.R.W.T._.N.n.4.:.+.C B n Z F 9.c.h.k.j.j.",
"( { z.h.l.y.^ u o n C A y :.D.|.=X1X-X%X+X+X3X-X*X/.!.E.E.].E.E.M.B.n.v.,.O.S V B n % k 9.c.h.w.j.j.",
"( { { h.l.y.^ f o # N N 0 O.1.9X0X4XyXtXeXeXuXeX3XOX^.R.E.E.R.B.n.n.A.;.o.9 0 M B m ; J u.x.k.k.j.j.",
"( ( [ h.l.y.Q L h i # X > e 7.5.J.=XyXyXtXpXpXpX>XoX^.R.M.m.B.n.A.,.<.&.w < , , m i h R u.c.h.h.j.j.",
"r.j.h.r.l.f.s.0.U h % o   3 S =.3.J.;X4XyXpXpXuX3X'.T.T.N.B.C.F.<.-.$.q < , # @ a k R i.a.j.j.h.j.j.",
"x.p.r.r.t.t.f.d.! H = * @ 4 # < *.D.$X0XyXiXuXuX7X:X^.E.!.C.n.v.-.x 6 > , . % * j R a.c.x.r.r.j.j.j.",
"x.x.r.l.t.t.f.g.] ~ J h i @ . , y =.D.J.;XdXaX8X7X:XW.E.E.n.b.#.z 6 , n n m s k ~ ' x.h.j.p.a.a.p.j.",
"a.c.x.c.t.l.r.j.a.a.X. .h o @ 4 7 e x q.|.wXdX8X7X'.!.m.G.2.#.z 6 2 . . # D | ! _ } [ [ [ x.a.' p.r.",
"' ' x.j.h.h.h.r.r.f.i.! L g = $ 4 , 9 =.D.9X;X4X1X}.m.b.3.:.O.e 2 n . 5 p H E ] p.{ j.{ p.p.f.a.r.j.",
"} } { j.j.j.h.z.l.l.f.u.W I f * # n < e *.5.|.0X0X#XF.4.;.t 0 2 N . @ a v Y _ c.p.{ { { r.p.p.j.p.j.",
"p.' { j.h.h.h.h.l.c.f.i.P.K.J g m m , : w @.D.9XqXJ.S.-.z q < N 4 4 i v W i.a.x.{ { { j.r.j.j.j.p.j.",
"} } } { j.j.h.j.j.r.f.s.I.I.~ H a Z % 3 : w :.5.D.1.%.z q > , # 5 d v ..P.a.a.( { { j.{ j.r.l.l.l.x.",
"} j.{ r.j.j.j.j.r.r.f.a.g.g.i.! | D ; $ 3 6 y +.y t q 6 6 > . # s L K.K.i.f.{ { { { { { l.j.l.l.r.j.",
"x.( { p.x.j.{ j.r.p.c.p.p.f.f.d...| ; % @ > < 1 1 < , 3 4 @ % % j E i.a.p.p.} { { { j.j.j.h.l.h.j.x.",
"} j.{ { } { p.p.y.p.c.p.r.f.x.g.` ..J l i @ , M M , M , @ $ D F R _ a.a.( { x.} } } { { l.j.h.t.r.j.",
"j.{ ' j.' p.p.p.y.r.r.r.r.h.h.r.a.a.K. .s @ . N M B n # o $ F L.i.p.p.) ) } { { ' ' a.r.p.r.r.h.j.j.",
"x.{ { x.} ' a.p.x.p.r.j.j.h.h.h.e.p.s.W P D 5 n . n . 8 d b L.9.a.j.j.{ { { { } a.} ' ' f.x.j.j.r.x.",
"{ { r.{ } } p.p.a.x.j.j.h.h.l.h.z.l.t.0.8. .s 8 # @ $ d v 8.0.s.p.{ { { { { } } ' ' ' a.x.p.l.j.j.j.",
"j.{ j.' p.} p.' } } j.j.h.h.h.h.z.z.r.f.d.K.8.d - * u l 8.d.g.r.j.j.j.{ { j.j.a.] ' a.a.p.p.j.t.p.j.",
"j.{ x.} j.' } ' } j.x.j.j.j.j.h.z.h.e.t.g.I.8.j H j j 8.d.g.t.e.r.{ j.{ j.{ p.j.a.a.a.' p.p.r.j.j.j.",
"p.r.} } x.{ p.p.x.( r.{ j.{ { j.r.j.r.r.x.f.] _ 9.X.` i.g.c.l.z.j.j.j.j.l.r.j.p.p.p.a.f.p.j.j.j.j.j.",
"j.j.x.} } j.{ { j.{ } x.{ r.j.} ' x.x.h.{ { { } a.a.a.p.r.j.z.l.p.p.r.l.r.h.j.r.j.x.j.p.j.j.j.h.j.p.",
"j.p.{ r.' { { { { p.{ } { } ' ' ] ' a.( { [ { { { } ' } { j.h.h.l.f.f.h.t.h.l.r.l.j.j.j.x.h.h.[ j.j.",
"p.p.{ } j.{ j.j.{ { r.} x.} ' a.] ] ' ( { [ [ [ { { } } x.j.h.j.p.p.p.l.h.l.h.h.l.j.j.j.j.j.h.[ j.j.",
"j.j.x.j.r.j.p.j.j.r.j.r.x.} p.p.p.p.p.{ { { j.{ { j.} } j.j.j.j.j.p.x.j.r.r.j.j.l.j.r.j.j.j.j.j.j.j.",
"r.j.j.x.x.j.j.j.{ p.x.j.j.j.j.p.j.{ j.j.r.x.j.j.r.x.j.r.j.x.x.r.j.j.j.r.j.j.j.x.j.p.x.j.r.x.x.j.j.p."
};
