/* XPM */
static char *_488482158734a36f3f38a529c6c96f6Oe73CaKTYC174gxz[] = {
/* columns rows colors chars-per-pixel */
"40 40 159 2 ",
"   c #0D0505",
".  c #050B07",
"X  c #0C0906",
"o  c #0C0709",
"O  c #060C08",
"+  c #0E0B0B",
"@  c #110406",
"#  c #190507",
"$  c #130A06",
"%  c #130709",
"&  c #1A0709",
"*  c #110A0C",
"=  c #1B0B0D",
"-  c #0B110D",
";  c #12110D",
":  c #1C130F",
">  c #130C11",
",  c #1C0E10",
"<  c #151011",
"1  c #1D1414",
"2  c #24030A",
"3  c #200D0F",
"4  c #320711",
"5  c #221415",
"6  c #241917",
"7  c #241719",
"8  c #27181B",
"9  c #2A1B1C",
"0  c #35151B",
"q  c #301D1C",
"w  c #39181F",
"e  c #2E231F",
"r  c #271C20",
"t  c #2D1D21",
"y  c #351F21",
"u  c #3D1C23",
"i  c #2F2023",
"p  c #332325",
"a  c #392624",
"s  c #3F2A25",
"d  c #34242A",
"f  c #3A272A",
"g  c #362A2A",
"h  c #3A2B2D",
"j  c #3E302F",
"k  c #372C30",
"l  c #3B2C32",
"z  c #3E3234",
"x  c #481D27",
"c  c #4A1F29",
"v  c #43242B",
"b  c #48272E",
"n  c #422D2D",
"m  c #47322F",
"M  c #49342F",
"N  c #422F30",
"B  c #4E2A34",
"V  c #512630",
"C  c #552A34",
"Z  c #5A2F39",
"A  c #453234",
"S  c #493536",
"D  c #4D3B37",
"F  c #43353B",
"G  c #4A3638",
"H  c #45393D",
"J  c #4C3A3B",
"K  c #533037",
"L  c #533B37",
"P  c #5C313B",
"I  c #513D3D",
"U  c #54413D",
"Y  c #5A423E",
"T  c #463B41",
"R  c #4C3E43",
"E  c #533F40",
"W  c #5D3B42",
"Q  c #613E45",
"!  c #4C4145",
"~  c #534244",
"^  c #5F4743",
"/  c #55464B",
"(  c #5C444A",
")  c #57484D",
"_  c #58494C",
"`  c #4E4F54",
"'  c #4F4E5A",
"]  c #554C54",
"[  c #5B4E55",
"{  c #524F58",
"}  c #4E505C",
"|  c #565455",
" . c #5C5156",
".. c #575853",
"X. c #5A5A56",
"o. c #54535D",
"O. c #5C545C",
"+. c #54595F",
"@. c #5B5C5A",
"#. c #624247",
"$. c #654249",
"%. c #63494C",
"&. c #665357",
"*. c #655256",
"=. c #625153",
"-. c #635759",
";. c #63545B",
":. c #655558",
">. c #66555B",
",. c #60565F",
"<. c #61565D",
"1. c #685559",
"2. c #62595E",
"3. c #6D595A",
"4. c #535561",
"5. c #565660",
"6. c #545662",
"7. c #575763",
"8. c #555662",
"9. c #595762",
"0. c #5B5661",
"q. c #565864",
"w. c #575965",
"e. c #565964",
"r. c #595963",
"t. c #5A5863",
"y. c #5C5962",
"u. c #5E5862",
"i. c #595965",
"p. c #5A5A64",
"a. c #585A66",
"s. c #5C5A65",
"d. c #5D5B66",
"f. c #5F5C65",
"g. c #5D5D67",
"h. c #5C5C66",
"j. c #5B5964",
"k. c #5B5D69",
"l. c #5C5C68",
"z. c #5C5C69",
"x. c #625861",
"c. c #635961",
"v. c #615A62",
"b. c #605A64",
"n. c #655B64",
"m. c #635C64",
"M. c #635B63",
"N. c #685F60",
"B. c #6A5E64",
"V. c #645E68",
"C. c #605E69",
"Z. c #5E6167",
"A. c #636069",
"S. c #62606B",
"D. c #62626C",
"F. c #62626A",
"G. c #6D636B",
"H. c #6B646C",
"J. c #70666E",
/* pixels */
"5.o.y.m.O.[ ;.>.&.&.1.=.>.;. .N.X.@.@.X...X.X.X.X.X.X.....X.X.X.=.3.[ v.O.f.z.4.",
"D.t.{ | ,. .R l N h h f l h t d g h h g g g g g 9 p h h g g h h f J / G.y.o.o.k.",
"o.s.f.m.O.F l R _ ~ ~ ~ / ! k l ( $.$.$.$.$.Q W u K $.#.W Q Q W %.S t ] b.f.5.p.",
"t.o.{ v.n.F g [ G A G F H z r t B C C C C C V x 4 c P Z C Z Z C #.S h O.V.p.o.5.",
"p.t.{ O.,.F d J 9 t d p p t > 5 v v v v b b v w 2 0 u u u u u 0 n n l O.y.t.5.w.",
"' A.A.O.[ R l d & = 5 , 1 =   * % & & & = = # @ # & = = = 3 = & y n l ] | p.z.k.",
"s.9.| O.v. .F t = % = @ * =   > + + + + + + + X + + + + + + + * = N ) J.y.o.o.p.",
"t.o.s.H.] l l F 5 = %   * = o < + - - O . + + + - O + - - . O ; A A h [ y.f.p.w.",
"o.f.y.O.,.T d / t & @ % % X + + + + + + + + + + + + * - + X * 1 G S l [ O.5.5.k.",
"5.s.y.O.O.H d / t =   % % X + * % % + + % % % % % % * * + o * 1 I A h O.y.t.5.p.",
"t.t.u.O.O.F d ) t = @ * + X + * * * * * * * * * * * * * % % > 5 E A f O.m.t.o.w.",
"s.9.u.O.O.F d / t = % * + + + + * * * * * * * * * + % * % + > 5 ~ A g O.m.t.o.w.",
"s.o.u.O.O.H g R 8 * % * + + + + + + + + + + + + + + + + + + * 1 J A h O.y.t.5.p.",
"s.o.y.O.O.R l A 5 % % * + + + + + + + + + + + + + + + + + + + < n A l O.u.t.5.p.",
"s.o.b.O.O./ l d , % % * + + + + + * + * * * * * * + + * * + * = q N F O.O.t.p.w.",
"t.9.b.O.O.] l t = @ % * + + + + * * * * * * * * * % * * * % % % 5 n R v.O.t.p.4.",
"t.o.u.v.x.H d R 8 % o % + + + + + * * * * * * * o * + + * o + 1 n S l O.u.o.p.w.",
"s.9.u.O.O.T g R 8 * @ % % + + + + * * * * * * * + * + + * + * 1 I G d ] y.5.p.5.",
"s.t.y.O.O.T l R t = @ % % + + + + * * * * * * * + * + + * * * 5 E S d [ b.5.p.w.",
"5.o.b.b.O.T g ~ i = @ % + + + + + * * * + * * * + * + + * * * 7 G S f ,.m.o.p.k.",
"9.o.u.V.O.F d ) t = @ % % + + + + * * * * * * * + * + + * * * 5 G S d O.b.o.p.p.",
"f.o.O.O.O.F g ) 8 % @ * % + + + + * * * * * * * + * * * * * * 1 I G d ] y.t.p.o.",
"s.9.O.O.O.! g A 5 % % = + X + + + * * * * * * * + * * * > + + < h S l O.u.t.p.o.",
"o.t.y.O.M.[ g t , @ % = + X + + + * * * * * * * o * * * > + o = = N T B.y.o.p.w.",
"9.p.u.O.,.! d F 7 o % = * ; + + + * + * * * * * * * * + * + + 1 f A h V.O.5.p.w.",
"5.t.u.O.O.R d J 8 @ % % % ; + + + * * * * * * * * * + + * + + 1 A S d v.O.t.p.5.",
"o.t.y.O.O.T d R 9 % % % + + + + + * * * * * * * * * + + * + * 1 I G p O.O.p.p.4.",
"o.t.y.O.O.H d / t % % % o + + + + * * * * * * * + * + + * + * 1 ~ G p O.O.p.p.4.",
"o.t.y.O.O.H g ) t % % % o + + + + * * * * * * * + * + + * + * 1 I S d v.u.p.p.5.",
"9.9.y.O.O.H d / i % % % o + + + + * * * * * * * + * + + * + * 1 G S d V.u.t.p.w.",
"9.9.u.O.,.H d / t % * % + * + + + * * * * * * * + * + + * * * 1 J S d M.u.t.p.w.",
"p.t.u.O.,.T d ~ t % = % + * + + + * * * * * * * + * + + * * * 1 I S i x.9.5.5.5.",
"f.| v.,. .H p ~ 6 % X * + + * + * * * * * * + * + + * * * + * : D D p  .O.A.} 4.",
"Z.` O.M.;.~ f p : X X ; + + * * * * * * * * * * * + * * * o * = q n H ;.t.o.q.w.",
"h.` O.M.;._ h 9 =   + ; + o > * * * * * * * * * * * * * + o + = 5 a ~ ;.y.' k.w.",
"5.+.y.,.[ J f j : X X ; + + > * * * * * * * * * * * * * + o * = s s A  .u.o.z.4.",
"o.F.O.O.>.A p ~ 9 $ o * + + > + * * * * * * % % * + * * * * > 1 U M p O.u.z.5.5.",
"o.Z.{ O.N.A p ~ e =   + + * > + * * * * * * * % * + * * * * < 5 L L p  .u.A.' l.",
"+.p.| 2.[ N A I 9 = o * + + > + * * + + * + % % * * * * * * > 5 m Y f R O.C.o.l.",
"5.+.@.N.F a ~ J 5 $ $ * + + > + + + + + + * % % * * * * + + * 1 A ^ h d O.z.5.5."
};
