/* XPM */
static char *_9093a5e7fbd44c2e24b9937e3c26285jcGvmVeHMtA6biE8[] = {
/* columns rows colors chars-per-pixel */
"40 40 170 2 ",
"   c #160505",
".  c #1E0506",
"X  c #160807",
"o  c #1D0807",
"O  c #16030A",
"+  c #1C050B",
"@  c #1D0B0D",
"#  c #1C110F",
"$  c #1D0610",
"%  c #1D0A12",
"&  c #171113",
"*  c #1D1210",
"=  c #210406",
"-  c #21070A",
";  c #230B0D",
":  c #2A0A0D",
">  c #230511",
",  c #240C13",
"<  c #2A0D12",
"1  c #241114",
"2  c #2C1217",
"3  c #261817",
"4  c #241319",
"5  c #2B151A",
"6  c #271A1B",
"7  c #2C1B1D",
"8  c #321216",
"9  c #32151A",
"0  c #321B1E",
"q  c #3A1C1E",
"w  c #33211F",
"e  c #3C201F",
"r  c #2C1C21",
"t  c #331D23",
"y  c #3B1E23",
"u  c #391F28",
"i  c #2F2125",
"p  c #352324",
"a  c #3C2225",
"s  c #35252A",
"d  c #3B252A",
"f  c #35292C",
"g  c #3C292C",
"h  c #372A31",
"j  c #3D2D32",
"k  c #37353A",
"l  c #411E22",
"z  c #442326",
"x  c #42252A",
"c  c #48272E",
"v  c #43292D",
"b  c #4D2D2D",
"n  c #522C2E",
"m  c #43312F",
"M  c #4C302F",
"N  c #432E32",
"B  c #4D2D32",
"V  c #522D31",
"C  c #443335",
"Z  c #4D3234",
"A  c #4B3937",
"S  c #45353B",
"D  c #4B343A",
"F  c #463A3E",
"G  c #4C393C",
"H  c #533134",
"J  c #583134",
"K  c #53343A",
"L  c #513D3E",
"P  c #54413F",
"I  c #463941",
"U  c #4B3C41",
"Y  c #523D41",
"T  c #583F43",
"R  c #4C4346",
"E  c #47454A",
"W  c #4F4449",
"Q  c #4E4A4B",
"!  c #554344",
"~  c #5A4345",
"^  c #54454A",
"/  c #59464A",
"(  c #53494C",
")  c #5D494B",
"_  c #4B4853",
"`  c #4D4D5A",
"'  c #554F56",
"]  c #594D52",
"[  c #534D59",
"{  c #5A4F5B",
"}  c #4F515D",
"|  c #545157",
" . c #5D5155",
".. c #55535D",
"X. c #5C555D",
"o. c #55585F",
"O. c #5D585F",
"+. c #62474C",
"@. c #624B4E",
"#. c #62504E",
"$. c #614F55",
"%. c #645656",
"&. c #635253",
"*. c #6A5657",
"=. c #665359",
"-. c #605458",
";. c #635459",
":. c #62565A",
">. c #60555D",
",. c #60565E",
"<. c #64555C",
"1. c #66555D",
"2. c #65565D",
"3. c #61565E",
"4. c #6B5759",
"5. c #62595C",
"6. c #65595D",
"7. c #64595D",
"8. c #69595E",
"9. c #575560",
"0. c #565461",
"q. c #575761",
"w. c #575562",
"e. c #565661",
"r. c #595762",
"t. c #585663",
"y. c #595764",
"u. c #595662",
"i. c #555962",
"p. c #565962",
"a. c #575A63",
"s. c #575965",
"d. c #585860",
"f. c #595860",
"g. c #595961",
"h. c #585862",
"j. c #5A5863",
"k. c #585B62",
"l. c #5F5963",
"z. c #5D5A63",
"x. c #5E5B62",
"c. c #5B5964",
"v. c #5B5966",
"b. c #5C5A65",
"n. c #5D5B66",
"m. c #5C5A67",
"M. c #595D66",
"N. c #5B5964",
"B. c #5D5B68",
"V. c #5F5D68",
"C. c #5F5D6A",
"Z. c #5D5D69",
"A. c #625765",
"S. c #605960",
"D. c #625860",
"F. c #635860",
"G. c #635961",
"H. c #655B63",
"J. c #635C63",
"K. c #675E63",
"L. c #615E67",
"P. c #665C65",
"I. c #635A63",
"U. c #6A5E62",
"Y. c #685E66",
"T. c #605E6B",
"R. c #675F6A",
"E. c #616266",
"W. c #6E646D",
"Q. c #6D6270",
/* pixels */
"M.o.h...O.K. . .&.&.8.:.6.5.' 5. .%.%.&.&.;.2.2.2.8.=.&.4.4.&.&.#.&.U.>...u...y.",
"i.o.o.| X.X.U S s p s i s f r f s s s s s f f s r g s p p p p d m A :.X.[ n.B.v.",
"i.h.h...S.W f G / Y Y G U U h j G L Y G Y ! U S p G Y G L Y P ~ A f ^ S...v.B.y.",
"i.h.h.x.J.S i $.Y G Y G U C r r G G G G Y Y D j < N Y G G L G A &.p F G.x.u.u.q.",
"o.h.u.X.S.I t / t t g g g p , 4 d x x x v v a 0 ; t g s g d w 7 P 7 F >.o.h.n.q.",
"q.V.x.' S.] s p + @ < < < , O , < < < < < < > + + < < , , , @ @ w s ] >.[ n.T.q.",
"n.h.x.X.S.] g t , ; < < 9 9 < 0 8 8 9 8 8 9 8 2 2 9 2 2 5 , @ 1 p g  .S.o.v.y.u.",
"n._ ..P.>.G s D < < 9 y B K v B c V V B b B V B B B B N d 2 o 1 C s F X.L.q.` V.",
"o.n.X.X.G./ 7 / t ; y Z B B B H V V V V V V V V B B K v t 1 @ p ! 7 U G.[ u.V...",
"u.n.X.X.S.^ 7 ) y ; y B B V B V V V V V V V V V V B B 0 < + + p ! w U S...u.B.q.",
"v.u.X.x.X.R 7 ) p ; q B V V V V V V n n n n n n H b x 9 , + + t / p F S.o.q.n.y.",
"v.q.o.x.X.R 7 ) p ; q B V H V V V V n n n n n n V b B x t 5 % 7 / p F >.X.u.v.v.",
"v...q.x.X.R r ! 0 ; y b b H V n n b n n n n n n V B K Z N s , 7 ! s U >.u.u.u.v.",
"v.o.u.x...( i A 5 ; e b b H n n b b b n n n n n V b Z B Z g , 4 C s R X.u.v.q.y.",
"s.q.v.x...' s g 1 o a B b n n n b M b b n n n n V b B B B d , , f f ^ X.X.v.u.q.",
"v.q.n.h... .s s @ . a H b n n n b M b b n n n n V b V B Z d $ + t f ( X.X.n.u.q.",
"B.o.o.x.X.R 7 / 0 ; q H B V n V V b n n n n n n n n K c B v , 9 ~ 7 F Y.X.o.V.v.",
"y.u.u.O.X.^ 7 ! t ; q B B V n V V V n n n n n n J b V H K y > u T 0 U P.X.q.V.s.",
"0.n.u.X.X.^ 7 ! a ; y B B V n V V V n n n n n n H b B H K u , u T p U G.X.h.V.e.",
"0.n.u.X.X.R 6 ) a < y B B V V n V V n n n n n n b H B x N d 5 t ~ a U G.u.h.v.q.",
"y.h.u.x.X.U 4 @.t < y B b H V n V V n n n n n n b H x 0 u t 5 r ) p S >.A.h.q.v.",
"n.o.u.J.X.R r ! 7 ; a B b V V V V V n n n n n n H c 2 2 t , , r Y p G >.A.h.q.M.",
"B...n.J.| ] s N 1 - a B b V V V V V n n n n n n b v ; 1 r @ % 1 v s ^ X.u.h.q.v.",
"v...n.x.' 6.j 7 ; . a B b V V V V V n n n n n b z b < @ 5 1 4 O 7 g $.X...v.v.q.",
"q.u.u.x.X.W 7 ! < . a H b V n V V V n n n n n b c b d 7 p p % 1 G p U G.x.h.v.s.",
"q.u.u.x.X.W 7 ! 0 ; a H B V V V V V n n n n n n H Z Z g N f 4 7 L p U G.u.q.q.s.",
"q.h.u.O.X.W 7 ! a < q b b V V V V V n n n n n n H b Z Z D s , t Y p U S.X.q.q.s.",
"u.h.u.O.X.R 7 ! 0 ; q c b V V n V V n n n n n n n c B Z Z t % t ~ d U >.X.q.q.s.",
"u.h.u.X.X.R 7 / 0 ; y B V H V n V V n n n n n n H b B Z Z t , d ~ d U >.X.q.q.s.",
"y.h.u.X.X.R 7 / p < a B V H V V V V n n n n n n H n V B B u , d ~ d G >.u.q.q.q.",
"y.h.u.X.X.R 7 / d ; 8 z z V V V V V n n n n n n V n V B B y , t ~ p G >.u.v.q.q.",
"y.v.u.X.X.W 7 / p   = 8 q c B V V n n n n n n n V V V B K x < t ~ p G D.h.v.q.q.",
"q.q.A.' x.Q 7 ! 3 X : : < c H V n n n n b b n n n V V B B d , 5 Y p U X.L...V.` ",
"v.h.A.X.E.Q p a * X 9 l a Z H V n n n b b b n n n n V b V d % , a p / X.h...s.M.",
"v.u.u.X...Q N g # X y V B Z V V n n n b b b n n n n n b K x + , p g  .X.h.i...V.",
"q.u.A.' | R s Y 6 o q V B B b V n n n b b b n n n n V b K x , 2 D d / X.u.V...e.",
"..o.Q.X.L.W < ~ s @ q V B B b V n n n b M M n n n n V b B z < t ~ 0 S >.X.n.v.e.",
"V.o.A.{ x.R 5 @.s @ q V Z A B b n n n M M M n n n n J n B a < t +.x S Y.X...v.v.",
"V.q.[ X.E f Z +.7 ; l V Z K V b n n n b M M n n n n V b B a < t Y Y g X.S.| q.v.",
"} v.{ W.k & T B 3 ; l n v Z H V n n n b b b n n n n V b V z , 5 d ~ < I R.u.[ v."
};
