/* XPM */
static char *_239dd3cbf8f4175f50f4c14c09c51b3a14bB7643uVhXZgD[] = {
/* columns rows colors chars-per-pixel */
"50 50 175 2 ",
"   c #020202",
".  c #0B0604",
"X  c #050A03",
"o  c #0A0905",
"O  c #04050B",
"+  c #0A0609",
"@  c #050A0B",
"#  c #0B0A0A",
"$  c #110405",
"%  c #110C06",
"&  c #11070A",
"*  c #120E0B",
"=  c #180808",
"-  c #0C1105",
";  c #0C100C",
":  c #131006",
">  c #191607",
",  c #14130C",
"<  c #1A130D",
"1  c #1E1A0F",
"2  c #020B12",
"3  c #0C0C11",
"4  c #041315",
"5  c #0F1012",
"6  c #02161C",
"7  c #0C171D",
"8  c #0A1818",
"9  c #151411",
"0  c #1B1612",
"q  c #161817",
"w  c #1D1914",
"e  c #19171B",
"r  c #151E1A",
"t  c #1D1B19",
"y  c #21110C",
"u  c #221713",
"i  c #201911",
"p  c #201C13",
"a  c #221C12",
"s  c #211A14",
"d  c #231A15",
"f  c #221B15",
"g  c #201B17",
"h  c #221A17",
"j  c #211916",
"k  c #241915",
"l  c #211C16",
"z  c #231C16",
"x  c #221D17",
"c  c #221E16",
"v  c #241D17",
"b  c #221B15",
"n  c #241719",
"m  c #201B18",
"M  c #201A1A",
"N  c #211C18",
"B  c #201C19",
"V  c #221E19",
"C  c #241C19",
"Z  c #251E18",
"A  c #221B19",
"S  c #281D1C",
"D  c #13201D",
"F  c #242017",
"G  c #272016",
"H  c #2C2714",
"J  c #292316",
"K  c #202018",
"L  c #26211A",
"P  c #27241B",
"I  c #2B251A",
"U  c #2E2818",
"Y  c #2E2A1E",
"T  c #30291F",
"R  c #001721",
"E  c #021920",
"W  c #1E1B22",
"Q  c #211D21",
"!  c #0E2220",
"~  c #122426",
"^  c #182827",
"/  c #1D262B",
"(  c #1D2730",
")  c #1F2831",
"_  c #1E3A3E",
"`  c #232123",
"'  c #2D2620",
"]  c #2B2622",
"[  c #2E2C20",
"{  c #2F2D21",
"}  c #22252E",
"|  c #262A2D",
" . c #322C22",
".. c #332D22",
"X. c #322D29",
"o. c #343025",
"O. c #3B3527",
"+. c #3A3927",
"@. c #343128",
"#. c #3B372C",
"$. c #3A382A",
"%. c #3C3A2B",
"&. c #3C392D",
"*. c #222A33",
"=. c #233937",
"-. c #263E3E",
";. c #2E3C3F",
":. c #3F3B30",
">. c #443E2E",
",. c #433F34",
"<. c #46412D",
"1. c #464033",
"2. c #484330",
"3. c #47433A",
"4. c #484438",
"5. c #4A463A",
"6. c #4C493A",
"7. c #273C43",
"8. c #313A41",
"9. c #294546",
"0. c #25464C",
"q. c #2B4448",
"w. c #25494B",
"e. c #284A4B",
"r. c #304148",
"t. c #224B53",
"y. c #2A4B52",
"u. c #344D54",
"i. c #394A54",
"p. c #334F5B",
"a. c #394F5D",
"s. c #37535E",
"d. c #3D5F60",
"f. c #555145",
"g. c #5B574B",
"h. c #5C5948",
"j. c #5E5B48",
"k. c #5F5C4B",
"l. c #5D594D",
"z. c #615E4B",
"x. c #63614E",
"c. c #656153",
"v. c #686552",
"b. c #455C64",
"n. c #43656D",
"m. c #46777C",
"M. c #4B7078",
"N. c #50797D",
"B. c #4D7B88",
"V. c #597B85",
"C. c #4E8185",
"Z. c #4B828C",
"A. c #558089",
"S. c #5A828A",
"D. c #4A8A92",
"F. c #528593",
"G. c #5A8492",
"H. c #598890",
"J. c #5F9EA7",
"K. c #5C9EAA",
"L. c #6799A4",
"P. c #639DA9",
"I. c #4DA9B6",
"U. c #4CADBD",
"Y. c #52A6B1",
"T. c #5BA5B3",
"R. c #53A9B7",
"E. c #5DA9B7",
"W. c #52ADBC",
"Q. c #5BADBB",
"!. c #52B0BC",
"~. c #60A0AA",
"^. c #62A6B3",
"/. c #68A3B1",
"(. c #50B1C1",
/* pixels */
"        . * w l s v F F N l K K l l l l s s s s s s m m s s s t t t t t N N N N m s t w * .         ",
"        . * w l l v l a w w w w w w w w w w w w w w w w w w w w t t t t w w N N m m t w * .         ",
"        . * w N l l w 0 < , < 9 < < < < < < < < 9 9 9 9 < < < 9 9 q 9 9 , 0 w w s s t w # .         ",
"        . * w l v s 0 , * + # # # % % % % % % % % % % % % % % + # # # + o * , 0 s s t w # .         ",
"        . * w N C s 0 * o . o + . . . . . . . . . . . . . . . . . + o . . o * 0 s s t w * .         ",
"        . * w N C s 0 * + . + + . . . . . . . . . . . . . . . o . + o o . o * 0 s s t w * .         ",
"        . * w N v s 0 * + + + + . . . . . . . . . . . . . . . o o + + o . o * 0 s s t w * .         ",
"        . * w l l s 0 , # + + + . . . . . . . . . . . . . . . . o + + o . . * 0 s s t w * .         ",
"        . , l a l w w , . . # + + . . . . . . . . . . . . . . o + + . o . o * 0 w w t w * .         ",
"        . , l a L i < , . + # # + . . . . . . . . . . . . . . o + + . o o o * 0 s w t w # .         ",
"        . w  .Y T a < * . + 3 + + o o o o o o o o o o o o o o o + + o o o o * 0 w w t w * .         ",
"        o Y 4.6.O.J < * . + # + + o o o o o o o o o o o o o o o + + o o o o * 0 s s t w * .         ",
"        : $.j.x.>.U > * . + + O + o o o o o o o o o o o o o o o + + . o . o * 0 s s t w # .         ",
"        % %.z.v.2.U > : . . + O + o o o o o o o o o o o o o o o + + . o . o * 0 s s t w # .         ",
"        % +.j.x.<.H > : o . + + + o o o o o o o o o o o o o o o + + . o . o * 0 m m t w # .         ",
"        % $.j.k.>.J > : o . + + o o . . . . . + + + + + + + + + + o . o o o * q m m m w # .         ",
"        # L #.3...L 0 % o o o o . . . . + + + + + + + + + + + @ . . o + + + 3 q t s s w * .         ",
"        . 0 ] X.' L 0 * o o o o . . . . + + + + + + + + + + + @ . o o + @ @ 3 e m s s w * .         ",
"        . * w N C l 0 , o . . o o o o o o o o + + + + + + + + o o o o X @ @ 5 t m s s i * .         ",
"        . * 0 w s s 0 * o . o o . X o o o o o o o o . . . . . . o X X X X o ; w s z z i * .         ",
"        . * w N l s 0 * . . . + o o o o o o o o o o . . . . . . X X X X X @ ; 9 s s k i * .         ",
"        . * 0 N C s 0 , + o # # # # # # # # - - # # % % % % % % - X X - - - , 0 s z k i * .         ",
"        . * 0 w C s w 0 0 0 9 9 9 9 9 9 9 9 < , < < < < < y y < < , , < 9 9 0 i k k k i * .         ",
"        . * 0 s v s w s N N t q t t w w w w w w w i i s k k k k i w w N N w s z k k k i * .         ",
"        . * w N v C N N N N t V m C C C C v v b l l s s C S S C S m j M V M m C k k k i *           ",
"        . * w N l v N N t t t V C C C C z z z z z v C m t t e e Q Q W W W Q M C z k k w #           ",
"        . * w N s s s w w w t N w u u u u u u u u s V ` / / / ( ) *.*.*.*.} ` V s k i w *           ",
"        . * w N s s w 0 9 , 9 q 9 < < < < < y < < 9 e *.r.u.s.s.p.s.s.a.a.i.8.| w s i w *           ",
"        . * w N l s 0 , * o # # # # * % % % = = * # 7 7.n.A.F.F.F.F.F.F.G.V.b.;.r w s 1 * .         ",
"        . * w N v s 0 , o . o o X X o . . $ $ $ # O 6 0.B.P.^.T.T.T.T.T./.L.M.q.D t l 1 * .         ",
"        . * w N C s 0 * o . . X X X X o . . . + 3 O R t.Z.T.Q.W.U.(.W.R.E.~.m.w.! r w w * . . .     ",
"        . * w N C s 0 * + . . o X X X o . . . + # O E t.Z.K.T.R.I.!.W.Y.T.J.m.e.! r w w * . . .     ",
"        . * 0 s s s 0 * + # +   o X X o o o o o @ @ 6 _ n.S.H.Z.D.D.D.Z.C.N.d.-.D r r w * . . .     ",
"        . + 0 s C C w * + + + + o o o o o o o o @ @ 4 ~ 7.u.u.y.t.t.t.w.w.9.=.^ D r r w * . . .     ",
"        . * 0 l C C w * + + + + + o o o . . . o + + @ 2 6 E E E E E 6 6 6 4 8 r r r t w * .   .     ",
"        . , w l l s 0 * . . + # + . . . . . . . + + + O O 2 2 2 2 O O O     @ q t t t w # .         ",
"        . * < 1 i i < , + + + # + + + . . . $ $ & + + + # 3 2 2 3 O         + 9 m t t w # .         ",
"        . , a a F i < * + . + + + + + + . $ $ $ & + . + + # # + + O O O . . & * m m m w * .         ",
"        o l o.#...J < * o . . + + + + + + + $ $ $ $ . . . . O . . . . . . $ = < z s s w * .         ",
"        % { 5.f.#.U > % o o o + + + + + + + . . . . % & . . . o . . . . . . * < s s s 0 * .         ",
"        , &.l.c.1.I > , # o o o @ @ + @ + + . . . . . . . o . o X o o o . . , w s s s w * . . .     ",
"        % $.l.c.1.U > % o . o o o o o @ @ + o . . . . . o o o o X X X X X o , < s s m w * . . .     ",
"        % #.l.c.1.U > % . . o o o o o o o o o o o o o o o o o o X X X X X X : < s s s w * . . O     ",
"        % @.f.g.&.L < , o o # + o o o o o + + + + # o o o o o o X X X X X o : , s s s w * .         ",
"        . P :.,. .v w 0 , , 9 , , , , , , , 9 9 9 9 , , , , , , , , , , , < < 0 s s w w * .         ",
"        . < L I L i s N q w t q w w w w w w t t t t w w w w i w w w w w w w s s s s t w #           ",
"        . % w w l i l N w N Q t l a a l N N m m m m m C m m z C S C C C C C m s s s t w ;           ",
"          % w w w w l N w N ` N i i i i s s m m m m m m s s s s C C n C C C s u s s t w ;           ",
"        . * w N N l w w l l l l l l l l l l N N N N N N l l l N m m m m C z z l s s s w * .         ",
"        . * w N N N w w l l l l l l l l l l l l l l l l l l l l N N N N s s l l s s s w * .         "
};
