/* XPM */
static char *_59af32d59c24bee91bb6a57893bf557M0A8cXEfjSDYOFV6[] = {
/* columns rows colors chars-per-pixel */
"50 50 193 2 ",
"   c #6A3D3E",
".  c #673E3A",
"X  c #733D3C",
"o  c #6B413F",
"O  c #73403C",
"+  c #7E443A",
"@  c #7F463A",
"#  c #673E46",
"$  c #6E3E43",
"%  c #673F48",
"&  c #6C3E49",
"*  c #713D43",
"=  c #713F48",
"-  c #6D4143",
";  c #684049",
":  c #734143",
">  c #7E4641",
",  c #7B4945",
"<  c #724049",
"1  c #754D4E",
"2  c #794B4B",
"3  c #7E514E",
"4  c #764F54",
"5  c #785458",
"6  c #7F5C60",
"7  c #82463D",
"8  c #82493C",
"9  c #814643",
"0  c #844942",
"q  c #884940",
"w  c #804A48",
"e  c #8A4F4B",
"r  c #8D5549",
"t  c #9D5D47",
"y  c #95544B",
"u  c #9D5C4D",
"i  c #855958",
"p  c #8E5D59",
"a  c #955752",
"s  c #9C5752",
"d  c #955C55",
"f  c #9E5B52",
"g  c #955B59",
"h  c #9D5B59",
"j  c #A35C46",
"k  c #A0574E",
"l  c #A25B4D",
"z  c #A85F4C",
"x  c #A25752",
"c  c #A15A53",
"v  c #A95C52",
"b  c #A25A58",
"n  c #9C604D",
"m  c #986053",
"M  c #9C625F",
"N  c #966257",
"B  c #A6634E",
"V  c #AB644D",
"C  c #B0644C",
"Z  c #B96E4F",
"A  c #A56252",
"S  c #AC6452",
"D  c #A76856",
"F  c #AE6A55",
"G  c #AE6559",
"H  c #A76D5F",
"J  c #AC6F5B",
"K  c #B16653",
"L  c #B46B54",
"P  c #BC6F55",
"I  c #B0665B",
"U  c #B36D59",
"Y  c #BA6E5A",
"T  c #AE725A",
"R  c #B67456",
"E  c #BC7456",
"W  c #B5745B",
"Q  c #BA745B",
"!  c #BC795B",
"~  c #BD7D57",
"^  c #8C6566",
"/  c #9C6763",
"(  c #9C6A66",
")  c #986B6B",
"_  c #956769",
"`  c #A7716F",
"'  c #AD7461",
"]  c #B57762",
"[  c #BB7561",
"{  c #BD7A62",
"}  c #C06F54",
"|  c #C17657",
" . c #C87E57",
".. c #C1765B",
"X. c #C57C5E",
"o. c #CB7E5C",
"O. c #C17661",
"+. c #C67E65",
"@. c #C47C62",
"#. c #CA7F62",
"$. c #C97E60",
"%. c #CB7E63",
"&. c #C57E69",
"*. c #CA7F68",
"=. c #BC836C",
"-. c #BF8266",
";. c #AD817E",
":. c #BD8D72",
">. c #B8877A",
",. c #C98257",
"<. c #CB8556",
"1. c #CE8A57",
"2. c #C5825D",
"3. c #CA825A",
"4. c #C8855B",
"5. c #CB845A",
"6. c #CB825E",
"7. c #CC815D",
"8. c #CE885B",
"9. c #C58257",
"0. c #D0825C",
"q. c #D38B5B",
"w. c #D38E57",
"e. c #DA945D",
"r. c #D2905C",
"t. c #C58264",
"y. c #CA8160",
"u. c #CA8261",
"i. c #CC8161",
"p. c #CB8164",
"a. c #CA8162",
"s. c #CE8C66",
"d. c #C3846B",
"f. c #C98168",
"g. c #CA8269",
"h. c #CD896C",
"j. c #D08766",
"k. c #D08D60",
"l. c #DB9563",
"z. c #D5926E",
"x. c #D9986C",
"c. c #DA9766",
"v. c #C88771",
"b. c #C18B73",
"n. c #DA9971",
"m. c #D59578",
"M. c #E19D6C",
"N. c #E6A36E",
"B. c #E5A371",
"V. c #E8A674",
"C. c #A67F82",
"Z. c #A48388",
"A. c #B48483",
"S. c #B68D89",
"D. c #AB8C91",
"F. c #B19092",
"G. c #BD9594",
"H. c #CA9C8F",
"J. c #C89582",
"K. c #D29880",
"L. c #D29E8C",
"P. c #C09390",
"I. c #D0A18F",
"U. c #CDA492",
"Y. c #CCA893",
"T. c #CFA39A",
"R. c #D9A897",
"E. c #CCA5A6",
"W. c #D5ADA3",
"Q. c #DDBAB4",
"!. c #D5BBBF",
"~. c #DBBDBB",
"^. c #D8B5B3",
"/. c #E1B7AB",
"(. c #E9BFB3",
"). c #DCC9BE",
"_. c #E4C5BC",
"`. c #E9C7BE",
"'. c #E2C9BF",
"]. c #D3BCC1",
"[. c #D4C0C3",
"{. c #DEC7C2",
"}. c #F0D1CC",
"|. c #EFD6D9",
" X c #E4DEDB",
".X c #E9D9D9",
"XX c #F2DAD8",
"oX c #EBE0DE",
"OX c #DEDEE4",
"+X c #E4DDE2",
"@X c #ECDFE4",
"#X c #DDE2E6",
"$X c #E5E6EA",
/* pixels */
"- - = * 9 f Q 4.<.,.y.f.g.d.t.2.y.y.y.y.y.y.y.y.y.y.y.y.y.y.y.y.%.p.g.f.*.+.%.6.o.7.6.E u > $ $ $ $ ",
"- - = * 9 f Q 4.8.4.y.+.&.&.X.2.X.X.X.X.X.X.X.X.X.X.X.X.X.X.X.X.X.@.+.+.+.O.%.6.o.7.6.Q u > $ $ $ $ ",
"- - = * 9 f Q 4.8.4.X.Q [ W R R Q Q Q Q Q Q Q Q Q Q Q Q Q Q Q Q P Y Q Q Y Q ..X.o.7.6.Q u > $ $ $ $ ",
"- - = * 9 u Q 4.4.3...U G S V V S S A S S S S S S S S S S S S S V V A A A S P ..o.7.6.Q u > $ $ $ $ ",
"o - = * 9 u Q 4.4.3...K v l B j l l l l l l l l l l l l l l l l l l l l l l L ..o.7.y.Q u > $ $ $ $ ",
"o - = * 9 u Q 4.4.6.O.G c s l u u s s s s s s s s s c s s s s s l l k c l l K ..o.7.y.Q u > $ $ $ $ ",
"o - = * 9 u Q 4.3.i.O.G b s l u s s f s b f f f f f f s f s f s b x c b c l K ..o.7.y.Q u > $ $ $ $ ",
"o - = * 9 u E 4.,.6.O.G x f s u f f f f f c f f f f c c f f f b b s s b f u G ..%.i.y.Q u 9 * $ $ $ ",
"    $ * 9 u ! 9.,.o.O.I b b s u f f f f s s s s f s f f f f f s c b b b f c I Q %.i.y.Q u 9 * $ $ $ ",
"o   $ * 9 u ! 4.4.3.O.I b f s u f f f f s f s f f f s f f f s s s f f b f c I Q %.i.p.Q u 9 * $ $ $ ",
"-   $ * 9 A 2.k.8.3...G b f s u u u c u s u s u s u c l s u f f s f f h f c I Q %.i.p.Q u 9 * $ $ $ ",
"- $ = * 9 D s.c.q.8.Q G c s u u u u c l s u s u s u s l s u s s f s f f f c I Q %.i.p.Q u 9 * $ $ $ ",
"- $ = * 0 J z.B.l.8.E G c s u u s c c c c l c l c c c l c c c c f f f f s c F Q %.i.p.Q f 9 * & $ $ ",
"- $ = * 0 W n.V.l.8.E S v u t l l c c c c c c c c c c c c c c c f f f f s c F Q y.y.y.Q f 9 * & $ $ ",
"$ - = * 0 W n.N.l.8.E L v u t l c c b c b c f s b s b c b c b c f u f f s c F Q y.y.y.Q f 9 * & $ $ ",
"- $ = X 7 T z.B.c.8.E L A u t l s c c b f b b b b b b b f f b f f u f f s c K Q o.7.y.Q u 9 * = $ $ ",
"$ $ * X 7 D h.z.j.i...L l u u u s s c c c c c c b b x f s f f f s s s s s l K E o.7.7.E u 7 X * * $ ",
"$ $ * X + A &.h.g.p.E L j l f f f f c c b b b b b b b c f f f f c c b s s l K E o.7.7.E u 7 X * * $ ",
"$ $ * X + u { t.p.%.E V j j c f f f f c c c c c c c c c f f f f c c b s s l F E o.7.y.Q u > * $ $ $ ",
"& - : O @ u { @.y.o.E V j j t u u u u u u u u u u u u u u u u u l t u u u l F E 6.y.u.W n , $ & $ $ ",
"& # : O 7 n { @.i.o.| C j j l t u u u u u u u u u t t t l l l l j l l l l A L E 6.y.t.W m , # & $ $ ",
"# # - O @ n { @.y.6...Z C V V B S A A A A B B B B B B V V A S V V V V S G G L ..o.y.p.W m , & ; $ $ ",
"% # - X @ u ! 2.6.6.o.| E Q Q Q Q Q Q Q W W W W W R Q Q Q Q Q Q Q E Q Q Q Q ..X.6.7.y.W m , & ; $ $ ",
"; ; - X + n ! y.X.6.7.o.X.@.+.+.+.+.@.@.@.@.X.2.X.X.X.@.@.%.+.%.%.X.@.+.+.O.X.o.7.7.y.Q f , # ; $ $ ",
"; ; $ X @ n Q y.6.o.o.i.i.p.f.*.%.%.%.%.%.y.6.6.u.2.X.y.p.y.+.y.y.y.t.a.f.p.i.0.o.7.7.Q u > $ & $ $ ",
"; ; - X 8 u Q y.6.3.o.i.y.p.&.+.%.%.%.%.%.o.o.6.i.6.X.y.t.&.&.t.t.t.t.d.d.d.i.7.o.0.7.E u 9 $ $ $ $ ",
"& ; $ X 8 n Q y.y.6.o.X.@.O.+.+.@.o.o.o.o.o.o.o.o.X.@.d.d.d.b.b.b.:.:.b.b.v.g.6.3.7.7.E j 7 X $ $ $ ",
"& ; $ X 8 u Q p.y.y.X.E Q Q Q W Q Q P E } } } P Q R ] b.J.I.U.Y.Y.Y.U.U.U.I.m.h.6.7.7.E u 7 X * $ $ ",
"& - * X 8 u Q p.y.y...L V S S S S S S S C C K S G A H >.W._.'.).).{.'.'.`.(.R.K.t.y.y.Q u 7 X $ $ $ ",
"& - $ X 8 u Q t.y.y...V j j c f f u l l l l l l c s / S.~.XXoX X X X X.XXX}./.L.-.t.t.Q u 9 $ $ $ $ ",
"& = * X 7 u Q p.y.p.! V t u f f d d f s c x x x h g _ F.[.+X$X#X#X#X#X+X@X|.Q.H.=.d.d.] f , $ $ $ $ ",
"$ = * X 9 u Q p.y.p.O.S t u c f h h h f b b b b h g ) F.!..X+XOX#X#XOX+X@X|.Q.H.=.d.d.] f > $ $ $ $ ",
"- $ = * > f { p.p.p.[ G l u u t u f f f s s f f h g / A.E.~.{.].[.[.].].!.^.T.J.-.t.t.W u 7 X * * $ ",
"    $ = > f { y.y.t.[ G c u u t u u f f f s s f f h M ` A.P.G.G.F.D.Z.Z.C.;.>.=.-.t.y.Q u 7 X * * $ ",
"    = = > f ! 2.6.y.[ G c f u u u u u u f f s s f f h M / ( ( ) ^ 6 5 4 1 3 N ' t.t.y.Q u 7 X * * $ ",
"- - < = > m ! 9.3.y.[ I c c u u u u u u s c c c c b f h d d d p i 1 - - $ O r J t.p.y.Q u 7 X * * $ ",
"- - < * + u ! 9.4.6.Q I c f f u u u u l l l c c b c s s f f h N p 2 - : : O r J t.y.y.Q u 7 X * * $ ",
"- $ $ * + n ~ <.1.4.Q I b b b f f s s c c c c c c l x s c c f h g w * X X + y U y.y.y.Q u 7 X * $ $ ",
"; $ $ * 7 A 2.r.1.8...G b f c f s s c c c c c c x x c c c s s f a e 9 9 9 q u R @.y.y.Q u 7 X = $ $ ",
"; $ = : 0 D s.c.w.8...K c x b c f f f s c c c c x c b c s s s f s s a a y y A Q o.7.y.Q u 7 X $ $ $ ",
"$ $ = * 0 T x.N.e.<.E K v b b c f h h f f f b c c c c c s s s s A s s c c l F ..o.7.y.Q u 9 $ $ $ $ ",
"$ $ = * 0 T x.N.e.q.| K v c c s s f f f f s s s s s s s s u s u l l l c l l K ..o.6.y.Q u > $ $ $ $ ",
"$ $ $ * 0 T n.B.e.q.| K v c l t s f f f f f s s s f f f f u f u l j l l l l L ..o.7.y.Q n > $ $ $ $ ",
"- $ $ * 0 J z.M.q.0.| L S v z B A A A A A A A A A A A A A A A B V z z A A S L | o.7.y.Q u > $ $ $ $ ",
"- $ $ * 9 A a.c.q.7...P Y U L L L U U U U U U U U W W U U U U U L P L U U L Q ..o.7.6.Q u > $ & $ $ ",
"o . $ * > u X.8.8.7.o.@.@.@.X.X.X.X.X.X.X.@.@.@.@.@.@.@.@.@.@.@.@.@.+.+.+.O.X.6.3.7.6.Q u > $ & $ $ ",
"o . $ * 9 f ! 3.7.7.%.%.*.g.6.3.7.0.7.7.7.i.i.i.i.i.y.y.y.y.y.y.i.p.f.f.d.p.y.6.3.8.6.Q u > $ & $ $ ",
"o . $ * 9 u Q 2.3.o.%.%.%.p.3. .7.o.7.7.7.7.7.7.7.7.6.6.y.y.y.y.y.y.p.p.p.p.y.6.3.7.y.Q u > $ $ $ $ ",
"$ - * X 9 u Q p.y.6.6.y.y.6.6.6.7.7.7.7.7.6.6.6.6.6.6.6.6.6.6.6.6.y.y.y.y.y.6.7.o.7.p.Q f > $ $ * * ",
"$ $ X X 7 u ] f.y.6.6.6.6.6.6.6.6.6.6.6.6.6.6.6.6.6.6.6.6.6.6.6.7.6.y.y.y.6.7.7.o.7.p.] f > $ $ $ $ "
};
