/* XPM */
static char *_72215f07f7b47e382fb268842387c47[] = {
/* columns rows colors chars-per-pixel */
"40 40 188 2 ",
"   c #16040C",
".  c #1E050B",
"X  c #1D0D0C",
"o  c #1D0C14",
"O  c #1F1015",
"+  c #22060A",
"@  c #230A0D",
"#  c #240C13",
"$  c #2A0E13",
"%  c #240E1A",
"&  c #251214",
"*  c #2B1216",
"=  c #291A17",
"-  c #26121A",
";  c #2B131C",
":  c #271B1F",
">  c #2D1A1D",
",  c #33151B",
"<  c #321B1E",
"1  c #2B201A",
"2  c #2B1521",
"3  c #2C1C22",
"4  c #311720",
"5  c #341C22",
"6  c #391E24",
"7  c #331D29",
"8  c #2F2426",
"9  c #352325",
"0  c #3B2425",
"q  c #3D2827",
"w  c #35232A",
"e  c #3A242C",
"r  c #352B2C",
"t  c #3B2A2D",
"y  c #3C322D",
"u  c #362630",
"i  c #3C2532",
"p  c #3C2C32",
"a  c #3C263A",
"s  c #3F2C39",
"d  c #3C3033",
"f  c #3D3039",
"g  c #44252C",
"h  c #432A2E",
"j  c #482A2E",
"k  c #422533",
"l  c #442C34",
"z  c #4A2B33",
"x  c #482738",
"c  c #422D3A",
"v  c #4C2D3A",
"b  c #443235",
"n  c #4C3135",
"m  c #473835",
"M  c #483A37",
"N  c #46353B",
"B  c #4B343B",
"V  c #45393E",
"C  c #4B3A3E",
"Z  c #513335",
"A  c #50353D",
"S  c #513C3F",
"D  c #4F403D",
"F  c #412B40",
"G  c #473044",
"H  c #4B3542",
"J  c #473C42",
"K  c #4B3B42",
"L  c #533642",
"P  c #543C45",
"I  c #543C4C",
"U  c #5C3D4B",
"Y  c #553F50",
"T  c #4D4145",
"R  c #4F4A47",
"E  c #4E4149",
"W  c gray30",
"Q  c #534345",
"!  c #5A4147",
"~  c #53444B",
"^  c #5B434E",
"/  c #544B4D",
"(  c #5C4B4D",
")  c #4E4B56",
"_  c #4F4F59",
"`  c #574152",
"'  c #5C4554",
"]  c #544D53",
"[  c #5A4D54",
"{  c #5E465C",
"}  c #564E5B",
"|  c #5F4B5A",
" . c #555154",
".. c #5B5156",
"X. c #55535C",
"o. c #5B545C",
"O. c #55595E",
"+. c #535D5D",
"@. c #535B5C",
"#. c #5F595D",
"$. c #5D585F",
"%. c #5C595E",
"&. c #614E4E",
"*. c #624455",
"=. c #624951",
"-. c #624F50",
";. c #624D55",
":. c #634C57",
">. c #614559",
",. c #644D5A",
"<. c #684D5E",
"1. c #675354",
"2. c #635155",
"3. c #61565E",
"4. c #61555D",
"5. c #63595E",
"6. c #565462",
"7. c #595661",
"8. c #5C5662",
"9. c #575A63",
"0. c #5B5863",
"q. c #5F5960",
"w. c #5A5966",
"e. c #5D5A65",
"r. c #5D5963",
"t. c #5A5768",
"y. c #5C5F68",
"u. c #5E5C69",
"i. c #664E62",
"p. c #694E61",
"a. c #645462",
"s. c #6A5364",
"d. c #635C64",
"f. c #645C67",
"g. c #625B63",
"h. c #695E63",
"j. c #6C5669",
"k. c #615D69",
"l. c #6E5A6B",
"z. c #705460",
"x. c #745866",
"c. c #745769",
"v. c #725C6C",
"b. c #745D71",
"n. c #566260",
"m. c #68636C",
"M. c #72616B",
"N. c #7B6475",
"B. c #7D6871",
"V. c #7C667A",
"C. c #7F6A7B",
"Z. c #826574",
"A. c #826E77",
"S. c #826B7D",
"D. c #8A717F",
"F. c #856D82",
"G. c #877183",
"H. c #8C7486",
"J. c #8D7489",
"K. c #8E7A8C",
"L. c #927A87",
"P. c #93778E",
"I. c #917B8E",
"U. c #937E92",
"Y. c #95818D",
"T. c #968295",
"R. c #998395",
"E. c #9B8896",
"W. c #9B859A",
"Q. c #9D899C",
"!. c #A08594",
"~. c #A18B9E",
"^. c #A98C9E",
"/. c #A8949F",
"(. c #9E84A1",
"). c #9F89A0",
"_. c #A187A0",
"`. c #A38DA2",
"'. c #A591A3",
"]. c #AA94A5",
"[. c #AB99A7",
"{. c #A794A8",
"}. c #AB96AB",
"|. c #AD99AC",
" X c #B29AAD",
".X c #AF9CB0",
"XX c #B09DB0",
"oX c #BCA3B6",
/* pixels */
"n.@.@. .#.h.2.;.=.=.,.;.,.| ~ o.[ ..[ ( ( &.-.&.2.1.&.( 2...[ [ [ ..h.#.X.o.X.0.",
"+.+.@.W ..4.K N z e k e s s w f p s d p h l h h 0 b l q t u u s d V #.o.] %.e.e.",
"+.+.O. .#.~ e N ! S L N K H u s H H C C S S M b 5 n S B B K K ~ V r ~ %...%.e.7.",
"@.@.O.%.5.N 5 =.A B A B H l 2 2 b N b N B B z 0 $ h B n B V B N ..8 V d.%.o.7.o.",
"X.O.O.X.3.V 5 P 6 0 z h l e - 2 e t t h h h 0 < $ 0 h q h t e 9 K 3 V %...$.e.7.",
"6.y.0.] 3.[ e 5 + + $ # $ #   # % $ & $ $ $ $ + + $ $ @ $ $ # & 3 w [ %.] q.k.7.",
"0.0.e.o.g.[ t 5 $ $ * $ < < % 5 4 5 5 , < , , , , , , , , $ @ * 9 p ..%...%.7.7.",
"w.) 6.f.3.K e b * $ , 5 z n e l l v v z z z z z g z j j g $ . $ b w J #.d.o.) k.",
"6.u.6.8.o.~ w S 5 @ 6 n v l l B v v v v v v v v v z A z < * # < V r T ..] g.e.X.",
"6.0.6.8.o.~ w P 0 @ < n v N l l c v v v v v v v v z z 6 $ + + 5 K r K ..X.q.e.X.",
"t.6.X.g...T 9 Q q @ < z l v l k i i k k k k k k x x z ; # + @ 9 T r J  ...q.7.7.",
"t.6.X.d...T 9 D q & 5 z l H I ' ' ' ' >.>.>.>.*.*.^ L e 5 ; # 5 K r J  .$.q.7.e.",
"0.X.X.d. .T r M < @ 9 l c ' b.H.H.H.H.J.J.J.J.J.J.S.<.c l w # : V r J  .q.q.X.e.",
"0.X.O.d.] R r y = @ 9 p i ' S.~.Q.Q.Q.~.~.~._.~.`.I.s.c c u - 3 p r T  .8.g.X.e.",
"9.O.%.%./ / y 9 & X 9 p i I V.Q.{.}.}.}.}.}.}.}._.U.i.i s u o : 8 d ~ ] q.d.X.7.",
"0.6.%.%./  .y 1 X X 9 l l ' F.`.}.}.}.}.}.}.}.}.`.W.l.c c w   O : p / ] $.d.X.7.",
"u.7.O.d.[ T 9 M = & 9 l i ' K.{.|.'.|.|.{.|.|. X|.~.s.c s w - : C 9 K 4.o.$.r.8.",
"t.e.7.q...Q 9 m 9 & 9 l l ' K.`.Q.U.'.}.}.}.Q.T.~.~.v.c l e ; 9 B w T #.o.g.g.7.",
"6.u.7.$...~ 9 M 0 & > p s ' H.W.v.l.U.|..XQ.V.a.J.E.v.c l w - e B t ~ o.o.g.r.7.",
"6.u.7.$...T 9 D q & > e i ' H.Q.s.a.K.}.|.W.b.| G.Q.v.c l 7 % w C t K ..a.g.8.8.",
"t.t.o.g...V 9 Q q * 9 l a ' K.'.T.K.Q.|.}.'.U.U.W.`.v.s i 5 - w P r N ..f.g.o.k.",
"u.X.o.f.[ K 9 C < & w l i ` J.'.|.'.XXXX|.|.}. X}.Q.j.i 7 2 - 5 B t V [ f.q.} k.",
"k.X.o.f.] / d 9 & # w c a Y F.W.'.'.XX|.}..X}.{.'.K.a.c 7 ; % - w p ~ ..a.q.} g.",
"u.X.%.f.] 4.N & & # e H c ' F.U.'.'.|.'.`.|.}.`.R.S.s.Y a 2 % o - b ....o.g.} 8.",
"o.7.o.g.o.T w V - - i I v.G.J.Q.R.T.T.T.T.T.T.T.T.U.K.C.' i ; 2 p t K 4.a.$.8.8.",
"o.o.o.g...E w B w 5 c <.U.}.W.U.I.K.K.K.K.I.U.U.Q.W._.R.N.I i 2 p t K #.a.o.8.e.",
"o.%.o.g...E w B e H v.H.`. X_.W.Q.E.W.W.W.W.Q.Q.Q.Q.}.}.U.V.| i l r K o.3.o.8.e.",
"%.q.o.g...E w N e :.R.{.`.`._.`.[.[.}.}.|.|.}.}.).W.'.|.'.W.N.c b p H ..3.o.8.e.",
"%.%.o.g...T w H a :.E.[.{.}.`.Q.[.[.[.[.|.|.|.}.{._.`.'.}.'.V.c N p H ..4.o.8.r.",
"%.q.o.q...T w H c ^ H.Q.U.W.Q.W.'.'.[.[.|.|.}.}.`._.U.U.Q.W.v.c N p H ..4.$.8.8.",
"%.%.o.q.[ E w H a c s.v.i.b.J.Q.~.'.[.[..X|.}.`.W.W.V.s.b.v.I s N p H ..3.$.8.7.",
"o.%.o.%.[ E w K i - i c a { F.Q.W.~.'.}.}.'.`.Q.W.R.j.F G c 7 w N p V [ 3.$.8.7.",
"O.O.r.] #.~ 3 P 5 # 2 7 7 ` J._.`._.).`.'.'.Q.Q.Q.`.j.a c i ; 5 C 9 K ..g.o.m.] ",
"0.o.e.$.5.[ w 9 # . ; e c <.K.`.(.(.W.W.R.Y.T.E.~.Q.v.G c e # $ 9 9 ~ [ 4...g.8.",
"0.o.7. .[ / b 9 # % 7 H 4.S.Q.|.}.W.F.v.s.M.K.].}.'.H.j.^ k * $ 5 t 2.[ o.3.o.8.",
"6.O.u.] / Q t B > < e ^ D.~.[.[. XP.p.B l ~ A./.].}.].R.s.l 5 < b q [ ..o.f...} ",
"6.O.m...4.~ & C 9 > 5 ' Y. X[.`.H.c.I l l B :.B.E.'.oX].x.l 5 5 S > V 4.[ g.f...",
"y.X.q.] 4.Q : Q q = 5 =.L.[.'.R.:.P v v n z B P H.!. X^.x.l 6 6 Q q N h.[ ..f.8.",
"y.X.)  .K p B S 9 * e ^ x.S.G.v.P z g z n j h B z.Z.D.Z.*.z 6 6 B Q p ..3.[ o.8.",
"_ O.X.m.d & Q 9 * @ 6 B B P ` B L z g Z Z j j n B U U L A g , * 5 Q ; V h.$.] o."
};
