/* XPM */
static char *_f5914e3d62d4d5195703790494db0edtiZnZ1CbZqiaLMu5[] = {
/* columns rows colors chars-per-pixel */
"40 40 139 2 ",
"   c #3B2C3C",
".  c #3E313F",
"X  c #3F2E40",
"o  c #3E3241",
"O  c #412E41",
"+  c #433444",
"@  c #4A3347",
"#  c #443845",
"$  c #4C354A",
"%  c #473B4A",
"&  c #4B3D4C",
"*  c #503C4E",
"=  c #4E3E50",
"-  c #5A3F56",
";  c #4B404E",
":  c #4E4351",
">  c #4F4955",
",  c #524554",
"<  c #544956",
"1  c #584759",
"2  c #554B59",
"3  c #5A4D5C",
"4  c #56545E",
"5  c #5A555E",
"6  c #57585D",
"7  c #59595E",
"8  c #5F4E60",
"9  c #575660",
"0  c #5B5660",
"q  c #575A61",
"w  c #5B5962",
"e  c #644D61",
"r  c #625564",
"t  c #6A5567",
"y  c #625965",
"u  c #655768",
"i  c #6E5769",
"p  c #655C68",
"a  c #6C5A6B",
"s  c #715B6F",
"d  c #735E71",
"f  c #785F75",
"g  c #6B616D",
"h  c #746374",
"j  c #796777",
"k  c #756778",
"l  c #7A6579",
"z  c #7B6B7B",
"x  c #816A7F",
"c  c #7F6E81",
"v  c #816E81",
"b  c #837182",
"n  c #8B7287",
"m  c #857986",
"M  c #857788",
"N  c #8D7689",
"B  c #8C7A8D",
"V  c #927A8E",
"C  c #937E92",
"Z  c #8E808F",
"A  c #8F8190",
"S  c #958295",
"D  c #9A8296",
"F  c #988598",
"G  c #9B8498",
"H  c #9A879A",
"J  c #9C8599",
"K  c #9D869A",
"L  c #9F869B",
"P  c #9C859A",
"I  c #9F899E",
"U  c #9D8A9E",
"Y  c #9E8B9F",
"T  c #9F8C9F",
"R  c #9C8B9C",
"E  c #9E909D",
"W  c #A0879C",
"Q  c #A08B9E",
"!  c #A08A9F",
"~  c #A18C9F",
"^  c #A18A9F",
"/  c #A0929F",
"(  c #9F8CA0",
")  c #9F8EA1",
"_  c #9F92A4",
"`  c #A48BA0",
"'  c #A08DA1",
"]  c #A38CA0",
"[  c #A28DA0",
"{  c #A28CA1",
"}  c #A28FA2",
"|  c #A58CA1",
" . c #A28DA1",
".. c #A590A3",
"X. c #A790A4",
"o. c #A690A5",
"O. c #A791A6",
"+. c #A693A7",
"@. c #A592A5",
"#. c #A891A5",
"$. c #A991A7",
"%. c #A992A6",
"&. c #A893A6",
"*. c #A892A7",
"=. c #AA93A7",
"-. c #A894A6",
";. c #A796A8",
":. c #A993A8",
">. c #AC93A8",
",. c #A996A9",
"<. c #A996AA",
"1. c #AA97AB",
"2. c #AD94A9",
"3. c #AC94AA",
"4. c #AD94AA",
"5. c #AD95AB",
"6. c #AE95AB",
"7. c #AC96AB",
"8. c #AD97AC",
"9. c #AE96AC",
"0. c #A997AA",
"q. c #AD98AB",
"w. c #AB98AC",
"e. c #AA99AC",
"r. c #AB98AE",
"t. c #AE98AD",
"y. c #AF99AE",
"u. c #AE9BAF",
"i. c #AB9AAD",
"p. c #B097AD",
"a. c #B098AE",
"s. c #B198AE",
"d. c #B199AF",
"f. c #B09AAF",
"g. c #AD9BB1",
"h. c #AF9EB1",
"j. c #B39CB0",
"k. c #B59CB1",
"l. c #B09DB1",
/* pixels */
"7 7 7 7 0 0 0 0 w w w 0 0 0 0 0 0 0 0 0 0 0 0 0 q q 6 6 7 7 7 7 0 0 0 0 0 0 0 0 ",
"7 7 7 7 0 0 0 0 0 0 0 0 0 w w w 0 9 9 9 9 9 4 4 0 0 6 6 7 7 7 7 0 0 0 0 0 0 0 0 ",
"7 7 7 7 0 0 0 0 0 0 0 0 0 0 0 0 w w w w w w 0 0 0 0 0 7 7 7 7 7 0 0 0 0 0 0 0 0 ",
"7 7 7 7 0 0 0 0 0 0 0 0 0 0 0 0 0 0 0 0 0 0 7 7 0 0 0 0 7 7 7 7 0 0 0 0 0 0 0 0 ",
"7 7 7 7 0 0 0 0 0 0 0 w w y y y w w w w 0 0 0 0 4 5 0 w 0 0 7 w 0 0 0 0 0 0 0 0 ",
"7 7 7 7 0 0 0 0 0 0 0 0 4 3 < , < < 1 1 < < < < < 3 5 r 0 0 5 w 0 0 0 0 0 0 0 0 ",
"5 5 7 7 0 0 0 0 w w 0 4 < : % # # # # # # # # # & < 5 r 0 7 0 w 0 0 0 0 0 0 0 0 ",
"5 5 7 7 0 0 0 0 4 0 0 0 3 < : % = = = = = = * & $ , 3 5 5 4 7 0 0 0 0 0 0 0 0 0 ",
"5 5 7 7 0 0 0 0 0 0 0 , # 3 z b c c v v v v x z b r + : 5 4 w w 0 0 0 0 0 0 0 0 ",
"5 5 5 7 0 0 0 0 w 0 4 ; + 3 N F ) ) ] ] ] ~ ~ Q N t + : 5 4 0 7 0 0 0 0 0 0 0 0 ",
"5 5 5 7 0 0 0 0 w 0 4 % . r S =.X.X.=.:.=.=.=.X.S a + ; 0 4 0 0 0 0 0 0 0 0 0 0 ",
"5 5 5 7 0 0 0 0 0 0 0 ; + t D =.1.1.2.2.2.2.>.>.L a   & r 0 w 0 0 0 0 0 0 0 0 0 ",
"5 5 5 7 0 0 0 0 0 0 0 : + t L =.u.u.s.s.s.s.s.p.] s X & 0 0 w 0 0 0 0 0 0 0 0 0 ",
"5 5 5 7 0 0 0 0 0 w w & + i ` j.1.e.e.8.8.2.2.2.=.d O = 0 0 0 9 0 0 0 0 0 0 0 0 ",
"5 5 5 7 0 0 0 0 0 w r & + i | k.u.g.u.s.s.s.s.p.=.d + = 0 4 0 9 0 0 0 0 0 0 0 0 ",
"5 5 5 7 0 0 0 0 4 0 r & + t L 2.2.e.e.8.8.2.2.2...a o : w 4 w w 0 0 0 0 0 0 0 0 ",
"7 4 7 w w 9 9 0 4 0 r , O e D 2.u.8.8.u.u.u.q.1.F u # & 4 0 4 9 0 0 0 0 0 0 0 0 ",
"0 7 7 w w 0 0 w r r 3 $ O r V F X.X.X.=.=.X.] T C 3 o ; 4 0 0 9 0 0 0 0 0 0 0 0 ",
"0 7 0 0 w 0 0 w 5 r r & O e n S Y Y Y ) ] Q F F B 3 # ; , 0 w 0 0 0 0 0 0 0 0 0 ",
"0 0 0 0 w w 0 0 3 3 3 1 3 s n C S S S S S S S C B h r < ; 2 p 0 0 0 0 0 0 0 0 0 ",
"0 0 0 7 0 w 0 4 r ; $ t N F C V B B N N B B B B S S M p & > 0 4 0 0 0 0 0 0 0 0 ",
"0 0 0 7 0 w 0 2 < > 3 b +.=.J F S S C C S S S S F 1...b 0 , , 2 0 0 0 0 0 0 0 0 ",
"0 0 0 7 0 0 4 > o r M T e.] L =.@._ @.@.X.@.] ) F 1.;.R M 0 % , 0 0 0 0 0 0 0 0 ",
"7 0 0 7 0 0 4 >   h R ;.u.| J Q e.e.i.h.h.e.+...S ....e.+.a . : 0 0 0 0 0 0 0 0 ",
"w 0 7 0 0 0 2 >   g R 1.X.K L X.e.e.1.+.1.u.q.X.F F T i...a + % 0 0 0 0 0 0 0 0 ",
"w 0 7 0 0 0 4 2 ; r k j l n D Q ] 1.h.h.u.e.X.~ F B j j j 3 & , 0 0 0 0 0 0 0 0 ",
"w 0 7 7 0 0 4 4 < , , $ & d D L Y X.u.1.X.] Q Q F h & + , < < 5 0 0 0 0 0 0 0 0 ",
"w 0 7 7 0 0 0 0 4 : & O   r C F K ] X.X.| Q Y L S t     & 3 5 0 0 0 0 0 0 0 0 0 ",
"w 0 0 0 0 0 0 0 r 2 3 = + r V D L F L Q ` ` L F S t + $ < 3 0 0 0 0 0 0 0 0 0 0 ",
"0 0 0 0 0 0 0 0 0 < < 3 3 h D ` Q N l f x N D Q F l 3 3 , < 0 w 0 0 0 0 0 0 0 0 ",
"7 0 0 0 0 0 0 0 5 & $ 8 z C L W C f - $ - s n L F B x r # : w 0 0 0 0 0 0 0 0 0 ",
"7 7 0 0 0 0 0 0 y & o r S ~ C N l e @ O * e l N S T F r   & y 4 0 0 0 0 0 0 0 0 ",
"0 0 0 0 0 0 0 0 0 ; # 5 B / S h & & 1 r 3 & , p Z E S r # & 3 0 0 0 0 0 0 0 0 0 ",
"0 0 0 0 0 0 0 0 0 , ; 5 z M z p , , 3 r 3 , < r z m z 5 & , 5 r 0 0 7 7 0 0 0 0 ",
"0 0 0 0 0 0 0 0 0 4 3 5 p g p 5 3 4 5 0 5 2 3 5 p p p 4 2 4 0 5 0 0 7 7 0 0 0 0 ",
"0 0 0 0 0 0 0 0 5 5 r r 5 0 r 5 4 0 0 0 5 5 5 4 0 5 4 0 0 0 5 7 0 0 7 7 0 0 0 0 ",
"0 0 0 0 0 0 0 0 5 0 0 0 5 5 r y 4 0 0 7 0 y y 7 w 7 7 y y 7 4 0 0 0 0 0 0 0 0 0 ",
"0 0 0 0 0 0 0 0 0 0 5 5 5 5 5 0 7 0 7 7 0 w w 0 0 7 7 0 0 4 4 w 0 0 0 0 0 0 0 0 ",
"0 0 0 0 0 0 0 0 0 0 0 0 5 5 7 0 0 7 7 0 w 7 0 0 7 7 7 7 7 4 0 w 0 0 0 0 0 0 0 0 ",
"0 0 0 0 0 0 0 0 0 0 w 0 0 0 0 w w 0 7 0 0 4 4 w w 0 0 7 7 0 0 0 0 0 0 0 0 0 0 0 "
};
