/* XPM */
static char *_63a5880e40b436094cfa14f15041b8bC7OOgPpzu7VLCSnB[] = {
/* columns rows colors chars-per-pixel */
"50 50 255 2 ",
"   c #796D5D",
".  c #70745F",
"X  c #697865",
"o  c #787562",
"O  c #5B7E66",
"+  c #995B3A",
"@  c #A45B3F",
"#  c #995B4A",
"$  c #8C5C54",
"%  c #875E5D",
"&  c #9B5C54",
"*  c #935D5B",
"=  c #9A5B59",
"-  c #975954",
";  c #8F544E",
":  c #A45A4C",
">  c #A35C54",
",  c #B15D52",
"<  c #886659",
"1  c #94635D",
"2  c #9B6657",
"3  c #9C6248",
"4  c #A4664D",
"5  c #A26453",
"6  c #A2675A",
"7  c #B66B55",
"8  c #B77556",
"9  c #935D62",
"0  c #8A6965",
"q  c #966968",
"w  c #98756C",
"e  c #976B71",
"r  c #947676",
"t  c #8A776F",
"y  c #A5766A",
"u  c #B67869",
"i  c #A37672",
"p  c #A37872",
"a  c #AF7A72",
"s  c #AB7B79",
"d  c #B27D73",
"f  c #A56A64",
"g  c #A45F64",
"h  c #C17A5C",
"j  c #2CAE7D",
"k  c #2AA87D",
"l  c #33AD7D",
"z  c #3BA97D",
"x  c #24B37E",
"c  c #2BB17E",
"v  c #31B07F",
"b  c #2EAA78",
"n  c #5C886B",
"m  c #4C9976",
"M  c #569475",
"N  c #538F75",
"B  c #69866B",
"V  c #698B78",
"C  c #46A37C",
"Z  c #BA836A",
"A  c #B98775",
"S  c #B28D79",
"D  c #95867F",
"F  c #C78566",
"G  c #C8957A",
"H  c #D49572",
"J  c #D7A37B",
"K  c #E6A77B",
"L  c #ECB07E",
"P  c #C4865D",
"I  c #1FB787",
"U  c #2CAE84",
"Y  c #2AA782",
"T  c #32AD83",
"R  c #3AAC85",
"E  c #34AD88",
"W  c #3BAC8A",
"Q  c #3AA689",
"!  c #26B483",
"~  c #2DB183",
"^  c #2BB389",
"/  c #28B884",
"(  c #32B184",
")  c #37B18A",
"_  c #3DB291",
"`  c #3AAF92",
"'  c #45A989",
"]  c #48AB96",
"[  c #58AC9A",
"{  c #45B191",
"}  c #4CB399",
"|  c #5AB89D",
" . c #5AB69D",
".. c #50A989",
"X. c #5ABBA4",
"o. c #5BB7A2",
"O. c #4DB3A5",
"+. c #62B8A4",
"@. c #78BAA8",
"#. c #76BEB5",
"$. c #6BBBB0",
"%. c #60B39F",
"&. c #59C1A2",
"*. c #65C3AC",
"=. c #6DC6B6",
"-. c #73C1B2",
";. c #7BCEBB",
":. c #76C9B7",
">. c #74C9B7",
",. c #7CCDC4",
"<. c #79D7C1",
"1. c #9C858A",
"2. c #969191",
"3. c #A48A8A",
"4. c #A88887",
"5. c #A78B92",
"6. c #A7989A",
"7. c #B3989A",
"8. c #B09286",
"9. c #B5A298",
"0. c #B497A1",
"q. c #8CB2AD",
"w. c #A9A7A8",
"e. c #B8ACAE",
"r. c #B5AEB6",
"t. c #B9ACB7",
"y. c #B8B6B8",
"u. c #989DA0",
"i. c #D59982",
"p. c #CB988E",
"a. c #DAA688",
"s. c #D3AE97",
"d. c #E4AD89",
"f. c #E9B388",
"g. c #ECB592",
"h. c #E5B895",
"j. c #ECB593",
"k. c #C3A8A6",
"l. c #C6B9BC",
"z. c #CDB3AB",
"x. c #E6BAA3",
"c. c #85C8B9",
"v. c #EEC89C",
"b. c #F3CC9E",
"n. c #F8C397",
"m. c #EFD19F",
"M. c #DBC3A9",
"N. c #D9C1A7",
"B. c #DCD4BB",
"V. c #DDD6B6",
"C. c #D2C3B9",
"Z. c #EECDA5",
"A. c #EBCDAD",
"S. c #E8C6A6",
"D. c #F3CCA3",
"F. c #F9CAA4",
"G. c #F5CBA7",
"H. c #EAD3A7",
"J. c #F2D2AB",
"K. c #F5D1A8",
"L. c #EBCCB3",
"P. c #E6C8B2",
"I. c #E4D2B7",
"U. c #FCDFBF",
"Y. c #F5D8B6",
"T. c #FFC9B8",
"R. c #FBE2BE",
"E. c #BCBFC4",
"W. c #C5BDC1",
"Q. c #C9B8C5",
"!. c #8ACCC5",
"~. c #9BCECC",
"^. c #88D3C7",
"/. c #95D4CC",
"(. c #9BD3CC",
"). c #93DED3",
"_. c #9CD8D4",
"`. c #99CED2",
"'. c #ABDCDB",
"]. c #A9DAD7",
"[. c #B7D7DB",
"{. c #B5CACB",
"}. c #95E2D2",
"|. c #ABE3DE",
" X c #B2E3DF",
".X c #A9DCE2",
"XX c #B6DCE2",
"oX c #AAE8E3",
"OX c #BDE4EA",
"+X c #B7E7E8",
"@X c #BDF3F4",
"#X c #9FE3E6",
"$X c #C5C5C6",
"%X c #D6C8C7",
"&X c #DBD5C3",
"*X c #D8D5CA",
"=X c #C9C9D7",
"-X c #D4CBD6",
";X c #CAD5DC",
":X c #CCDDDC",
">X c #C7D7D7",
",X c #D2D7D9",
"<X c #CFD1CC",
"1X c #ECDACC",
"2X c #CDE0D9",
"3X c #D3E1DC",
"4X c #FEE6C5",
"5X c #FEEFD8",
"6X c #FFF3DB",
"7X c #FEF7D9",
"8X c #F9F0CF",
"9X c #C7D8E3",
"0X c #D3DDEB",
"qX c #D7DBE5",
"wX c #D4DDF4",
"eX c #E4DAEA",
"rX c #E3DFF6",
"tX c #CAE4EC",
"yX c #C4EBED",
"uX c #C5E5EC",
"iX c #DCE3EC",
"pX c #DAECEC",
"aX c #D4E5E9",
"sX c #CCE5F2",
"dX c #CDECF3",
"fX c #C8EAF7",
"gX c #D3E4F3",
"hX c #D4EBF4",
"jX c #DBEBF4",
"kX c #D2E3FA",
"lX c #D3EDFA",
"zX c #DBECFB",
"xX c #DBE6F6",
"cX c #CBF3F7",
"vX c #D3F4FE",
"bX c #DDF4FE",
"nX c #DCFBFF",
"mX c #D8F3F7",
"MX c #DBF1EE",
"NX c #E4E3EE",
"BX c #FFF4E2",
"VX c #E2EDF6",
"CX c #E6EAFA",
"ZX c #F1EFFD",
"AX c #F5EBFC",
"SX c #E1F1F5",
"DX c #E3F3FE",
"FX c #EDF3FD",
"GX c #E4FBFF",
"HX c #ECFCFF",
"JX c #EEF1F6",
"KX c #F2FFFF",
"LX c #F5FBFE",
"PX c #FAFAFE",
"IX c #F2F2FD",
/* pixels */
"l l c x x x x x U E E Q W ] } ] { { { { { { { { { { { { { { { { O.] ] ] } ] W ( ^ ! x x c T R R T ~ ",
"j j c c / / ~ ~ ( E W ] X.=.<.;.;.;.;.;.;.;.;.;.;.;.;.;.;.;.;.;.,.,.,.,.^.;.+.' k j x ! ~ ( T T T ~ ",
"c j c ~ ~ ~ ~ T E W ' [ -.).oXoX+XOXOXOXOXOXOXOXOXOXOXOXOXOXOXOXoX+X+X+X X].c.[ ' { _ ( ~ ~ ~ U ~ ~ ",
"~ c c ~ ~ U T Q &.*.:.c./.oX@XcXlXzXzXzXzXzXzXzXzXzXzXzXzXzXzXzXbXnXmXhXdXuX].q.c.:.*.{ T U / / ~ ~ ",
"/ ~ ~ ~ T E W } ^.).oX+XXXtXhXjXKXKXKXKXKXKXKXKXKXKXKXKXKXKXKXHXGXGXGXGXhX9X9X[.[.].!.+.' T ~ ~ ~ ~ ",
"/ ! ~ ^ E { X.:./.|.yXhXhXCXCXCXVXSXVXSXVXSXVXSXVXSXVXSXVXSXVXSXSXSXSXDXmXgXgXzXhXtX'.!.+.{ T U ~ ~ ",
"/ ! ~ E W } :.}.|.OXvXDXLXPXAXNXqX0X0X0X0X0X0X0X0X0X0X0X0X0X0X0X:X3X3XaXjXGXHXHXzXsXOX'.^.X.E Y ~ ~ ",
"/ ~ U E Q [ ^.+XyXdXlXDXIXAXeXQ.t.r.r.r.r.r.r.r.r.r.r.r.r.r.r.r.e.e.e.y.>XDXHXCXDXlXuX+X).*.` U ~ ~ ",
"! ^ E Q ] [ !.@XcXGXzX0XqXeXQ.5.r i p i i i i i p p p p p p p p i i r 1.t.qXiX0XzXbXvXcX).X.` Y ( ~ ",
"! ^ E ] +.#.~.OXvXGXDXqX=Xl.6.r 1 - & - & - & - - - - - - - - & > g 9 e 5.t.=XqXCXHXnXfX_.>.X._ E ~ ",
"~ U E  .;.(.'.uXbXHXFX,Xy.5.r e * & & & = & = = = & = & = & = & - = - 9 e 1.e.-XeXLXHXsX'._.^.+.W ~ ",
"^ U Q o./.+XuXgXDXFXqXW.6.r 0 1 1 y d a a a d d a a a a a d d d u u f * 9 e 5.l.-XAXZXhXtXOX'.#.W ~ ",
"^ U E o./.OXlXDXVXqXW.5.r 0 $ $ w s.P.M.z.M.M.N.M.M.M.M.M.M.M.M.x.s.S 1 $ 0 e 4.k.-XNXFXDXsX[.q.' ~ ",
"/ ~ E o./.yXbXLXNX-Xw.t < 1 2 f 9.V.7X7X5X7X6X8X7X7X7X7X7X7X7X7X8X1Xs.y 1 * 0 q 5.l.qXHXGXdX[.#.' ~ ",
"! ~ W o./.yXDXPXJX-X6.0 $ - u a.M.1XBXBXBXBXBX6XBXBXBXBXBXBXBX6X7X8XI.s.A 6 * 0 3.l.aXGXnX@X.X#.W ~ ",
"! ~ W o.(.yXDXPXJX-X7.e $ - G T.6X6X5X5X6X5X6XBX6X6X6X6X6X6X6X6X8X7X7XU.s.f ; 0 4.C.pXnXvX@X#X=.W ~ ",
"c ~ R | /.yXbXHXVX-X0.e * = A Y.8X4X4XU.U.4X4X4XU.U.U.U.U.U.U.R.Y.4X4X4Xs.6 - * 3.W.iXGXGXcX.X-.W ~ ",
"c v R | /.yXbXHXjX-X0.e * = S J.R.Y.J.J.J.J.J.J.J.J.J.J.J.J.J.J.Y.Y.R.U.a.6 & * 3.Q.NXFXHXdX.X#.W ~ ",
"c ~ R | /.yXbXHXjX-X7.e = & A S.Y.J.D.Z.Z.Z.Z.Z.Z.Z.Z.Z.Z.Z.Z.Z.A.J.Y.Y.a.6 = * 3.W.NXFXHXdX.X#.W ~ ",
"c ~ R | /.yXbXHXjX-X7.e = & Z h.J.K.D.D.D.K.K.D.D.D.D.D.D.D.D.D.Z.Z.A.A.i.5 & * 3.W.iXFXGXdX.X#.W ~ ",
"~ ~ R | /.yXbXHXjX-X7.e & > Z h.D.Z.D.D.D.D.D.D.D.D.D.D.D.D.D.Z.D.Z.Z.S.G 5 & * 3.W.iXFXGXdX'.-.W ( ",
"~ ~ R | /.yXbXHXjX-X7.q & > Z h.D.D.D.D.D.D.Z.Z.D.D.D.D.D.D.D.D.F.K.Z.S.G 5 & * 3.W.iXHXGXdX'.-.W ~ ",
"! ~ R | (.yXbXHXpX-X7.q & : Z h.F.D.F.D.D.D.D.D.D.D.D.D.D.D.D.D.G.G.F.v.G 5 & * 3.W.iXHXGXdX].#.W ( ",
"! ~ R | (.yXbXHXpX,X7.q - : Z h.D.D.D.D.D.D.D.D.b.b.D.D.D.D.D.D.b.F.F.v.G 5 & 1 3.W.iXHXGXdX].#.W ( ",
"! ~ W o.(.yXDXHXjX>X7.q ; # F g.D.D.D.D.D.D.D.D.D.D.D.D.D.D.D.D.F.F.F.g.G 5 & 1 3.$XiXGXGXcX].-.W ~ ",
"! ~ W | ~.tXDXHXhX>X7.w - & Z d.D.D.D.D.D.D.D.D.D.D.D.D.D.D.D.D.F.F.D.v.G 5 2 0 3.$XiXGXGXdX].-.W ~ ",
"/ ~ W  .~.tXbXHXmX>Xw.w - 5 Z d.G.D.D.D.D.D.D.D.D.D.D.D.D.D.D.D.D.D.D.S.G 5 = % 2.$XiXGXGXdX].-.W ~ ",
"/ ~ W  .~.tXDXHXmX>X6.0 $ & A h.G.D.D.D.D.D.D.D.D.D.D.D.D.D.D.D.F.D.D.Z.G 2 $ % 2.E.aXGXGXdX].$.W ~ ",
"! ~ W %.~.dXDXHXlX[.w.r * - Z h.G.D.D.D.D.D.D.D.D.D.D.D.D.D.D.F.G.G.Z.Z.G 2 1 e 6.{.aXGXGXdX].#.W ~ ",
"! ~ W +.~.sXDXHXdX[.y.7.s 2 d h.G.D.D.D.D.D.D.D.D.D.D.D.D.D.D.F.G.F.Z.Z.G 2 p 7.r.>XgXGXGXcX'.#.W ~ ",
"! U W +.~.sXzXGXvXtX;X%Xp.f d x.G.D.D.D.Z.Z.Z.Z.Z.Z.D.Z.D.D.D.D.G.D.D.S.G 2 8.z.%X0XgXbXGXdX'.-.W ( ",
"! ~ W o.(.uXlXbXvXhXqX*Xk.q p x.A.Z.D.D.D.D.D.D.D.D.D.D.D.D.D.D.D.D.Z.S.S q 7.%XqXVXxXzXbXdX].-.W ( ",
"! k E X.^.oXyXsXbXFXNX,X9.t S s.L.Z.Z.D.D.b.b.b.D.D.D.D.G.D.F.b.b.b.K.S.8.t 2.<X0XIXFX0XtXyX).*.T ~ ",
"c j T } =.^..XuXDXLXCX,Xy.5.9.M.L.A.Z.Z.m.m.m.m.b.b.D.D.D.b.b.b.m.Z.J.P.k.6.w.>XxXLXFXgXXX_.:.X.T ~ ",
"c c ( _ } $.`.OXbXKXCXqX=X$X%X&XI.L.H.H.H.H.H.H.Z.Z.Z.Z.Z.Z.Z.H.I.V.B.&X<X{.{.9XlXGXGXfX_.-.} _ T ~ ",
"j v ( E Q o.!.OXlXDXzXgXjXiXiX,X*X&X&XB.B.V.V.V.V.V.B.B.I.I.I.B.&X<X<X,XaXaXhXdXlXvXvX@X).X.W E T ~ ",
"l l j U E } ^.+XyXzXlXbXGXnXzXsX9X9X9X9X:X:X:X:X;X;X9X9X9X;X;X;X,XqX9X0XxXDXDXDXbXlXOXoX}.&.E T T ~ ",
"l l c ~ ( } :._.XXfXlXGXHXnXvXlXkXkXkXsXsXsXsXsXkXkXkXkXkXkXkXwXwXwXgXkXzXDXFXFXCXdX X}.<.&.R T T ~ ",
"l v ~ ~ T ) | -./.+XtXkXzXkXvXvXDXFXFXJXJXJXJXJXZXZXZXZXZXZXJXZXZXCXDXDXCXCXrXrX0XuX(.>.&.{ R T T ~ ",
"c c ( ( k k E ] :.].>X=X=X9XlXnXKXLXLXLXLXLXPXPXPXPXPXPXPXPXPXPXPXLXHXHXCX0X-X=X>X[.c.| W T T T T ~ ",
"! ! T T T T T R  .@.u.u.t.-XaXtXjXjXjXpXpXMXMXpXjXjXhXjXjXjXpXpXjXxXjXjXqX,X$Xu.u.@.| { ~ ~ U U ~ ~ ",
"I / T T T T ~ ( ' ..V t 6.l.<X,X:X2X:X:X:X2X2X:X:X:X9X:X:X:X2X:X3X,X:X:X<X$Xw.2.V M ' T ! / ^ ^ ~ ~ ",
"I ! T T T T ~ c z m O . r 7.k.C.&X&X&X&XB.B.&X&X*X*X*X*X*X&X&X&X&X&X&XB.z.7.D X X N C T ~ ~ ^ U ~ ~ ",
"! / U T T U ~ c l C M X   w 8.z.P.A.L.A.A.A.A.L.L.P.P.L.L.L.A.A.P.L.L.x.p.w 0 . B M ' R ( ~ U U ~ ~ ",
"~ ~ ~ ~ ~ ~ ~ ~ l z m n .   y i.a.d.g.g.g.g.f.d.i.i.i.d.g.g.g.g.h.h.j.i.u = <   X N C z T T T T T ~ ",
"T T ~ ~ ~ ~ ~ T ( z C N B   2 7 h H K K K K H F 7 4 7 F H K K K a.J F 7 , > < . n m C z l T ( ~ ~ ~ ",
"z l c ! ! ! T E ) ) l C V o - : 7 H f.L L f.K P @ + + 8 J f.f.f.f.J 8 @ : 5 < X M C R T j / / ! ~ ~ ",
"z l c ! ! ~ T E Y ( ( z M X $ > 8 K n.n.n.n.f.F 4 # 3 Z d.n.n.n.v.g.F : # < o n m C R ( ~ ! / x ~ ~ ",
"T T ~ ~ ~ ~ T T U U j z N B < $ u G a.g.F.F.g.G 4 3 # Z g.F.F.h.h.G u 2 < o n m z T T ~ / / c ~ ~ ~ ",
"T T ~ ~ c c T T ~ ~ ~ z m B o < 2 u G d.D.G.x.G 2 # # A h.G.F.h.G u 6 $   B m ' T T ( ~ ~ ~ ~ ( T ~ "
};
