/* XPM */
static char *d69bd13e659645d799f8ad4678442c5bMxCuHvNZosPPErzs[] = {
/* columns rows colors chars-per-pixel */
"40 40 151 2 ",
"   c #372638",
".  c #3A273A",
"X  c #3D2D3E",
"o  c #3C303E",
"O  c #412F3F",
"+  c #3F3141",
"@  c #422E42",
"#  c #433243",
"$  c #483747",
"%  c #433B47",
"&  c #473648",
"*  c #463B49",
"=  c #4B3D4D",
"-  c #4C3F50",
";  c #513F52",
":  c #47414B",
">  c #4C414F",
",  c #4E4351",
"<  c #4D4953",
"1  c #524454",
"2  c #584356",
"3  c #544956",
"4  c #584559",
"5  c #554C59",
"6  c #5A4C5C",
"7  c #56545C",
"8  c #5A555E",
"9  c #56585E",
"0  c #59595F",
"q  c #604E5E",
"w  c #5E4E60",
"e  c #575761",
"r  c #5B5660",
"t  c #575A61",
"y  c #5B5962",
"u  c #644E61",
"i  c #635464",
"p  c #695667",
"a  c #615965",
"s  c #675668",
"d  c #695769",
"f  c #6B5B6C",
"g  c #715C6F",
"h  c #725E71",
"j  c #65626B",
"k  c #6E6171",
"l  c #746174",
"z  c #716974",
"x  c #7B657A",
"c  c #766C79",
"v  c #7F6A7D",
"b  c #76737C",
"n  c #78707B",
"m  c #856F83",
"M  c #857285",
"N  c #887587",
"B  c #837B87",
"V  c #8B768A",
"C  c #877C8A",
"Z  c #8D7A8D",
"A  c #90778C",
"S  c #917C8F",
"D  c #8F7E91",
"F  c #957C91",
"G  c #957C92",
"H  c #967D92",
"J  c #977F93",
"K  c #937D91",
"L  c #938094",
"P  c #938295",
"I  c #938197",
"U  c #968194",
"Y  c #958295",
"T  c #958295",
"R  c #998095",
"E  c #988195",
"W  c #998296",
"Q  c #988396",
"!  c #998495",
"~  c #988396",
"^  c #918995",
"/  c #978598",
"(  c #998699",
")  c #9B8599",
"_  c #968899",
"`  c #9F889C",
"'  c #9F8A9D",
"]  c #9D8A9E",
"[  c #9D8A9D",
"{  c #A0879C",
"}  c #A18A9E",
"|  c #A28B9F",
" . c #A18A9E",
".. c #A08DA1",
"X. c #A38CA0",
"o. c #A28DA0",
"O. c #A38EA1",
"+. c #A08FA2",
"@. c #A28FA3",
"#. c #A58CA1",
"$. c #A58EA2",
"%. c #A48FA2",
"&. c #A78EA3",
"*. c #A68FA3",
"=. c #A58FA4",
"-. c #A38EA1",
";. c #A491A5",
":. c #A693A7",
">. c #A592A5",
",. c #A990A5",
"<. c #A990A6",
"1. c #A991A7",
"2. c #A993A7",
"3. c #A49CA7",
"4. c #A794A8",
"5. c #A796A8",
"6. c #A993A8",
"7. c #AB93A9",
"8. c #A895A8",
"9. c #A895A9",
"0. c #AB94A8",
"q. c #AA94A9",
"w. c #AB96A9",
"e. c #AB95AA",
"r. c #A996AA",
"t. c #AA97AB",
"y. c #AC94AA",
"u. c #AD94AA",
"i. c #AD95AB",
"p. c #AE95AB",
"a. c #AC96AB",
"s. c #AF96AB",
"d. c #AD97AC",
"f. c #AF97AD",
"g. c #AB96AA",
"h. c #AE99AC",
"j. c #AE98AD",
"k. c #AF9AAD",
"l. c #AF99AE",
"z. c #AD9AAE",
"x. c #AD99AC",
"c. c #B097AD",
"v. c #B097AC",
"b. c #B098AE",
"n. c #B199AF",
"m. c #B09AAF",
"M. c #B09AAF",
"N. c #AF9CB0",
"B. c #B19BB0",
"V. c #B39AB0",
"C. c #B39EB2",
/* pixels */
"0 0 0 0 r r r r r r r r r r r y r r r r r r r r 9 t y r 9 9 0 y r r r r r r r r ",
"0 0 0 0 r r r r 8 r r y y y r r r r r r r e 7 7 r r 0 r 0 0 7 7 r r r r r r r r ",
"0 0 0 0 r r r r r r r r r r r r r r r r r r r r 0 7 7 7 r y 0 7 r r r r r r r r ",
"0 0 0 0 r r r r y r r r r r y y r r r r r r 0 0 y r 7 7 0 0 r r r r r r r r r r ",
"0 0 0 0 r r r r r r r y a y y y y y y y r r r r r y y y 0 7 7 7 r r r r r r r r ",
"0 0 0 0 r r r r 8 r y a r 3 , & , , - - > > , , > 3 8 r y 0 8 7 r r r r r r r r ",
"8 8 0 0 r r r r r r r 8 3 , & # + + + + + + + + * > 3 8 r y y y r r r r r r r r ",
"8 8 0 0 r r r r y r 8 5 3 5 6 6 w w w w w w q 6 5 3 1 3 6 r r r r r r r r r r r ",
"8 8 0 0 r r r r r r r > # r V K D D L Z Z U S V V i X , a 8 0 0 r r r r r r r r ",
"8 8 8 0 r r r r r r r > # i Z ( ] X.4.X.X.#.X.X.! d X = 8 7 r y r r r r r r r r ",
"8 8 8 0 r r r r y r r = + i U #.e.e.7.e.f.b.e.X.R d O = r r r r r r r r r r r r ",
"8 8 8 0 r r r r y r r = # i R #.l.N.y.l.b.y.y.#.| h # > r r y r r r r r r r r r ",
"8 8 8 0 r r r r r r r > # i H X.:.N.e.V.b.,.V.c.| l # = 6 8 y y r r r r r r r r ",
"8 8 8 0 r r r r r r r , # u F | X.L x K 7.y.y.H h 2 X - r r y 7 r r r r r r r r ",
"8 8 8 0 r r r r 7 r r = # u H #.X.M 4 x ,.b.,.x 2 #   , a y r 7 r r r r r r r r ",
"8 8 8 0 r r r r r r r = O u R ,.4.L f V e.y.f.Z d 2 + = 8 7 y y r r r r r r r r ",
"0 0 r r r r r r r r r = X u H #.l.:.:.e.f.y.e.e.] d # = 6 r y r r r r r r r r r ",
"0 0 r r r r r r a r 6 = @ u V R =.:.4.e.l.b.l.l.e.f # = 6 r y r r r r r r r r r ",
"0 r r r r r r r r 8 6 1 = u m R ] ;.e.e.f.b.d.:.X.d # > 8 i r 8 r r r r r r r r ",
"r r r r r y y r r 3 1 6 f v A H K ( ] ( ` ] U N l = X , r i r 8 r r r r r r r r ",
"r y r 0 r y r 8 r 1 = f U ,.) Z V Z Z V Z K M g ; # # 1 6 8 y a r r r r r r r r ",
"0 y r 0 r y r 5 > 6 k V :.2.{ ) ~ / U U ( ] K M h d i 6 , 3 r a r r r r r r r r ",
"0 y y 0 r y 8 < X f P :.:.) ) e.e.e.e.e.f.f.e.:.' ( V a & > r r r r r r r r r r ",
"0 y y 0 r y 7 , o k / :.l.#.) #.y.e.l.l.f.e.l.C.e.4.K i # > r r r r r r r r r r ",
"r 0 0 r y r 6 3 o a [ ' ( ( H y.7.B.B.e.f.y.e.l.:.;.N r & = 5 r r r r r r r r r ",
"r 0 0 0 y r 8 5 , 3 f s d m A ) :.e.x.x.C.C.d.2.' M s 3 1 3 8 y r r r r r r r r ",
"r 0 0 0 r r r 8 8 > = X @ g H | | ;.:.:.e.l.y.2.( d $ > 8 8 8 a r r r r r r r r ",
"r r 0 0 r r r r r 3 1 # . p ) ,.R ] :.:.X.X.;.X.( i X = i a 8 r r r r r r r r r ",
"r r r r r r r r a 6 6 1 = g | #.) U ( / K ~ ] U U i # = r a r r r r r r r r r r ",
"r r r r r r r r a 3 , u l S c.:.e.M f u i m ` U Z s $ = 6 r r r r r r r r r r r ",
"0 r r r r r r r i , + d U e.C.#.] h = X @ f ( ] K i # = 8 i r r r r r r r r r r ",
"0 r r r r r r r r , o f ;.t.:.U l 6 ; & # i K ! / i X = a a r y r r r r r r r r ",
"r r r r r r r r 8 : % a ^ 3.^ c % 3 3 & & i B ^ C a * , 8 r 8 r r r r r r r r r ",
"r r r r r r r r r < < y b B b j , 7 7 , , i z n c r , 3 8 r 8 r r r r r r r r r ",
"r r r r r r r r y 0 7 r y a y r 8 8 8 8 8 r a r a r 8 8 8 8 r y r r r r r r r r ",
"r r r r r r r r r y y r 7 7 0 r r 8 8 a a r 8 8 8 r a r 8 r r r r r r r r r r r ",
"r r r r r r r r r 0 0 r r r r r r 8 8 a y 0 8 y 0 y a 8 8 r r 0 r r r r r r r r ",
"r r r r r r r r r 0 7 0 y y r 7 r r r r 0 8 r a y y r 0 8 r r 8 r r r r r r r r ",
"r r r r r r r r r 0 0 r y y 0 7 r r y r 0 r r r y 0 8 r r 8 8 r r r r r r r r r ",
"r r r r r r r r r r y r 0 0 0 r 8 r r 0 y a y 8 r 8 0 y r 8 8 a r r r r r r r r "
};
