/* XPM */
static char *_86cb0e6b22e433bf5083c6809caa7612EK6riBWuP3IJLON[] = {
/* columns rows colors chars-per-pixel */
"50 50 251 2 ",
"   c #534747",
".  c #4B4858",
"X  c #5B525A",
"o  c #514954",
"O  c #665449",
"+  c #685550",
"@  c #796D5D",
"#  c #70745F",
"$  c #697865",
"%  c #797562",
"&  c #7B7673",
"*  c #5B7E66",
"=  c #A6543F",
"-  c #9A5A4B",
";  c #8C5C54",
":  c #8F5450",
">  c #9B5C54",
",  c #935C5A",
"<  c #9B5B5A",
"1  c #975954",
"2  c #A35B4C",
"3  c #A45B54",
"4  c #B15D52",
"5  c #88655A",
"6  c #996559",
"7  c #A86349",
"8  c #A46556",
"9  c #B67058",
"0  c #975D64",
"q  c #8E5E65",
"w  c #8B6764",
"e  c #986868",
"r  c #8A7669",
"t  c #96756A",
"y  c #976B71",
"u  c #957776",
"i  c #837975",
"p  c #A46863",
"a  c #A57669",
"s  c #B67868",
"d  c #A37572",
"f  c #AF7A72",
"g  c #A47873",
"h  c #B27D73",
"j  c #A45F64",
"k  c #2CAE7D",
"l  c #2AA87D",
"z  c #33AD7D",
"x  c #3BA97D",
"c  c #2BB17E",
"v  c #24B37E",
"b  c #31B07F",
"n  c #2EAA78",
"m  c #4C9976",
"M  c #569475",
"N  c #5A896D",
"B  c #698870",
"V  c #46A37C",
"C  c #9B857B",
"Z  c #BA836A",
"A  c #A68A7A",
"S  c #B98676",
"D  c #B09278",
"F  c #C58C5D",
"G  c #C78769",
"H  c #C78A77",
"J  c #CA9679",
"K  c #D69977",
"L  c #D0966D",
"P  c #D8A779",
"I  c #DAA769",
"U  c #E2AB6E",
"Y  c #E8B077",
"T  c #1FB787",
"R  c #2CAE84",
"E  c #2AA782",
"W  c #32AD83",
"Q  c #3AAC85",
"!  c #34AD88",
"~  c #3CAB8A",
"^  c #3AA689",
"/  c #26B483",
"(  c #2DB183",
")  c #2AB587",
"_  c #32B184",
"`  c #37B18A",
"'  c #3CB192",
"]  c #45A989",
"[  c #48AB96",
"{  c #58AC9A",
"}  c #45B191",
"|  c #4CB399",
" . c #5AB89D",
".. c #5AB69D",
"X. c #50A989",
"o. c #5BB9A3",
"O. c #4DB3A5",
"+. c #62B8A4",
"@. c #78BDB4",
"#. c #78B8A9",
"$. c #60B39F",
"%. c #59C1A2",
"&. c #6DC4B4",
"*. c #7BCEBB",
"=. c #74C5B5",
"-. c #69C6B0",
";. c #7CCDC4",
":. c #79D7C1",
">. c #9B8987",
",. c #949290",
"<. c #A68888",
"1. c #B59888",
"2. c #A68B93",
"3. c #A8989A",
"4. c #B3989B",
"5. c #A7998B",
"6. c #BCA388",
"7. c #B5A59A",
"8. c #B497A1",
"9. c #8CB2AD",
"0. c #B8ACAE",
"q. c #B5AEB6",
"w. c #B9ACB7",
"e. c #B1AFB0",
"r. c #989DA0",
"t. c #C39587",
"y. c #D29A8D",
"u. c #C7AB97",
"i. c #C9B498",
"p. c #D7B89B",
"a. c #D7AA8E",
"s. c #E5AB8A",
"d. c #E6B888",
"f. c #E6B796",
"g. c #EEB796",
"h. c #C7B8A6",
"j. c #D6BBA4",
"k. c #C6BBBD",
"l. c #CCB0AE",
"z. c #E7BDA3",
"x. c #85C8B9",
"c. c #EDCE9C",
"v. c #EEC496",
"b. c #F3CC9C",
"n. c #F9C99D",
"m. c #F6C897",
"M. c #F2D19C",
"N. c #F0D397",
"B. c #F3C793",
"V. c #DBC3A9",
"C. c #DAC3A6",
"Z. c #DBC3B3",
"A. c #DED3BA",
"S. c #C3C2BE",
"D. c #EDCDA4",
"F. c #E4CBAB",
"G. c #EBCDAB",
"H. c #E4C5A6",
"J. c #F3CCA3",
"K. c #FACAA2",
"L. c #F3CDAB",
"P. c #F7C6A4",
"I. c #ECD2AC",
"U. c #E9D2A6",
"Y. c #F2D3A5",
"T. c #F2D3AB",
"R. c #FAD1AA",
"E. c #EBCBB5",
"W. c #F3CCB4",
"Q. c #E5D4B7",
"!. c #F5D6B6",
"~. c #FAE3BD",
"^. c #DCC099",
"/. c #BFBEC6",
"(. c #C5BBC4",
"). c #8ACCC5",
"_. c #9BCECC",
"`. c #88D3C7",
"'. c #95D4CC",
"]. c #9BD3CC",
"[. c #98DBD4",
"{. c #99CED2",
"}. c #AADBDB",
"|. c #B5D7DB",
" X c #B5CACB",
".X c #95E2D2",
"XX c #ADE3DE",
"oX c #A8DDE2",
"OX c #B4DBE2",
"+X c #A9E7E3",
"@X c #BDE4EA",
"#X c #B7E7E8",
"$X c #BDF2F2",
"%X c #C5C6C6",
"&X c #D9CBC5",
"*X c #DCD4C4",
"=X c #D1D3CC",
"-X c #C9C9D7",
";X c #D4CBD6",
":X c #C7D8D6",
">X c #D4D8D9",
",X c #CFD1CC",
"<X c #E2D5C3",
"1X c #F7DBC3",
"2X c #E1D5D7",
"3X c #FAE2C4",
"4X c #FEEDD5",
"5X c #FFF3DC",
"6X c #FEF7DA",
"7X c #F9F0CF",
"8X c #D2DAE4",
"9X c #D3DDEB",
"0X c #D8DAE4",
"qX c #CDDAEA",
"wX c #E4DAEA",
"eX c #E3DFF6",
"rX c #CAE5EC",
"tX c #C4EBED",
"yX c #C6E5EB",
"uX c #DBE3EB",
"iX c #D6E5E8",
"pX c #CBE5F1",
"aX c #CDECF4",
"sX c #C6ECF5",
"dX c #D4EBF4",
"fX c #DCEBF4",
"gX c #D3EDFA",
"hX c #DBEBFC",
"jX c #D7E5F6",
"kX c #C7F3F7",
"lX c #D4F4FE",
"zX c #DCF4FE",
"xX c #DCFBFF",
"cX c #D6F3F7",
"vX c #E4E5EE",
"bX c #FFF4E3",
"nX c #E2EDF6",
"mX c #E1ECFC",
"MX c #E7E8F9",
"NX c #E1F1F5",
"BX c #E3F3FE",
"VX c #EBF4FE",
"CX c #E4FBFF",
"ZX c #ECFCFF",
"AX c #EAF5F6",
"SX c #F2FFFF",
"DX c #F4FAFF",
"FX c #F9FAFF",
"GX c #F5F4FF",
"HX c #F5EBFC",
"JX c #D1E1DE",
/* pixels */
"z z c v v v v v R _ ! ^ ~ [ | [ } } } } } } } } } } } } } } } } O.[ [ [ | [ ~ _ ) / v v c _ Q Q W ( ",
"k k c c / ) ( ( _ ~ ~ } o.&.:.*.*.*.*.*.*.*.*.*.*.*.*.*.*.*.*.*.;.;.;.;.`.*.+.] l k v / ( _ W W W ( ",
"c k c ( ( ( ( W ! ~ ] { &.[.+X+X#X@X@X@X@X@X@X@X@X@X@X@X@X@X@X@X+X#X#X#XXX}.x.{ ] } ' _ ( ( ( R ( ( ",
"( c c ( ( R W ^ o.-.=.x.'.+X$XkXgXhXhXhXhXhXhXhXhXhXhXhXhXhXhXhXzXxXcXaXrXyX}.9.x.=.-.} R R ) / ( ( ",
") ( ( ( W ! ~ | `.[.+X#XOXyXdXfXSXSXSXSXSXSXSXSXSXSXSXSXSXSXSXZXCXCXCXCXdXrX:X|.|.}.).+.] W ( ( ( ( ",
") / ( ( ! } o.*.`.XXsXcXfXmXMXMXnXNXnXNXnXNXnXNXnXNXnXNXnXNXnXNXNXNXNXBXzXjXjXhXdXyX}.).+.} W R ( ( ",
"/ / ( ! ~ | *..XXX$XlXBXDXFXHXvX9X9X9X9X9X9X9X9X9X9X9X9X9X9X9X9X>X>XJXiXfXCXZXZXhXpX@X}.`.o.! E ( ( ",
"/ ( R ! ^ { `.#XsXaXgXmXGXHXwX(.w.q.q.q.q.q.q.q.q.q.q.q.q.q.q.q.0.0.e.q.:XBXZXmXBXgXyX#X[.-.' R ( ( ",
"/ R ! ^ [ { ).$XkXCXhX8XwXwX(.2.u d g d t d d d g g g g g g g g d d u >.w.0XuX9XjXzXlXkX[.o.' E _ ( ",
"/ R ! } +.@._.@XlXCXBX8X;Xk.3.u 6 > > > > > > 1 > > > > > > > > 3 j 0 y 2.w.-X8XmXZXxXsX[.=.o.' _ ( ",
") R ! ..*.].}.yXzXZXVX>Xw.2.u y < > > > < > < > < > < > < > < > 1 < 1 0 y >.0.;XwXDXZXpX|.[.`.+.~ ( ",
") R ! o.'.#XyXdXBXVX0X(.3.u w 5 6 a h f f f h h f f f f f f f f f s p 1 q y 2.l.;XHXVXfXrX@X}.@.~ ( ",
") R ! o.'.@XgXBXnX0X(.2.u w ; ; t u.F.V.j.V.V.C.V.V.V.V.V.V.V.V.H.j.S 6 ; w y <.l.;XvXVXBXpXOX9.] ( ",
") ) ! o.'.tXzXDXvX;X8.i 5 5 6 p 6.A.6X6X4X6X5X7X6X6X6X6X6X6X6X6X4X1Xu.a 6 , w e 2.k.0XZXCXaX|.@.] ( ",
"/ ( ~ o.'.yXBXFXMX;X3.r ; , s y.Z.1XbXbXbXbXbX5XbXbXbXbXbXbXbX5X6X7XQ.u.S 8 , w <.k.iXCXxX$XoX@.~ ( ",
"/ ( ~ o.].tXBXFXMX;X4.y ; > H W.5X5X5X5X5X5X5X5X5X5X5X5X5X5X5X5X4X6X5X1Xa.p : 5 <.S.iXxXxXkX+X=.~ ( ",
"c ( Q  .'.tXzXZXnX;X8.y 1 > H !.4X3X3X!.~.~.~.~.~.~.~.~.3X3X3X3X1X3X4X4Xa.p 1 q >.%XuXCXCXaX}.@.~ ( ",
"c b Q  .'.tXzXZXfX;X8.y 1 > D !.3X!.T.I.T.Y.Y.Y.Y.Y.T.T.T.I.I.W.!.1X3X1Xa.8 < q >.(.uXZXZXdX|.@.~ ( ",
"c ( Q  .'.tXzXZXfX;X4.y < > S F.!.!.G.G.D.D.D.D.D.D.J.J.J.J.J.G.L.!.!.!.y.8 > , <.%XuXCXCXaX}.@.~ ( ",
"c ( Q  .'.tXzXZXfX;X4.y > > Z f.!.W.G.L.L.T.L.J.J.J.K.K.K.K.K.K.J.J.J.J.K 8 > , <.(.uXCXCXsX}.&.~ ( ",
"( ( Q  .'.tXzXZXfX;X4.y > > Z p.L.G.D.J.L.J.J.J.J.J.n.n.n.K.K.K.b.b.b.v.K 7 2 1 <.k.uXCXCXkXoX&.~ _ ",
"( ( Q  .'.tXzXZXfX;X4.e > 2 Z p.J.J.J.J.J.b.b.b.b.b.b.n.n.n.n.n.b.M.b.v.L 7 2 > <.k.uXCXxXkXoX&.~ ( ",
"/ ( Q  .].tXzXZXuX;X4.e > 2 Z f.J.M.M.M.b.b.b.c.b.b.J.J.J.J.J.J.D.Y.Y.v.L 7 3 < <.k.uXCXCXkX}.&.~ _ ",
"/ ( Q  .].tXzXZXiX>X4.e - 2 Z f.m.b.b.b.b.D.D.D.D.D.G.G.G.G.G.G.F.I.I.H.H 3 3 < <.(.uXCXCXaX}.&.~ _ ",
"/ ( ~ o.].tXBXZXfX:X4.t : - G g.n.v.b.Y.D.^.p.i.i.i.h.h.h.h.h.i.C.i.C.H.H 8 3 0 <.(.uXZXCXaX}.@.~ _ ",
"/ ( ~  ._.rXBXZXdX:X4.t 1 2 Z s.R.J.J.L.p.D r r r i & & & & & i % r 7.V.t.p < 0 2.(.vXVXZXdX|.=.~ _ ",
") ( ~ .._.rXzXZXcX:X3.y 1 8 Z f.P.L.L.W.j.C O     o o . . . . .   O 5.Z.t.e 0 q 2.(.uXVXVXjX|.@.~ ( ",
") ( ~ .._.rXBXZXcX:X3.r ; > S f.P.L.W.W.j.u     o . . . . . . .   O 5.Z.1.e 0 q 2./.uXVXVXjX|.@.~ ( ",
"/ ( ~ $._.aXBXZXgX|.r.u , > Z f.P.R.G.E.j.C + + X X X X X X X X O + 1.Z.t.e e y 3. XiXCXZXdX|.@.~ ( ",
"/ ( ~ +._.pXBXZXaX|.q.8.f 6 h f.J.Y.D.G.H.6.C >.>.>.>.>.>.>.>.C A A i.V.t.e d 4.q.:XdXCXCXgXOX@.~ ( ",
"/ R ~ +._.pXhXCXlXrX>X&Xt.p h f.m.B.c.Y.D.H.C.C.V.V.C.j.j.C.C.H.H.H.F.H.t.p S k.%XiXaXxXxXgXoX@.~ ( ",
"/ R ~ o.].yXgXzXlXdXuX2Xu.e g f.J.b.M.M.c.D.I.G.F.p.6.D D 6.p.D.D.T.T.H.t.t A &X>XfXdXlXzXsX}.&.~ ( ",
"/ l ! o.`.+XsXpXzXVXvX2X7.r A p.E.W.G.D.c.c.D.I.F.1.5 O O r u.I.Y.b.R.H.1.r 5.,XuXVXVX9XpXsX[.-.W ( ",
"c k W | &.`.oXyXBXDXMX>Xw.5.7.Z.E.E.G.D.c.c.c.D.F.u.C r t A i.I.D.D.T.F.i.5.e.:XjXDXVXjXOX[.*.o.W ( ",
"c c _ ' | @.{.@XzXSXmX8X-X%X,X*XE.L.J.M.M.M.M.Y.G.j.i.u.i.p.H.I.Q.A.A.*X,X X XqXgXCXxXsX[.&.| ' W ( ",
"k b _ ! ^ o.).@XgXBXhXjXjXuXuX>X*XQ.Q.I.U.U.U.Q.Q.Q.A.*X<XA.A.Q.*X=X=X>XiXiXdXaXgXlXlX$X[.o.~ _ W ( ",
"z z k R ! | `.#XyXgXgXzXCXxXhXqX:X:X:X:X:X:X:X:X:X:X:X:X:X:X:X:X>X8X8X9XjXBXBXBXzXgX$X+X.X%.! W W ( ",
"z z c ( _ | *.[.OXaXgXCXZXzXlXgXpXrXrXrXpXpXrXrXrXrXrXrXrXrXpXpXjXjXjXjXhXBXVXVXmXaXXX.X:.%.Q W W ( ",
"z b ( ( W `  .&.'.#XrXjXhXgXlXlXCXAXBXBXVXVXVXVXVXAXAXAXAXVXVXVXMXMXBXBXmXjXeXeX9XyX].=.%.} Q Q W ( ",
"c c _ _ l l ! [ =.}.:X-X-XqXgXxXZXSXDXDXDXDXDXDXDXDXFXFXFXFXFXFXFXDXZXZXmX9X;X-X:X|.x. .~ W W W W ( ",
"/ / W W W W W Q ..#.r.r.w.;XiXrXfXfXhXhXhXmXhXjXfXfXvXvXvXmXmXmXfXjXfXfX8X>X%Xr.r.#. .} ( / R R ( ( ",
"T / W W W W ( _ ] X.B i 3.k.,X>X>X>X8X8X9X9X8X8X>X>X>X>X>X>X0X0XiX>X>X>X,X%Xe.,.B M ] W / / ) R ( ( ",
"T / W W W W ( c x m * # u 4.h.Z.*X*X*X*X*X*X*X*X*X*XA.<X<XQ.<X<X<X*X*XA.l.4.C $ $ M V Q ( ( R R ( ( ",
"/ / R W W R ( ( z V N $ @ t 1.j.F.G.G.I.G.I.G.F.G.H.F.G.G.G.D.G.F.E.W.z.t.t w # B M X.Q _ ( R R ( ( ",
"( ( ( ( ( ( ( ( z x m N # @ a t.a.d.d.d.d.d.d.a.P J J a.d.d.d.d.f.f.s.y.s > 5 @ $ M V x Q W W W W ( ",
"W W ( ( ( ( ( W _ x V M B @ < 9 s L Y U I U I F 9 7 8 Z K Y U U P P G 9 4 2 5 # N m V x z W _ ( ( ( ",
"x z c / / / W W ` ` z V B % 1 3 9 K d.Y Y Y U F 7 - - s K s.Y Y d.P 9 = 2 8 5 $ N V Q _ k / / / ( ( ",
"x z c / / ( W ! E _ _ x M $ ; 3 s s.n.m.B.m.d.L 8 - 2 G s.g.B.B.B.g.G 2 - 5 % N m V Q _ ( / / v ( ( ",
"W W ( ( ( ( W W R R k x M B 5 ; s J s.g.n.K.g.J 8 - - S f.P.n.d.f.J s 6 5 % N m x W W ( / / ( ( ( ( ",
"W W ( ( c c W W ( ( ( x m B % 5 6 s H s.P.R.z.J 6 - - S f.K.J.f.J s 8 ; @ B m ] W W _ ( ( ( ( _ W ( "
};
