/* XPM */
static char *e2d0cb70be3e49c1d9a648ba205eecb3l8imyTCCJU7VtMgc[] = {
/* columns rows colors chars-per-pixel */
"50 50 251 2 ",
"   c #544C49",
".  c #4A4858",
"X  c #574E55",
"o  c #59535A",
"O  c #4F494A",
"+  c #6B5549",
"@  c #7A6B5A",
"#  c #726C5E",
"$  c #565462",
"%  c #677D65",
"&  c #767665",
"*  c #7D6D63",
"=  c #5F7B65",
"-  c #9A594D",
";  c #985749",
":  c #8E5A57",
">  c #955B53",
",  c #9B5B54",
"<  c #9A5B5A",
"1  c #975756",
"2  c #8B5D4E",
"3  c #A45B56",
"4  c #A35E4E",
"5  c #89665A",
"6  c #94615D",
"7  c #996458",
"8  c #A5684D",
"9  c #A56353",
"0  c #A86658",
"q  c #B37858",
"w  c #8C6B66",
"e  c #976867",
"r  c #8A7466",
"t  c #99756B",
"y  c #857573",
"u  c #9A7578",
"i  c #996F71",
"p  c #A97468",
"a  c #B87B66",
"s  c #A37872",
"d  c #AC7B72",
"f  c #A47674",
"g  c #AD6A62",
"h  c #A15E64",
"j  c #C16E63",
"k  c #2CAD7E",
"l  c #26AD7E",
"z  c #33AB7D",
"x  c #39A87D",
"c  c #2AB17F",
"v  c #24B37E",
"b  c #31B17F",
"n  c #4B9A79",
"m  c #579476",
"M  c #598A6E",
"N  c #65846C",
"B  c #698E79",
"V  c #44A47D",
"C  c #58A27F",
"Z  c #968577",
"A  c #BA8169",
"S  c #A78978",
"D  c #BA8876",
"F  c #AF8E79",
"G  c #C28367",
"H  c #C98C78",
"J  c #CA957A",
"K  c #D49875",
"L  c #DCA872",
"P  c #E3AB77",
"I  c #EBB27B",
"U  c #E0AF6D",
"Y  c #E5937B",
"T  c #1DB685",
"R  c #2DAE83",
"E  c #2AAE88",
"W  c #33AD83",
"Q  c #3BAC83",
"!  c #32AD89",
"~  c #3BAC8A",
"^  c #38A585",
"/  c #25B483",
"(  c #2DB183",
")  c #28B488",
"_  c #33B184",
"`  c #32B28A",
"'  c #39B48B",
"]  c #3BB192",
"[  c #45AA87",
"{  c #4BAA94",
"}  c #57A69B",
"|  c #47B191",
" . c #4AB898",
".. c #57B79C",
"X. c #47B088",
"o. c #63AF94",
"O. c #55BBA2",
"+. c #59BDA5",
"@. c #63BBA5",
"#. c #73BEAD",
"$. c #71B5AD",
"%. c #629FA0",
"&. c #59C3A8",
"*. c #4DC2A2",
"=. c #67C3AC",
"-. c #72C2AD",
";. c #6DC9B5",
":. c #7CCDBB",
">. c #78C8B5",
",. c #77D2BE",
"<. c #7BD7C4",
"1. c #998988",
"2. c #959592",
"3. c #A38889",
"4. c #B79986",
"5. c #AD9B9B",
"6. c #A59595",
"7. c #B29A9A",
"8. c #AA8E8A",
"9. c #93A39F",
"0. c #ADA49B",
"q. c #83B2A2",
"w. c #B2A3A5",
"e. c #B5AEB6",
"r. c #BCACB3",
"t. c #BAB4BA",
"y. c #AAA9A7",
"u. c #D59C85",
"i. c #CB978A",
"p. c #C7A68D",
"a. c #D6A792",
"s. c #CDB299",
"d. c #D6B79B",
"f. c #D0AA8E",
"g. c #E6B88A",
"h. c #E5B796",
"j. c #F9BD95",
"k. c #E8AC8A",
"l. c #CAB9A6",
"z. c #D2B6A3",
"x. c #D7BCA7",
"c. c #C9B5BA",
"v. c #CAACAF",
"b. c #E8BEA2",
"n. c #EB9983",
"m. c #82C7BB",
"M. c #90CEBF",
"N. c #B2C9BF",
"B. c #EBC69C",
"V. c #F3CC9C",
"C. c #F7C699",
"Z. c #F0C993",
"A. c #D9C3A9",
"S. c #D9C3A6",
"D. c #DBD3BD",
"F. c #DED6B9",
"G. c #D5C7B8",
"H. c #EECDA5",
"J. c #E5CBAC",
"K. c #EDCDAB",
"L. c #E7C5AA",
"P. c #F3CCA3",
"I. c #F3CDAB",
"U. c #F9CCA7",
"Y. c #EBD2AB",
"T. c #EBD1A7",
"R. c #F5D1A7",
"E. c #F4D1AA",
"W. c #E8CAB4",
"Q. c #F2CEB5",
"!. c #E3D2B4",
"~. c #E7D5B7",
"^. c #FFDEBB",
"/. c #F5D6B9",
"(. c #FAE0BD",
"). c #BDBDC2",
"_. c #C5BCC4",
"`. c #D7BEC1",
"'. c #87C8C5",
"]. c #99CEC7",
"[. c #88D5C7",
"{. c #9AD1CB",
"}. c #93D6CB",
"|. c #99DBD5",
" X c #ADDCD9",
".X c #A6D7D6",
"XX c #B6D9DB",
"oX c #B4CDCD",
"OX c #98E3D7",
"+X c #8AE3D1",
"@X c #A6E3DC",
"#X c #B5DBE3",
"$X c #A8E9E3",
"%X c #B3E3E2",
"&X c #BDE4E9",
"*X c #B8EAEA",
"=X c #BAF1F1",
"-X c #C5C1C3",
";X c #C8C5C5",
":X c #D5CAC9",
">X c #C8D4CC",
",X c #DDD4C3",
"<X c #D9D5CA",
"1X c #CACDD4",
"2X c #C7D8D7",
"3X c #D3D5DC",
"4X c #D5D8DA",
"5X c #D8CCD7",
"6X c #FDDDC2",
"7X c #E0D3D6",
"8X c #FBE8C9",
"9X c #FFEEDA",
"0X c #FFF4DA",
"qX c #FEF5D6",
"wX c #C9DBE7",
"eX c #D4DBE3",
"rX c #D4DDEB",
"tX c #DADAE7",
"yX c #D6DDF2",
"uX c #E2DDE8",
"iX c #E4DDF6",
"pX c #C2E3EC",
"aX c #CBE4EC",
"sX c #C9E7EA",
"dX c #D4E3ED",
"fX c #DAE3EB",
"gX c #D6E5E8",
"hX c #CBE9F4",
"jX c #D4E4F3",
"kX c #D2EBF4",
"lX c #DCECF5",
"zX c #DCEBFA",
"xX c #D9E6F9",
"cX c #C8F4F6",
"vX c #D4F4FD",
"bX c #DCF3FE",
"nX c #D7F3F7",
"mX c #FFF4E2",
"MX c #E2EEF5",
"NX c #E4EBFD",
"BX c #E9E9FC",
"VX c #E4F4FE",
"CX c #EAF4FE",
"ZX c #E5FBFF",
"AX c #EBFBFF",
"SX c #E6F2F7",
"DX c #F3F4FE",
"FX c #F3FFFF",
"GX c #F3FAFF",
"HX c #FBF7FF",
"JX c #EDE8F2",
/* pixels */
"T / ) ( z x x z b c R ~ { } %.} { | | | | | | | | | | | | | | { } } } { ~ ' ( c / / ( c k k R ( ( ( ",
"/ / / ( W z x x z z ' &.,.'.'.'.m.:.:.:.:.:.:.:.:.:.:.:.:.:.:.:.'.'.'.<.;. .' W k k ( ( ( ( ( ( ( ( ",
") / l ( _ z Q X.[ [ ..,.OX@X X%X&X&XpX&XpX&XpX&XpX&XpX&XpX&XpX&X%X$X$X$X+X=.{ { | [ Q W ( ( ( ( ( ( ",
"W k R ( ( W | @.>.>.:.|.$X=XcXbXzXzXzXzXzXzXzXzXzXzXzXzXzXzXzXzXbXcXcX=X@X[.m.m.>.@.[ ^ R ( ( ( ( ( ",
"Q W R ( ( ] @.m.@X@X%X%X&XnXZXAXFXFXFXFXFXFXFXFXFXFXFXFXFXFXFXFXAXZXvXcX*X%X#XXX.Xm...^ R ( ( k ( ( ",
"[ Q W ` ] &.[..X&XhXnXkXkXbXCXCXMXMXMXMXMXMXMXMXMXMXMXMXMXMXMXMXJXSXbXnXcXvXxXaXwX.X>.O.] _ k k ( ( ",
"[ Q W ` *.<.@X&XkXVXAXAXCXMXuX5XtXrXrXrXrXrXrXrXrXrXrXrXrXrXrXtX7X7XtXSXAXAXCXNXyX&X|.;. ._ k W W ( ",
"x Q W ~ &.OX=XpXzXzXVXAXMX5Xc.v.r.e.e.e.e.e.e.e.e.e.e.e.e.e.e.r.v.v._.tXCXCXBXBXxXhX$X<. .^ z ' W ( ",
"k _ W ^ @.|.hXbXCXzXdXeX3Xr.u f s s s t t t s s s s s s s s s f d u 3._.uXtXiXBXCXvX*X[...^ x Q W ( ",
"k _ | O.m..XhXCXCXNXeX).r.8.e < , , , , > > , , , , , , , , , , < e u 7.c.1XiXNXAXvX*X}.;...[ Q W ( ",
"/ ` ..[..X#XjXAXGXMX1Xy.1.i : 1 1 , < , < , , , < , < , < , < < 1 < e u 3.t.tXNXAXvX*X@X}.>...^ W ( ",
") ` =.OXpXaXlXCXBX3Xt.3.i e > e p d d d d d d d d d d d d d d d p e e : i 5._.eXZXnXsX&X@X[.+.^ W ( ",
"E ~ ;.@XsXlXSXlX3Xw.3.i : > 7 S z.x.S.A.A.A.A.A.A.A.A.A.A.A.A.A.f.p 1 : e u 6.t.gXlXSXnX&X}.+.! W ( ",
"! ] #..XaXCXAXgX-X1.e < 1 0 A p.8XqXqX0X0X0X0X0X0X0X0X0X0X0X0X0X!.F p 3 < e y 0.3XfXDXVXsX}.+.! W ( ",
"] ~ #. XdXAXAXgX-X1.h 3 3 H d.~.9X0XmXmXmXmXmXmXmXmXmXmXmXmXmX0X8XS.a.a , < w 5.:XuXHXDXsX}.+.! R ( ",
"] ^ #.XXkXAXAXgX;X3.h 3 g a./.qX9X9XmX0X9X9X9X0X0X0X0X0X0X0X0X0XqX8X/.H - < e 7.:XJXHXDXdX{.+.E R ( ",
"W [ #. XkXZXZXgX-X3.h < g a.8X8X6X6X6X6X^.^.^.^.^.^.^.^.^.^.^.(.(.8X^.i.3 1 e 5.1XMXGXCXaX{.O.E R ( ",
"W ~ #. XkXZXZXfX-X3.e , 0 a.6X8XQ.I.U.I.U.R.U.R.R.R.R.R.R.R.R.E./.8XQ.H 7 1 e 5.1XMXGXZXaX{.O.! ( ( ",
"R ~ #. XkXZXZXfX-X3.e , 0 i././.H.H.H.H.H.H.H.H.H.H.H.H.H.H.K.K.Y./.L.D 7 1 i 5.1XMXGXZXaX{.O.! ( ( ",
"R ~ #. XkXZXZXfX-X3.6 , 0 i.J.Y.T.H.P.H.P.T.P.H.I.K.K.K.K.K.K.K.T.E.h.A 4 1 e 5.1XMXGXVXaX{.O.! ( ( ",
"R ~ #. XkXZXAXfX-X3.< , 9 J L.T.V.V.V.V.V.V.H.H.P.P.K.I.K.K.I.K.K.I.h.a 4 > e 5.1XMXGXZXaX{.O.! ( ( ",
"R ~ #. XkXCXAXfX-X3.< , 0 J L.H.V.V.V.V.V.V.V.V.P.P.P.P.P.P.P.P.H.P.h.a 4 > e 5.1XMXGXZXaX{.O.! ( ( ",
"( ~ #. XkXAXAXfX-X1.6 , 0 H B.P.V.V.V.V.V.V.P.P.P.P.P.P.P.P.P.P.P.P.h.a 4 - e 5.1XlXAXZXaX{.O.! ( ( ",
"( ~ -. XkXCXAXfX-X1.6 , 0 H B.P.H.H.H.H.H.K.K.K.K.P.P.P.P.P.P.V.P.P.g.A 9 - e w.1XlXAXZXaX{.O.! W ( ",
"( ~ -. XkXCXCXfX_.6.6 > 0 J B.B.d.s.s.z.z.z.z.z.z.x.s.f.d.H.P.V.V.U.g.a 9 , w 5.2XlXAXZXaX].O.W W ( ",
"( ~ -. XkXCXCXfX-X3.6 > 9 H h.p.t y y y y y y y * r r r 4.d.T.H.B.P.k.a 9 > w 5.2XnXAXVXaX{.O.W W ( ",
"/ ~ -. XzXCXCXdX-X1.5 > 9 J h.F X . . . . . . . O   O + Z l.!.Y.H.P.h.A 9 > w 0.2XnXZXVXaX{.+.W W ( ",
") _ -. XzXGXAXdXoX1.w 6 7 i.h.F o . . . . . . . . O O   Z l.~.!.Y.P.h.A , : w 5.2XnXAXZXaX{...W W ( ",
"/ _ -. XzXCXCXjXoX2.w e , J b.4.# o X o $ $ $ o o o   + Z l.!.Y.Y.H.h.a > 6 u y.XXnXAXZXsX]...W W ( ",
"/ _ -. XjXCXCXjX2Xe.8.s 7 H L.s.3.1.1.1.1.1.1.1.1.1.Z S p.L.K.H.K.H.h.A 7 d 7.).XXvXAXVXsX]...W W ( ",
"v _ -. XjXNXCXxXrX3Xc.8.p H K.L.J.J.J.J.x.z.x.x.x.W.L.b.P.P.C.V.E.I.h.A g i.`.3XwXvXVXzXsX]...W W ( ",
"k ~ -. XaXNXCXzXrXuX:X7.t F L.I.H.K.K.x.p.F 4.4.z.L.K.I.U.U.C.V.H.K.d.S e v.7XtXhXvXbXkXpX{.+.W W ( ",
"Q | =.OX*XwXyXDXDXtX;X0.r F K.I.L./.W.p.r + + @ 4.A./.Q.I.U.U.P.T.~.d.S u w.3XzXZXvXhX&X%X}.&.W W ( ",
"Q [ ..,.|.#XxXDXHXuX1Xe.2.0.~.W.W.Q.W.s.S r r t s.A.W.K.K.P.P.H.!.~.G.7.6.t.eXbXZXvXpX X}.-. .W W ( ",
"W _ '  .;.|.hXZXGXlXwXoXN.>X<XD.J.E.K.L.d.s.s.s.S.K.K.H.P.V.C.R.!.<X<X;X_.1XdXzXZXvX&X{.#.{ ~ ( ( ( ",
"( _ R ! +.OX=XvXbXzXjXdXsXsX2X<XD.!.~.~.~.D.~.~.F.!.!.!.~.Y.T.~.:X5X4XtXfXjXkXkXbXvX*X]...^ R ` ( ( ",
"_ _ R R &.+X*XpXjXNXVXZXZXjXwXwX2X2X2X2X2X2X2X2X2X2X2X2X4X2X>X4X3XeXrXzXZXZXbXzXkXhX%X[...W l ) ( ( ",
"z W R ` *.<.OXXXjXNXDXDXCXzXjXxXhXhXhXhXpXpXpXpXpXsXsXaXkXjXaXjXxXjXxXbXZXZXZXbXpX%X|.;. .( l / ( ( ",
"W W _ _ ' O.:.{.wXtXiXiXNXNXVXVXVXCXCXVXCXVXVXVXSXCXCXMXCXCXBXCXVXVXbXbXzXxXjXdXXX{.=. .` ) ( R ( ( ",
"~ W ( ) l W ..M.XX1X1X5XtXNXAXZXFXGXGXGXGXFXGXGXGXFXFXDXDXHXHXHXGXAXZXkXwX1X1X1XoXm.| R / ) ` W W ( ",
"R R ) / / _ | o.q.9.9.t.tXfXaXnXlXNXNXzXzXlXlXlXlXjXzXNXzXNXNXlXlXlXgXeX3Xe.6.9.q.o.' / / ) Q ^ W ( ",
"R ` ) / / / _ X.m B 1.w.:X<X>X2X4X4X4X4X4X4XeXeXeX3XeXeX3XeXtX3X>X4X4X<Xc.6.y B o.[ ( T T E ~ ^ W ( ",
"R E ` ) / l z V m = & Z 7.l.,X<XD.D.,X,X,X,X,X,X<X,X,X,XD.D.,XD.D.,XG.l.8.y & N n x v T / ` ~ ~ W ( ",
"W W ` _ ( R z V C % # w t i.L.W.J.T.Y.T.Y.J.J.J.J.L.J.Y.K.H.T.K.Y.W.s.F r * % M n z / / ) E ~ ~ W ( ",
"W Q ~ W W W Q [ m % @ 6 7 a i.u.g.g.g.g.g.g.f.J J J f.h.g.g.g.g.a.p.D t 5 & N n x W ( ) ) R W W W ( ",
"_ W W W W W W [ n = * 6 - 3 g G L U P P L K A 8 8 q G L L U U P K a 0 7 @ % m n z R ( ( R R R ( ( ( ",
"/ c k R R ( ( W V m & 5 > ; 0 G P P I k.k.Y a ; ; 8 G P k.I I I Y j - 2 # N C [ z R W W W R / / ( ( ",
"v v c ( ( ( ) ( x n N & w > 9 G j.C.C.C.C.k.G - - 0 H h.C.C.C.j.n.j , 5 # M V z W W W W _ ( / v ( ( ",
") ( ( _ _ ( ( ( k x n M & 5 7 a u.k.V.P.V.h.A 3 - 9 J B.V.U.C.k.H a 7 @ N m x _ W W W ( ( ( ( ( ( ( ",
") ( W W W b c c ( W V m N @ 7 g a J B.V.P.h.A , , 0 J B.B.B.h.J a 0 5 & B n Q R W W b ( / ( W W W ( "
};
