/* XPM */
static char *_c66444ce3474286890468b5e5ca3802QZYqHyi0VxVyGCLX[] = {
/* columns rows colors chars-per-pixel */
"40 40 148 2 ",
"   c #322435",
".  c #3A2536",
"X  c #3A2538",
"o  c #3D2C3D",
"O  c #3B303D",
"+  c #412F3F",
"@  c #3C2F40",
"#  c #3B3342",
"$  c #402F41",
"%  c #443445",
"&  c #483346",
"*  c #443946",
"=  c #463748",
"-  c #4C374A",
";  c #473A4A",
":  c #4A3D4C",
">  c #4C3F50",
",  c #513C50",
"<  c #4C414E",
"1  c #4E4352",
"2  c #524554",
"3  c #5A4157",
"4  c #534A56",
"5  c #584A57",
"6  c #564758",
"7  c #5B4458",
"8  c #564C5A",
"9  c #5A4D5C",
"0  c #56545E",
"q  c #5A555E",
"w  c #57585D",
"e  c #59595E",
"r  c #604C5E",
"t  c #575660",
"y  c #5B5661",
"u  c #565960",
"i  c #5B5962",
"p  c #624E61",
"a  c #625463",
"s  c #6A5466",
"d  c #625965",
"f  c #645768",
"g  c #6A5669",
"h  c #645B6A",
"j  c #6C5B6C",
"k  c #725C6E",
"l  c #6E5D70",
"z  c #715E71",
"x  c #6C616F",
"c  c #736373",
"v  c #786076",
"b  c #746A75",
"n  c #7B667A",
"m  c #766B79",
"M  c #7C697C",
"N  c #80697D",
"B  c #836E82",
"V  c #847384",
"C  c #8A7486",
"Z  c #8A768A",
"A  c #8D7B8D",
"S  c #917A8E",
"D  c #8D7F90",
"F  c #937E91",
"G  c #997E93",
"H  c #8D818D",
"J  c #978295",
"K  c #968396",
"L  c #948294",
"P  c #988195",
"I  c #988396",
"U  c #9A8397",
"Y  c #998497",
"T  c #998296",
"R  c #978498",
"E  c #9A8598",
"W  c #9B8498",
"Q  c #9B8699",
"!  c #9D8499",
"~  c #9D879A",
"^  c #9B8699",
"/  c #99889B",
"(  c #9B889C",
")  c #9C899D",
"_  c #9F899C",
"`  c #9F8A9D",
"'  c #9E8B9F",
"]  c #9E8A9D",
"[  c #9A909B",
"{  c #A0879C",
"}  c #A1869B",
"|  c #A18A9E",
" . c #A28B9F",
".. c #A08B9E",
"X. c #9D8FA0",
"o. c #9E92A0",
"O. c #A48BA1",
"+. c #A18EA2",
"@. c #A28FA3",
"#. c #A48DA1",
"$. c #A58DA3",
"%. c #A68FA3",
"&. c #A38EA1",
"*. c #A88FA4",
"=. c #A390A3",
"-. c #A390A4",
";. c #A790A4",
":. c #A691A4",
">. c #A492A4",
",. c #A890A6",
"<. c #A990A6",
"1. c #A893A6",
"2. c #A892A7",
"3. c #A993A6",
"4. c #A993A8",
"5. c #AA92A8",
"6. c #AC93A9",
"7. c #A895A9",
"8. c #AA94A9",
"9. c #AB96A9",
"0. c #A897AA",
"q. c #AC94AA",
"w. c #AD94AA",
"e. c #AE95AB",
"r. c #AD96AA",
"t. c #AF96AC",
"y. c #AF97AD",
"u. c #AB96A9",
"i. c #A799AA",
"p. c #AC99AD",
"a. c #AF98AC",
"s. c #AE99AC",
"d. c #AF99AE",
"f. c #AD9AAE",
"g. c #AC9AAC",
"h. c #B19AAE",
"j. c #B09AAF",
"k. c #B29BAF",
"l. c #B19AAE",
"z. c #B29AB0",
"x. c #B09DB1",
"c. c #B39CB0",
"v. c #B39DB2",
"b. c #B59CB1",
"n. c #B49DB1",
"m. c #B79FB5",
"M. c #B09FB1",
"N. c #B1A3B0",
/* pixels */
"e e e e y y y y y y y y y y y y i i i i y y y y u u w e e e e w y y y y y y y y ",
"e e e e y y y y y y y y y y y y y y t y y t 0 0 y 0 w w e e e e y y y y y y y y ",
"e e e e y y y y y y y y y y y y i i i i i i i i y e e y e e e e y y y y y y y y ",
"e e e e y y y y y y y y y i i i y y y y y y e e y y y y e e e e y y y y y y y y ",
"e e e e y y y y y y y y y y y y a y y y y y y y q y d i y e e e y y y y y y y y ",
"e e e e y y y y y y y y y q 9 8 y y p p y y y y 8 0 y a y e e e y y y y y y y y ",
"q q e e y y y y y y y y 0 4 1 : ; ; ; ; ; ; ; ; < 4 9 y y e y y y y y y y y y y ",
"q q e e y y y y y y y y 8 2 ; % % % % % % % % % % < 5 q a y y i y y y y y y y y ",
"q q e e y y y y y i y 4 : 5 j z l c z j z z z v k 9 = 4 a 0 y 0 y y y y y y y y ",
"q q q e y y y y y y 0 < ; a Z K R / ` ( ! E E Y C g % < q 0 i e y y y y y y y y ",
"q q q e y y y y y y 0 ; o a L ;.@.-.8.5.#.<.;.! I j + ; q y d y y y y y y y y y ",
"q q q e y y y y y y y < o r F | x.d.j.d.e.z.b.*.I g + : a y i 0 y y y y y y y y ",
"q q q e y y y y y y d 1 o g | ;.d.8.<.<.5.e.y.<.I j % > y y y 0 y y y y y y y y ",
"q q q e y y y y y 0 y < o k *.#.@.8.d.x.m.6.O.e.#.v % > 0 0 y i y y y y y y y y ",
"q q q e y y y y i 0 y : o j { S j Z ( <.5.B k Z #.z % : y 0 i i y y y y y y y y ",
"q q q e y y y y i 0 y 2 + k ! B , B ` j.y.v 3 n ` g o : y y i t y y y y y y y y ",
"e e y y t t y y i 9 9 1 % j E ` V K <.d.;.E F S ` c o : h 0 t i y y y y y y y y ",
"0 y y y t t y y y y a 1 % g ` 8.j.x.b.j.d.e.e.d.=.c o : f 0 y y y y y y y y y y ",
"y y y e y y y i y d f > o p F #.j.d.d.d.j.j.3.#.L a o : 9 y i y y y y y y y y y ",
"y y y y y y y y d 9 8 2 , g Z K @.#.;.e.j.e...I V g 2 2 2 0 f 0 y y y y y y y y ",
"i y e e y y y y y < : a M Z G I E K K L K I Y Y L Z B f : 6 y 9 y y y y y y y y ",
"i y e e y y 0 9 9 < 2 M | #.} ! A A A Z Z A S F ` ' ` n 6 2 8 0 y y y y y y y y ",
"y y q y y y 9 6 : q n K 6.<.} ! / ) X.=.@.@.` ~ ~ ` 1.L m y ; 8 y y y y y y y y ",
"y y q y y y 8 4 O j E 8.e.<.O.@.d.i.i.i.d.d.8.<.` ` f.x.' j @ < y y y y y y y y ",
"q y y q y y 9 1 o j 8.<.! { T 8.i.g.g.i.d.f.e.#.;.| ` i.=.j = < y y y y y y y y ",
"y y y q y y 0 4 * y A F S I G O.;.i.g.g.d.i.<...L F A L D h : < y y y y y y y y ",
"y y y q y i y 8 8 1 9 9 r n G | ' 1.d.d.8.<.@.` F M p 9 y 8 2 0 y y y y y y y y ",
"y y y e y i y 0 y < ; o X a F | ! @.8.i.3.@.` ~ E g o   % 1 9 d y y y y y y y y ",
"y y e y i y y y 0 8 6 = o g ! ! ~ ` ....| ` | @.` g $ % 2 0 y y y y y y y y y y ",
"y e e y y y y i 0 y 9 2 6 M <.#...L V V C F ` <.;.M 9 8 9 y y 0 y y y y y y y y ",
"y 0 t y i t y i i 9 : 9 M K d.3.| B p 7 s N I 3.8.E V y ; 1 i y y y y y y y y y ",
"e 0 y i i t y y e 1 O x 1.f.d...E k & . - j S >.;.f.-.x # : i y y y y y y y y y ",
"y y y y y y y y 0 2 O h o.g.f.V a 2 2 8 2 : a V =.N.>.h % : q d y y y y y y y y ",
"y y y y y y y y 0 8 = h H L L c < < 8 d a 2 2 d H [ H d : < 9 q y y y y y y y y ",
"y y y y y y y y 0 y 2 d b b b d 2 4 q d a 4 4 0 b m c y 4 0 a y y y y y y y y y ",
"y y y y y y y y y d 8 a d q d q y y y 0 q 0 y d y y y 0 q y d i y y y y y y y y ",
"y y y y y y y y y d q y y 0 a q 0 y i e q i y 0 i y y y y e 0 e y y y y y y y y ",
"y y y y y y y y a y q q y y y y 0 y y e e i i e i i i i y e e y y y y y y y y y ",
"y y y y y y y y y q y e q i y i i i i 0 0 y i d e e y e y y i i y y y y y y y y ",
"y y y y y y y y y e i e 0 y 0 i e e y i y e 0 e y i y e e y y 0 y y y y y y y y "
};
