/* XPM */
static char *_1677c8a84a24fa4de6a01d8b6fd0e94tYkGdGIx4yjxd2v8[] = {
/* columns rows colors chars-per-pixel */
"40 40 145 2 ",
"   c #3C2537",
".  c #382739",
"X  c #3A2D3E",
"o  c #3C303E",
"O  c #412A3E",
"+  c #3F3141",
"@  c #422F42",
"#  c #482F44",
"$  c #443444",
"%  c #483445",
"&  c #443946",
"*  c #463648",
"=  c #4B3649",
"-  c #443849",
";  c #4A3B4C",
":  c #4D3F50",
">  c #503E51",
",  c #4D414E",
"<  c #4E4251",
"1  c #4E4B54",
"2  c #534454",
"3  c #594455",
"4  c #554956",
"5  c #564758",
"6  c #5C4759",
"7  c #564C5A",
"8  c #5A4C5C",
"9  c #56545D",
"0  c #5A555E",
"q  c #56585E",
"w  c #59595E",
"e  c #614B5E",
"r  c #5E4E60",
"t  c #575560",
"y  c #5A5761",
"u  c #5B5962",
"i  c #644E62",
"p  c #615464",
"a  c #695266",
"s  c #615965",
"d  c #675668",
"f  c #6A5268",
"g  c #645A69",
"h  c #6D5A6D",
"j  c #715C6F",
"k  c #735E71",
"l  c #64616A",
"z  c #6B616C",
"x  c #766375",
"c  c #7A6677",
"v  c #756A76",
"b  c #776678",
"n  c #7A6479",
"m  c #7D6A7C",
"M  c #77717B",
"N  c #806B7E",
"B  c #7D6F80",
"V  c #836E82",
"C  c #857284",
"Z  c #887386",
"A  c #837984",
"S  c #877688",
"D  c #8C758A",
"F  c #8B7A8D",
"G  c #8C7B8D",
"H  c #8E7B8F",
"J  c #8D798C",
"K  c #917C8F",
"L  c #90798D",
"P  c #917B90",
"I  c #907D90",
"U  c #917E91",
"Y  c #907F92",
"T  c #927F92",
"R  c #937D91",
"E  c #948292",
"W  c #958294",
"Q  c #9A8596",
"!  c #998396",
"~  c #958B96",
"^  c #978698",
"/  c #9B8298",
"(  c #988599",
")  c #9A8598",
"_  c #9D879C",
"`  c #9B869A",
"'  c #9D889B",
"]  c #9E899D",
"[  c #9E8B9F",
"{  c #9E899C",
"}  c #A0899D",
"|  c #A18A9E",
" . c #A08B9E",
".. c #A08A9F",
"X. c #A18B9E",
"o. c #9F8EA0",
"O. c #A38AA0",
"+. c #A38BA1",
"@. c #A48BA1",
"#. c #A18EA1",
"$. c #A28FA3",
"%. c #A68DA3",
"&. c #A38EA2",
"*. c #A390A4",
"=. c #A291A4",
"-. c #A391A7",
";. c #A491A5",
":. c #A593A5",
">. c #A890A6",
",. c #A991A7",
"<. c #A992A6",
"1. c #AB92A7",
"2. c #AA93A7",
"3. c #A994A7",
"4. c #A993A6",
"5. c #A794A8",
"6. c #A796A9",
"7. c #A696A8",
"8. c #AB92A8",
"9. c #AC93A8",
"0. c #AA95A8",
"q. c #AC95A9",
"w. c #AD95AB",
"e. c #AC96AB",
"r. c #AD97AC",
"t. c #AE96AC",
"y. c #AB96A9",
"u. c #AB98AC",
"i. c #AC99AD",
"p. c #AE99AC",
"a. c #AF9AAD",
"s. c #AF99AE",
"d. c #AE9BAF",
"f. c #AB9AAC",
"g. c #B198AE",
"h. c #B299AE",
"j. c #B09AAF",
"k. c #B19AAE",
"l. c #AF9CB0",
"z. c #AD9FB0",
"x. c #B19BB0",
"c. c #B59CB2",
"v. c #B69DB3",
"b. c #B59EB2",
"n. c #B29DB0",
/* pixels */
"w w w w y y y y s y t t y y y t y y y y y y y y 9 q w q 9 9 w u y y y y y y y y ",
"w w w w y y y y 0 y u s s u u u y y y y y t 9 9 y y y u u w 9 9 y y y y y y y y ",
"w w w w y y y y t y s u y 0 t u y y y y y y y y y 9 9 9 y u w 9 y y y y y y y y ",
"w w w w y y y y s u y y 0 0 y u t t t t y y w w u w 9 9 w w u u y y y y y y y y ",
"w w w w y y y y u y y y s s u u u u u u y y y y y u s u u y w u y y y y y y y y ",
"w w w w y y y y y y y s s 0 2 ; < < : : , , < < , 2 0 s u u 0 w y y y y y y y y ",
"0 0 w w y y y y y y y y 8 2 ; * + + + $ + + + + $ ; 2 8 0 y y y y y y y y y y y ",
"0 0 w w y y y y y y y 8 7 4 7 8 r r i i r r e 8 8 7 4 4 0 0 w w y y y y y y y y ",
"0 0 w w y y y y t y y 4 & 2 x G F T G D T T K T E x $ & 0 y s w y y y y y y y y ",
"0 0 0 w y y y y y y y < $ 3 C #.] =.#.#.0.<. .) Q c * & 0 y u 0 y y y y y y y y ",
"0 0 0 w y y y y y y y 2 $ 2 N  .;.i.x.w.<.<.<.<.] m = & 8 t y 9 y y y y y y y y ",
"0 0 0 w y y y y y u s 4 $ 2 V <.5.u.x.t.<.w.g.9. .m = & 7 y y y y y y y y y y y ",
"0 0 0 w y y y y u y y 2 $ 3 D b.i.u.g.i.t.b.b.+. .m = & 7 y u y y y y y y y y y ",
"0 0 0 w y y y y 9 y u 8 $ % a V ;.5.l.] V D %.8. .m = - 7 y u y y y y y y y y y ",
"0 0 0 w y y y y 9 0 s 8 $   = e ) =.l.P e f / g. .m ; * 9 y u y y y y y y y y y ",
"0 0 0 w y y y y u y y 4 $ $ i N  .=.i._ n V @.+. .m ; - 8 y u t y y y y y y y y ",
"y y y y y y y y y 0 s 8 $ 3 Z <.0.i.i.w.<.<.w.w.' C * & y 8 t u y y y y y y w w ",
"y y y y y y y y s t y 2 $ 3 J n.i.g.g.w.w.9.%. .E x @ & p g s 8 y y y y y y w w ",
"y y y y y y y y u y s 7 $ 3 Z w.w.r.r.w.w.0. .! G x > ; 7 y g 0 y y y y y y y w ",
"y y y y y y y y 0 y s 7 $ $ i m W ^ ) ' ' ' ! L T D b p ; < p s y w y y y y y y ",
"y y y y y y y y 0 t 8 2 * $ = 6 V S G G J G L D Q ] ] V 7 : 7 p y w y y y y y y ",
"y y y y y y y y y 8 2 2 i d j m E ^ { ) ^ ) ' ' ' #.r.) m d > < y w w y y y y y ",
"y y y y y y y y s 7 * 2 m W ] 0.5.u.f.u.f.f.r.3.'  .w.;.] B ; $ y w w y y y y y ",
"y y y y y y y y s 1 X ; C o.;.f.f.u.u.u.i.d.0.%.' ] 3.3.0.C = & 0 w w y y y y y ",
"y y y y y y y y y 7 $ 2 m ^ w.0.5.u.f.f.0.f.r.0. .] E ' *.V > o y y y y y y y y ",
"y y y y y y y y y y : 2 d b W #.f.d.l.d.i.f.;.] R Z k h h p 2 4 y y y y y y y y ",
"y y y y y y y y y g 8 2 ; 5 V ] 5.0.5.5.5.<.%.' ' m 3 @ * ; 3 p y y y y y y y y ",
"y y y y y y y y y g p 5 $ ; N X.[ #.*.;.*.#. .' 0.N ; . * 7 y 0 y y y y y y y y ",
"y y y y y y y y y s s 7 $ : C  .) ' ' ) W W ! ] 0.C 6 ; < y s 8 y y y y y y y y ",
"y y y y y y y y u y y 8 $ 2 C ) ] G x a a n ! g.0.) C g < 2 y y y y y y y y y y ",
"y y y y y y y y u y y 8 $ > C !  .m 3 O # i D <.r.i.;.B ; - 7 y y y y y y y y y ",
"y y y y y y y y y t y 8 + ; S Q ) c 3 $ * 6 j N *.f.u.C ; $ 8 y y y y y y y y y ",
"y y y y y y y y w s y < & < v ~ W m < $ 3 , = 0 E 5.:.v < ; 7 p y y y y y y y y ",
"y y y y y y y y w u u 9 1 7 l M v z 4 2 p 4 , 0 v A A z 4 2 0 g y y y y y y y y ",
"y y y y y y y y w y u y y w y s 0 s 0 0 g 0 4 y p s g y 0 0 p y 0 w w w y y y y ",
"y y y y y y y y u w 9 9 y u u y 0 s y 0 y y 0 s y 0 0 y s y 0 w y w w w y y y y ",
"y y y y y y y y u y 9 9 w y u u y s y 9 w u y y s w 0 y u y w w y y y y y y y y ",
"y y y y y y y y y y u y y w w w y y y w y u u w 0 w w y y y y u y y y y y y y y ",
"y y y y y y y y w y u u u y w w u 9 y u y y y w 9 w y w w y u u y y y y y y y y ",
"y y y y y y y y y y w y y u u u u 9 y u 9 9 y y 9 y u y 9 y y 9 y y y y y y y y "
};
