/* XPM */
static char *f7e3201dfa304d71da1e213bf3a4337bMnx5FAcF1NgcKaoP[] = {
/* columns rows colors chars-per-pixel */
"50 50 198 2 ",
"   c #6E3E37",
".  c #663E3E",
"X  c #6D3E3D",
"o  c #723C34",
"O  c #793738",
"+  c #723D3C",
"@  c #7A3A3B",
"#  c #74373E",
"$  c #5C4938",
"%  c #5E4539",
"&  c #6C4132",
"*  c #61413C",
"=  c #6D413C",
"-  c #734234",
";  c #72413E",
":  c #7D463D",
">  c #7E483C",
",  c #7A4B31",
"<  c #663E42",
"1  c #6E3E42",
"2  c #673D4B",
"3  c #6C3D49",
"4  c #723640",
"5  c #713D42",
"6  c #713C49",
"7  c #6E3B51",
"8  c #633E50",
"9  c #703D50",
"0  c #5F4644",
"q  c #524940",
"w  c #574A4A",
"e  c #535F4E",
"r  c #5A574D",
"t  c #4A5E53",
"y  c #525E53",
"u  c #5A5A52",
"i  c #634344",
"p  c #6C4043",
"a  c #64444B",
"s  c #6D4049",
"d  c #66484A",
"f  c #734242",
"g  c #7D4642",
"h  c #7E4A44",
"j  c #74434A",
"k  c #7F4748",
"l  c #7E4848",
"z  c #69574C",
"x  c #644352",
"c  c #664E51",
"v  c #684F55",
"b  c #655253",
"n  c #61505A",
"m  c #625F5D",
"M  c #6A5358",
"N  c #4A604B",
"B  c #586957",
"V  c #5F605B",
"C  c #5F6D5C",
"Z  c #4D7E5E",
"A  c #52795C",
"S  c #4F7F65",
"D  c #537960",
"F  c #587B67",
"G  c #5A7A69",
"H  c #626B66",
"J  c #627861",
"K  c #64706C",
"L  c #834D34",
"P  c #81463E",
"I  c #844C3B",
"U  c #8B493E",
"Y  c #864735",
"T  c #814541",
"R  c #8E4743",
"E  c #854A41",
"W  c #884940",
"Q  c #864F4A",
"!  c #904A40",
"~  c #83504C",
"^  c #9C5E4E",
"/  c #9D5648",
"(  c #8C5654",
")  c #945A52",
"_  c #9C5E53",
"`  c #9C5F58",
"'  c #A45C44",
"]  c #AA5E47",
"[  c #AA5749",
"{  c #A65D4A",
"}  c #AA5E4C",
"|  c #A65446",
" . c #A05D55",
".. c #B05C51",
"X. c #9E6947",
"o. c #9D614D",
"O. c #9B6153",
"+. c #9C615A",
"@. c #A86047",
"#. c #A56149",
"$. c #AB634C",
"%. c #AE6A4D",
"&. c #B3644E",
"*. c #B16B4E",
"=. c #A7714B",
"-. c #AC744F",
";. c #AF6554",
":. c #AD6A53",
">. c #AD6C5D",
",. c #A26759",
"<. c #B26455",
"1. c #B46B54",
"2. c #B96D55",
"3. c #B66F59",
"4. c #BB6D5B",
"5. c #BC6657",
"6. c #AF7255",
"7. c #B27155",
"8. c #BB7356",
"9. c #B5735A",
"0. c #BB755C",
"q. c #BD795C",
"w. c #A86C61",
"e. c #B67565",
"r. c #BA7563",
"t. c #B77966",
"y. c #BD7A65",
"u. c #B67668",
"i. c #BA7669",
"p. c #BD7A68",
"a. c #C37153",
"s. c #CE7F54",
"d. c #C3755C",
"f. c #C37B5D",
"g. c #CC7F5C",
"h. c #C37C64",
"j. c #CB7F62",
"k. c #C47B6A",
"l. c #C87C6A",
"z. c #C47765",
"x. c #3FA17A",
"c. c #39AA7F",
"v. c #4D8166",
"b. c #4D816A",
"n. c #528066",
"m. c #53966D",
"M. c #4C9778",
"N. c #439F7A",
"B. c #509777",
"V. c #549877",
"C. c #47A37E",
"Z. c #54AA79",
"A. c #CD8157",
"S. c #C6815E",
"D. c #CB815D",
"F. c #C2895E",
"G. c #DA8F5E",
"H. c #DB9057",
"J. c #D6915A",
"K. c #DD905A",
"L. c #E6A35F",
"P. c #F0AE5F",
"I. c #C68162",
"U. c #CB8161",
"Y. c #C6826A",
"T. c #C98269",
"R. c #C5886B",
"E. c #D98F62",
"W. c #D48D6C",
"Q. c #CE9665",
"!. c #D59162",
"~. c #DC9B66",
"^. c #D6976E",
"/. c #D69D68",
"(. c #DB9A6A",
"). c #D99161",
"_. c #DE9573",
"`. c #D99973",
"'. c #F09F67",
"]. c #E79E73",
"[. c #E5A365",
"{. c #EBA066",
"}. c #EEAE66",
"|. c #ECA26B",
" X c #ECAE6C",
".X c #E0A36C",
"XX c #F3AD64",
"oX c #F0AC6B",
"OX c #F4AC6B",
"+X c #F8AA6C",
"@X c #F0B06A",
"#X c #ECAC72",
"$X c #EFAE78",
"%X c #F3AB73",
"&X c #F1AE7C",
"*X c #F3B172",
"=X c #34AD81",
"-X c #4F9E81",
/* pixels */
"Z.m.Z N q i 3 6 3 3 3 3 3 3 6 6 1 X X X X X X X X X X X X X X       X 1 3 3 3 1 X = ; = % $ z J C.=X",
"V.m.A e w i 6 6 6 3 3 3 3 3 6 5 1 X X X X X X X X X X X X X X X   X 1 1 3 3 3 1 5 = = = * % z C B.x.",
"S D B r i 5 5 # 5 + 1 1 1 1 5 5 + X 1 1 1 1 1 1 1 1 1 1 1 1 1 5 + 5 5 3 3 3 3 3 6 5 X p i a M m G v.",
"t y r i X # @ O @ o o - - + o o o + + + + + + + + + + + + + + + @ # + 5 5 5 5 5 + + + 5 s a x n u y ",
"w w a 1 # T R ! U I I I I I I I I E E E E E E E E E E E E E E E U U U E E E E E E E T k j 3 8 x a i ",
"x x 3 5 T / ;.3.7.6.-.-.6.6.7.7.7.6.7.6.7.6.7.6.7.6.7.6.7.6.7.7.7.7.7.7.6.6.6.7.7.7.>.,.( j 2 2 3 5 ",
"7 9 6 @ R ;.T._.(.(././.(.(.(.(.(.(.(.(.(.(.(.(.(.(.(.(.(.(.(.(.~.~.(.(.(./.~.~.~.(.`.R.,.h p 3 5 5 ",
"9 3 4 O U 1._.&X$X#X X#X#X#X%X%XoXOXOXOXOX XOXOX X XOXOXOXOXOXOXoXoXOX X X}.}.}.OX*X&X^.:.I   X + 5 ",
"6 3 5 o Y %.(.$X*X@X@X@XOXOX+X+XOXXXXXXXXXXXXXXXXXXXXXXXXXXXXXXXXXXXXXXXXXXXP.P.XXOX%X(.7.L o ; X 1 ",
"3 3 + - L -.(.#X X}.XXXXOXOX+X+XXXXXXXXXXXXXXXXXXXXXXXXXXXXXXXXXXXXXXXXXXXXXXXXXXXOX%X(.7.I o ; X p ",
"3 1 = - L =.Q..X[.L.{.{.{.{.{.{.{.{.{.{.{.{.{.{.{.{.{.{.{.{.{.{.{.{.{.{.{.[.{.{.|.|.].W.;.I + 5 1 p ",
"< . = & , X.F.!.J.J.H.K.K.K.K.G.G.G.G.G.G.G.G.G.G.G.G.G.G.G.G.G.G.E.E.E.!.!.!.).E.E.W.I.,.P + 5 1 1 ",
"p . = & , o.q.S.D.A.s.s.A.A.D.D.D.D.D.D.D.D.D.D.D.D.D.D.D.D.D.D.D.U.U.I.S.S.S.I.g.j.T.p._ g X 3 1 1 ",
"p 1 = = : ^ r.h.f.d.a.a.8.d.f.I.I.D.D.D.D.D.D.D.D.D.D.D.D.D.D.D.j.I.T.j.q.0.0.q.8.d.h.r._ g X 1 5 5 ",
"s 1 + + : _ i.k.4.5.&.&.&.3.y.Y.I.D.D.D.D.D.D.D.D.D.D.D.D.D.D.D.U.U.T.q.7.:.$.$.%.8.h.y.O.:   = 5 3 ",
"3 1 1 + g ` i.k.<...[ | { ;.r.k.I.D.D.D.D.D.D.D.D.D.D.D.D.D.D.D.U.U.j.0.:.#./ / ' 1.y.t.O.:   f 5 3 ",
"3 3 5 + g _ u.p.<.} ' ' } <.r.Y.I.D.D.D.D.D.D.D.D.D.D.D.D.D.D.D.U.U.T.q.:.{ ' ' ' 1.p.r.+.g   1 1 1 ",
"3 3 p + g _ u.p.;.@.' ' } <.r.l.U.D.D.D.D.D.D.D.D.D.D.D.D.D.D.D.I.I.j.0.;.' ' ' { 1.i.u.` h X p 1 1 ",
"3 3 1 + g _ i.p.1.$.] } $.1.r.T.U.D.D.D.D.D.D.D.D.D.D.D.D.D.D.D.g.I.j.q.1.$.@.@.$.3.p.u._ g + p 1 1 ",
"3 3 1 + g _ r.h.q.8.1.2.8.0.h.T.I.D.D.D.D.D.D.D.D.D.D.D.D.D.D.D.D.U.T.h.q.7.1.1.2.q.k.r._ g + p 1 1 ",
"3 3 1 + : _ y.h.h.f.f.j.f.f.j.I.I.D.D.D.D.D.D.D.D.D.D.D.D.D.D.D.D.U.U.I.j.f.h.j.f.h.Y.r._ : X p 1 1 ",
"3 3 1 + : O.p.h.T.I.I.U.U.g.f.g.I.D.D.D.D.D.D.D.D.D.D.D.D.D.D.D.g.D.I.I.I.I.I.T.j.I.T.r._ :   X 1 1 ",
"3 3 1 + : O.y.I.T.I.D.U.D.D.g.D.D.D.D.D.D.D.D.D.D.D.D.D.D.D.D.D.g.D.D.I.I.I.I.I.I.U.T.r.^ :   X 1 1 ",
"3 3 1 + : O.p.I.U.D.D.D.D.D.D.U.D.D.D.D.D.D.D.D.D.D.D.D.D.D.D.D.D.D.D.D.I.I.I.D.g.I.I.9.^ :   X 1 1 ",
"3 3 5 + P ^ 0.T.I.D.D.D.D.D.D.D.D.D.D.D.D.D.D.D.D.D.D.D.D.D.D.D.D.D.D.D.I.I.D.D.D.I.T.0.^ >   X 1 1 ",
"3 6 5 + P ^ 0.I.I.D.D.D.D.D.D.D.D.D.D.D.D.D.D.D.D.D.D.D.D.D.D.D.D.D.D.D.I.D.D.D.D.D.I.0.^ P + X 1 1 ",
"3 6 5 + P ^ r.T.I.D.D.D.D.D.D.D.D.D.D.D.D.D.D.D.D.D.D.D.D.D.D.D.D.D.D.D.D.D.D.D.D.D.I.0.^ P + X 1 1 ",
"3 6 5 + P ^ r.T.I.D.D.D.D.D.D.D.D.D.D.D.D.D.D.D.D.D.D.D.D.D.D.D.g.g.D.D.D.D.D.D.D.D.I.0.^ P + 1 1 1 ",
"3 6 5 o P ^ r.T.I.D.D.D.D.D.D.D.D.D.D.D.D.D.D.D.D.D.D.D.D.D.D.D.g.j.U.I.I.D.D.D.D.D.I.0.^ P + 5 5 1 ",
"3 6 + o P ^ r.T.I.I.D.D.D.D.I.I.D.D.D.D.D.D.D.D.D.D.D.D.D.D.D.D.j.j.U.I.D.D.D.D.D.D.T.0.^ P + 5 5 1 ",
"3 6 + o P ^ r.T.I.U.D.g.U.U.j.U.D.D.D.D.D.D.D.D.D.D.D.D.D.D.D.D.j.j.j.I.D.D.D.D.D.D.I.0.^ T + 5 5 5 ",
"3 6 + o P ^ r.T.I.U.D.D.D.D.U.I.D.D.D.D.D.D.D.D.D.D.D.D.D.D.D.D.g.g.D.D.D.D.D.D.D.D.I.0.^ T + 5 1 5 ",
"6 1 + o P o.y.I.D.D.D.g.g.D.D.D.D.D.D.D.D.D.D.D.D.D.D.D.D.D.D.D.g.g.D.U.U.D.D.D.g.D.T.0.^ : + X 1 1 ",
"6 1 + o : o.y.I.D.D.D.D.D.D.D.D.D.D.D.D.D.D.D.D.D.D.D.D.D.D.D.D.g.g.D.U.U.I.D.D.D.U.T.0.^ : + 5 1 1 ",
"s 1 + + : o.y.h.I.I.S.D.D.S.S.I.I.D.U.I.U.I.U.I.U.I.U.I.I.I.U.D.g.g.U.U.I.S.I.I.D.I.T.r._ g + p 1 p ",
"3 1 1 + : O.y.h.h.q.8.8.q.d.h.I.I.I.I.I.I.I.I.I.I.I.I.I.D.I.D.I.D.U.I.j.d.q.q.q.q.h.l.u._ g 1 s 1 1 ",
"s 3 1 + : O.t.p.9.1.%.%.*.7.y.Y.I.I.I.I.I.I.I.I.I.I.D.D.D.I.I.I.U.U.I.f.7.*.%.%.*.8.h.u._ h 1 3 6 5 ",
"3 3 1 + g _ u.p.1.@.' ' @.%.0.Y.I.D.I.D.U.D.U.D.U.D.D.D.I.D.I.D.U.U.I.q.%.#.] ' ] 1.p.i.+.l 1 3 6 5 ",
"3 1 5 + g _ u.p.1.] ' ' ] $.0.T.D.D.D.D.D.D.D.D.D.D.D.D.D.D.D.D.D.U.I.q.%.] ' ' ] 1.p.i.+.h 1 6 6 5 ",
"1 X + o : _ u.p.1.{ ' ] @.$.0.T.D.D.D.D.D.D.D.D.D.D.D.D.D.D.D.D.D.D.D.q.*.] ' ' ] 1.h.r._ T 5 6 1 1 ",
"1 f ; o P _ u.k.;.@.' ' ] <.0.j.g.g.g.g.g.g.g.g.g.g.g.g.g.g.g.g.D.U.g.q.*.@.' ' ] 2.z.r. .T # 5 1 p ",
"X ; + o : _ e.k.0.3.1.1.3.0.z.T.U.D.U.D.U.D.U.D.U.D.U.D.U.D.U.D.D.U.I.f.8.1.1.1.2.d.l.r. .P + + p p ",
"= =   o : _ e.k.k.k.h.h.h.l.l.T.T.I.j.I.j.U.j.U.j.U.j.U.j.I.j.I.j.I.I.I.p.p.p.h.z.l.k.r._ T + + 5 5 ",
"= p = = g ) w.u.r.r.r.r.r.r.r.r.r.r.r.r.r.r.r.r.r.r.r.r.r.r.r.q.0.0.r.r.u.u.i.i.r.r.r.>.) h + X 5 5 ",
"* i i = f ~ ) _ _ _ _ _ _ _ _ _ _ _ _ _ _ _ _ _ _ _ _ _ _ _ _ _ _ ^ _ O._ ` _ _ _ _ _ ) Q f 1 1 p p ",
"i i i i p f g h T T : : P P P T g g g g g g g g g g g g g g g g T T g g h g g g T P T h f 1 < i i 0 ",
"M M c d i . X X + + + + + + + + X X 1 1 1 1 X X X 1 5 5 1 1 1 X + + X 1 1 1 1 X + + + + 1 < d b u e ",
"K H m b d < 1 1 p f 5 + + + X X 1 1 1 3 3 3 1 1 1 3 3 3 3 3 3 1 5 5 1 3 3 j 6 6 5 + 5 1 < i c V F v.",
"-XV.G u 0 p 5 1 1 1 1 5 5 5 1 1 1 1 1 1 1 1 1 1 1 1 1 5 5 5 1 1 5 5 1 1 6 6 6 1 1 p 5 5 p i u G M.x.",
"c.N.b.y 0 1 5 1 1 1 1 5 5 5 3 3 1 1 1 1 1 1 1 1 1 1 1 5 1 5 1 5 5 5 1 1 5 5 5 1 p p 5 5 f i u n.C.=X"
};
