/* XPM */
static char *f639990c900b474b9b11206bd8a06d73[] = {
/* columns rows colors chars-per-pixel */
"40 40 186 2 ",
"   c #13111E",
".  c #160E25",
"X  c #0E1425",
"o  c #131326",
"O  c #1A1227",
"+  c #15132A",
"@  c #1A142B",
"#  c #15192C",
"$  c #1B1B2D",
"%  c #1B1B33",
"&  c #1E1E38",
"*  c #211E2C",
"=  c #221E33",
"-  c #221C38",
";  c #1C2133",
":  c #222133",
">  c #282735",
",  c #2B2934",
"<  c #26263B",
"1  c #29263A",
"2  c #27293C",
"3  c #2A2A3B",
"4  c #37343D",
"5  c #242746",
"6  c #252943",
"7  c #2B2B44",
"8  c #262648",
"9  c #2A2C49",
"0  c #302E43",
"q  c #312E49",
"w  c #2F3146",
"e  c #2C314B",
"r  c #343245",
"t  c #393447",
"y  c #3B3A44",
"u  c #32334A",
"i  c #39364A",
"p  c #37394D",
"a  c #3C3B4C",
"s  c #2F2F53",
"d  c #2D3456",
"f  c #2F3158",
"g  c #363551",
"h  c #3A3756",
"j  c #353A54",
"k  c #3B3B53",
"l  c #363B5B",
"z  c #3A3C5C",
"x  c #33375C",
"c  c #353B60",
"v  c #3B3E61",
"b  c #3B3E69",
"n  c #433C4E",
"m  c #433F54",
"M  c #3F4054",
"N  c #3D415F",
"B  c #374164",
"V  c #3D4263",
"C  c #3E476C",
"Z  c #3F486D",
"A  c #3E4673",
"S  c #3F4872",
"D  c #3F4778",
"F  c #3F4A78",
"G  c #44424D",
"H  c #444153",
"J  c #4A4750",
"K  c #4B4955",
"L  c #44445B",
"P  c #4A4759",
"I  c #4D4B5A",
"U  c #524D5C",
"Y  c #535057",
"T  c #55535D",
"R  c #59565E",
"E  c #5C595F",
"W  c #424664",
"Q  c #454967",
"!  c #4A4962",
"~  c #43456C",
"^  c #43496E",
"/  c #524F64",
"(  c #4F5064",
")  c #4C516B",
"_  c #545364",
"`  c #5A5662",
"'  c #5C5963",
"]  c #55556D",
"[  c #59576D",
"{  c #57586D",
"}  c #5F5C68",
"|  c #434674",
" . c #424A74",
".. c #4F4F71",
"X. c #444A79",
"o. c #494F7A",
"O. c #475077",
"+. c #4B5176",
"@. c #475079",
"#. c #4A527B",
"$. c #575972",
"%. c #595F76",
"&. c #57577B",
"*. c #565A7C",
"=. c #5C5D7D",
"-. c #615E65",
";. c #625C68",
":. c #63657D",
">. c #69657E",
",. c #555D84",
"<. c #5C5E83",
"1. c #565E8A",
"2. c #585F8A",
"3. c #596186",
"4. c #57608A",
"5. c #5A618B",
"6. c #636382",
"7. c #6B6C86",
"8. c #646B8E",
"9. c #6A6C8A",
"0. c #797A8F",
"q. c #646C94",
"w. c #696E95",
"e. c #676E9A",
"r. c #696E9B",
"t. c #6C7197",
"y. c #6B719B",
"u. c #747593",
"i. c #777C96",
"p. c #7A7890",
"a. c #757B9D",
"s. c #7C7D9C",
"d. c #6B72A1",
"f. c #767EA4",
"g. c #7A7FA5",
"h. c #807E9C",
"j. c #7E8095",
"k. c #7E849D",
"l. c #7780A1",
"z. c #7B81A3",
"x. c #7D82AC",
"c. c #80819C",
"v. c #8384A2",
"b. c #8C8CA1",
"n. c #898DAD",
"m. c #868CAE",
"M. c #8E93AD",
"N. c #9091AC",
"B. c #8A8FB2",
"V. c #848CB0",
"C. c #8B91B4",
"Z. c #8C94B9",
"A. c #9295B5",
"S. c #9296BB",
"D. c #959BBB",
"F. c #999EBA",
"G. c #9A9DBD",
"H. c #9B9DB6",
"J. c #9FA5BE",
"K. c #9EA2BE",
"L. c #A2A4BB",
"P. c #A2A4B9",
"I. c #A2A6BE",
"U. c #A1A5BD",
"Y. c #A3A8BE",
"T. c #A5A9BE",
"R. c #969FC0",
"E. c #9C9FC1",
"W. c #9FA4C2",
"Q. c #9EA3C2",
"!. c #9FA3C8",
"~. c #A2A7C2",
"^. c #A5A7C0",
"/. c #A2A7C4",
"(. c #A3A6C7",
"). c #A2A6C3",
"_. c #A3A9C1",
"`. c #A2A8C2",
"'. c #A4A8C3",
"]. c #A2A8C5",
"[. c #A5A9C7",
"{. c #A7ADC7",
"}. c #A4A9C4",
"|. c #A3A6C9",
" X c #A7ABCB",
".X c #A5A8CA",
/* pixels */
"-.E R ' ' T ` } ` ` a * @ O . @ o o o o o o o o $ o + $ $ a ] ` } ` R ` E R E -.",
"Y Y T ' ' ' ` ` _ U i 1 = = = = : : : : : : : : = $ % : 1 a / _ ` ` ` ' E R Y Y ",
"T R R ` ' ' _ I H t t k m P / _ _ _ _ _ _ _ _ _ _ ( L M k a a H U T } ' R R R R ",
"' ' ' ` ` ` T K r 3 k [ >.p.b.b.b.b.b.b.b.b.b.b.b.b.0.>.{ a 2 0 P T ` ` R E ' E ",
"R ` ` ` _ T I H r 0 ! 7.h.N.U.U.L.L.L.L.L.L.L.L.L.P.N.j.7.I 7 r H I T _ ` ` ' R ",
"` ` } ` T H t r H ! :.c.N.G.).(.^.Y.^.Y.^.Y.^.Y.U.U.H.M.c.:.! L r t H T ` } ` ' ",
";.` ` ` P t 7 u ] 7.h.A.~.[.(.[.'.`.[.`.'.`.'.`.).U.`.J.M.k.9.] r 7 t P ` ` ` } ",
";.U I I m r p ! 6.v.A.G..X.XQ.W.(.`.`.`.`.`.`.`.).J.{.{.F.M.k.:.L p r H I I T } ",
"` T H r r m ] 6.v.A.G.(.(.(.[.].(.(.(.(.).).).(.(.].].).W.F.M.v.:.] L u r H _ ' ",
"` I t 1 7 ! 7.s.A.G.(.|.(.(.(.W.(.(.(.(.).).).(.).(.(.(.).).F.A.s.7.! 7 3 p I ` ",
"i i i a ! :.v.A.E.(..X|.(.(.(.).(.(.).).).).(.(.).(.(.).].[.).K.A.v.6.! k a a i ",
"$ 3 k ] 7.v.A.E.Q.(.|.).W.).`.`.(.(.).).).).(.(.(.].).W.).].(.Q.Q.A.v.9.] k 3 $ ",
"o ; a $.u.n.G..X(.(.(.~.K.).T.).).).).).(.(.(.(.(.[.(.Q.).(.(.~. XE.n.u.$.k ; o ",
"X ; k %.i.M.E..X|..X[.).U.Y.T.U.).).).).(.(.(.(.).[.(.).).[.[.)..XE.B.i.%.k ; o ",
"X ; j %.i.n.D.E.(..X[.).T.T.T.P.^.^.^.^.^.^.^.^.U.^.[.^.^.[.[.).E.S.n.a.=.h & o ",
"# ; e ) 9.z.C.E.Q.(.).).Y.T.T.P.^.^.^.^.^.^.^.).U.'.[.).U.).).K.E.C.z.9.) u & + ",
"o % w Q *.q.g.C.D.Q.[.`.U.U.T.'.).(.).).).).).`.'.`.).).]..XQ.D.C.f.8.*.Q e % + ",
"o $ 7 W #.<.e.g.Z.R.].`.`.U.).).).).).).).U.U.U.U.`.`.].].].G.Z.f.w.,.+.V 9 $ o ",
"o # 6 z | #.1.q.f.V.D.W.`.[.[.(.[.[.[.'.'.'.`.`.`.[.[.].W.D.m.f.q.,.O. .z 7 % o ",
"o $ 7 z | X.o.,.q.a.B.D.W.].(.(.).).).[.[.'.`.`.).].].W.D.n.a.8.,.O. .^ z 7 % + ",
"o % 7 v | | X.#.2.w.z.C.D.W.(.Q.(.(.(.(.(.(.(.(.W.W.W.D.C.z.w.3.#. . .^ V 9 % + ",
"o $ 7 v | | | X.#.,.w.l.B.E.(..X.X.X.X[.[.[.[.[.].].G.B.g.w.,.O.X.S | ^ v 6 % + ",
"o $ 7 v | | | X.A o.,.8.f.C.!.|.!.Q.Q.Q.Q.W.W.W.].Q.C.a.8.,.O.S  .A S ~ v 8 % + ",
"o $ 7 v | | | X.X.o.#.,.w.g.C.S.S.S.S.S.S.A.A.A.A.C.l.w.,.#.O. . .A  .^ v 9 % + ",
"o $ 7 z | | | |  . . .O.,.w.f.x.g.g.g.g.l.l.l.l.z.f.w.,.O. . .S A S  .^ v 9 % + ",
"o $ 7 z ~ | | X.A | S  .O.5.r.y.y.t.t.t.t.t.t.t.t.w.3.O. .S S A  . . .~ l 7 % + ",
"o $ 7 z ~ X.| |  . .S S @.,.q.e.w.w.w.w.w.w.w.w.w.q.,.@.S A  . . . . .^ l 7 % o ",
"  $ 7 z ^ X.| S  . . . .O.4.q.y.r.r.r.r.r.w.e.e.y.w.4.#. . .X. .S S  .^ z 7 % o ",
"* > 0 g v ~ |  .S S S Z @.1.q.y.r.r.r.r.r.r.e.e.y.q.1.@.A A D A S  .C V j 7 < = ",
"y y r 9 s c | X. . . . .@.1.q.r.r.r.r.r.r.r.e.e.e.q.1.o. . .X.X. .Z c e 9 u p a ",
"Y K a 7 8 f b S  . . . .#.4.q.y.r.r.r.r.y.y.y.y.y.q.1.#.X.X.F F Z B d 5 6 p I _ ",
"' T G 0 7 9 x c Z Z Z Z @.1.q.y.r.r.r.r.r.r.r.r.y.q.1.o.A A A S l j e 6 7 H _ ' ",
"' Y I I a 3 2 w l W  .Z  .4.r.d.r.r.r.r.r.r.r.r.d.r.2.X.| X.S l w > , a I I Y ' ",
"R T ` T K r 2 2 j N W C  .1.q.r.e.e.r.e.r.e.r.r.r.q.1. .~ C V h 3 , 4 J T R T R ",
"T ' } ' T H r 3 w u l C +.,.q.y.w.w.w.w.r.r.r.r.r.q.<.+.~ l d w 3 4 G Y ' ' ' T ",
"R ' ' T T T K a 2 2 w N +.<.q.t.w.w.w.w.w.w.w.w.t.8.<.+.V e 5 6 a J Y Y T ' ' R ",
"` } ' T T ' ` I 7 7 7 h ! ..&.<.=.=.=.=.=.=.<.<.<.&...W h 9 7 7 I R ' T T ' ' R ",
"` } } ` ' } ` I H a r 0 q g h h h h h h h h h h h h g w 7 u k H I R } ' ` ' ' R ",
"` ' ' ' ' ` ` T T I i 1 % - - & % % % % & % & % & & & % < a I _ T R ` ' ' ' ' R ",
"} ` T T T T ` } } _ n = . O @ o + + + + + + + + + @ + o : k _ ' } R T T T T R ' "
};
